G04 #@! TF.GenerationSoftware,KiCad,Pcbnew,(5.1.8)-1*
G04 #@! TF.CreationDate,2021-03-02T12:26:28+01:00*
G04 #@! TF.ProjectId,Lokstyrning,4c6f6b73-7479-4726-9e69-6e672e6b6963,rev?*
G04 #@! TF.SameCoordinates,Original*
G04 #@! TF.FileFunction,Legend,Top*
G04 #@! TF.FilePolarity,Positive*
%FSLAX46Y46*%
G04 Gerber Fmt 4.6, Leading zero omitted, Abs format (unit mm)*
G04 Created by KiCad (PCBNEW (5.1.8)-1) date 2021-03-02 12:26:28*
%MOMM*%
%LPD*%
G01*
G04 APERTURE LIST*
%ADD10C,0.300000*%
%ADD11C,0.200000*%
%ADD12C,0.120000*%
%ADD13C,0.150000*%
G04 APERTURE END LIST*
D10*
X213009871Y-94808728D02*
X213009871Y-95665871D01*
X213009871Y-95237300D02*
X211509871Y-95237300D01*
X211724157Y-95380157D01*
X211867014Y-95523014D01*
X211938442Y-95665871D01*
X218559771Y-91633728D02*
X218559771Y-92490871D01*
X218559771Y-92062300D02*
X217059771Y-92062300D01*
X217274057Y-92205157D01*
X217416914Y-92348014D01*
X217488342Y-92490871D01*
X216259671Y-116925671D02*
X217473957Y-116925671D01*
X217616814Y-116854242D01*
X217688242Y-116782814D01*
X217759671Y-116639957D01*
X217759671Y-116354242D01*
X217688242Y-116211385D01*
X217616814Y-116139957D01*
X217473957Y-116068528D01*
X216259671Y-116068528D01*
X178973871Y-117719385D02*
X177473871Y-117719385D01*
X178973871Y-116219385D02*
X178973871Y-117076528D01*
X178973871Y-116647957D02*
X177473871Y-116647957D01*
X177688157Y-116790814D01*
X177831014Y-116933671D01*
X177902442Y-117076528D01*
X218779814Y-99779971D02*
X218779814Y-101065685D01*
X218708385Y-101208542D01*
X218565528Y-101279971D01*
X218494100Y-101279971D01*
X218779814Y-99279971D02*
X218708385Y-99351400D01*
X218779814Y-99422828D01*
X218851242Y-99351400D01*
X218779814Y-99279971D01*
X218779814Y-99422828D01*
X220279814Y-100779971D02*
X219422671Y-100779971D01*
X219851242Y-100779971D02*
X219851242Y-99279971D01*
X219708385Y-99494257D01*
X219565528Y-99637114D01*
X219422671Y-99708542D01*
X208734114Y-99932371D02*
X208734114Y-101218085D01*
X208662685Y-101360942D01*
X208519828Y-101432371D01*
X208448400Y-101432371D01*
X208734114Y-99432371D02*
X208662685Y-99503800D01*
X208734114Y-99575228D01*
X208805542Y-99503800D01*
X208734114Y-99432371D01*
X208734114Y-99575228D01*
X209376971Y-99575228D02*
X209448400Y-99503800D01*
X209591257Y-99432371D01*
X209948400Y-99432371D01*
X210091257Y-99503800D01*
X210162685Y-99575228D01*
X210234114Y-99718085D01*
X210234114Y-99860942D01*
X210162685Y-100075228D01*
X209305542Y-100932371D01*
X210234114Y-100932371D01*
D11*
X218808300Y-102108000D02*
X220611700Y-102108000D01*
X208635600Y-102222300D02*
X210426300Y-102235000D01*
D10*
X202246800Y-116116942D02*
X202175371Y-116259800D01*
X202175371Y-116474085D01*
X202246800Y-116688371D01*
X202389657Y-116831228D01*
X202532514Y-116902657D01*
X202818228Y-116974085D01*
X203032514Y-116974085D01*
X203318228Y-116902657D01*
X203461085Y-116831228D01*
X203603942Y-116688371D01*
X203675371Y-116474085D01*
X203675371Y-116331228D01*
X203603942Y-116116942D01*
X203532514Y-116045514D01*
X203032514Y-116045514D01*
X203032514Y-116331228D01*
D11*
X202692000Y-59944000D02*
X202692000Y-60960000D01*
X207264000Y-59944000D02*
X202692000Y-59944000D01*
X206756000Y-59944000D02*
X207264000Y-59944000D01*
X212852000Y-59944000D02*
X206756000Y-59944000D01*
D10*
X212169142Y-57741428D02*
X212669142Y-58455714D01*
X213026285Y-57741428D02*
X213026285Y-59241428D01*
X212454857Y-59241428D01*
X212312000Y-59170000D01*
X212240571Y-59098571D01*
X212169142Y-58955714D01*
X212169142Y-58741428D01*
X212240571Y-58598571D01*
X212312000Y-58527142D01*
X212454857Y-58455714D01*
X213026285Y-58455714D01*
X210954857Y-57812857D02*
X211097714Y-57741428D01*
X211383428Y-57741428D01*
X211526285Y-57812857D01*
X211597714Y-57955714D01*
X211597714Y-58527142D01*
X211526285Y-58670000D01*
X211383428Y-58741428D01*
X211097714Y-58741428D01*
X210954857Y-58670000D01*
X210883428Y-58527142D01*
X210883428Y-58384285D01*
X211597714Y-58241428D01*
X210312000Y-57812857D02*
X210169142Y-57741428D01*
X209883428Y-57741428D01*
X209740571Y-57812857D01*
X209669142Y-57955714D01*
X209669142Y-58027142D01*
X209740571Y-58170000D01*
X209883428Y-58241428D01*
X210097714Y-58241428D01*
X210240571Y-58312857D01*
X210312000Y-58455714D01*
X210312000Y-58527142D01*
X210240571Y-58670000D01*
X210097714Y-58741428D01*
X209883428Y-58741428D01*
X209740571Y-58670000D01*
X208454857Y-57812857D02*
X208597714Y-57741428D01*
X208883428Y-57741428D01*
X209026285Y-57812857D01*
X209097714Y-57955714D01*
X209097714Y-58527142D01*
X209026285Y-58670000D01*
X208883428Y-58741428D01*
X208597714Y-58741428D01*
X208454857Y-58670000D01*
X208383428Y-58527142D01*
X208383428Y-58384285D01*
X209097714Y-58241428D01*
X207954857Y-58741428D02*
X207383428Y-58741428D01*
X207740571Y-59241428D02*
X207740571Y-57955714D01*
X207669142Y-57812857D01*
X207526285Y-57741428D01*
X207383428Y-57741428D01*
X190360857Y-59241428D02*
X190360857Y-58027142D01*
X190289428Y-57884285D01*
X190218000Y-57812857D01*
X190075142Y-57741428D01*
X189789428Y-57741428D01*
X189646571Y-57812857D01*
X189575142Y-57884285D01*
X189503714Y-58027142D01*
X189503714Y-59241428D01*
X188860857Y-57812857D02*
X188646571Y-57741428D01*
X188289428Y-57741428D01*
X188146571Y-57812857D01*
X188075142Y-57884285D01*
X188003714Y-58027142D01*
X188003714Y-58170000D01*
X188075142Y-58312857D01*
X188146571Y-58384285D01*
X188289428Y-58455714D01*
X188575142Y-58527142D01*
X188718000Y-58598571D01*
X188789428Y-58670000D01*
X188860857Y-58812857D01*
X188860857Y-58955714D01*
X188789428Y-59098571D01*
X188718000Y-59170000D01*
X188575142Y-59241428D01*
X188218000Y-59241428D01*
X188003714Y-59170000D01*
X186860857Y-58527142D02*
X186646571Y-58455714D01*
X186575142Y-58384285D01*
X186503714Y-58241428D01*
X186503714Y-58027142D01*
X186575142Y-57884285D01*
X186646571Y-57812857D01*
X186789428Y-57741428D01*
X187360857Y-57741428D01*
X187360857Y-59241428D01*
X186860857Y-59241428D01*
X186718000Y-59170000D01*
X186646571Y-59098571D01*
X186575142Y-58955714D01*
X186575142Y-58812857D01*
X186646571Y-58670000D01*
X186718000Y-58598571D01*
X186860857Y-58527142D01*
X187360857Y-58527142D01*
X176056057Y-59973471D02*
X176556057Y-61473471D01*
X177056057Y-59973471D01*
X178127485Y-61402042D02*
X177984628Y-61473471D01*
X177698914Y-61473471D01*
X177556057Y-61402042D01*
X177484628Y-61259185D01*
X177484628Y-60687757D01*
X177556057Y-60544900D01*
X177698914Y-60473471D01*
X177984628Y-60473471D01*
X178127485Y-60544900D01*
X178198914Y-60687757D01*
X178198914Y-60830614D01*
X177484628Y-60973471D01*
X178841771Y-61473471D02*
X178841771Y-60473471D01*
X178841771Y-60759185D02*
X178913200Y-60616328D01*
X178984628Y-60544900D01*
X179127485Y-60473471D01*
X179270342Y-60473471D01*
X181698914Y-61473471D02*
X180841771Y-61473471D01*
X181270342Y-61473471D02*
X181270342Y-59973471D01*
X181127485Y-60187757D01*
X180984628Y-60330614D01*
X180841771Y-60402042D01*
X182341771Y-61330614D02*
X182413200Y-61402042D01*
X182341771Y-61473471D01*
X182270342Y-61402042D01*
X182341771Y-61330614D01*
X182341771Y-61473471D01*
X183841771Y-61473471D02*
X182984628Y-61473471D01*
X183413200Y-61473471D02*
X183413200Y-59973471D01*
X183270342Y-60187757D01*
X183127485Y-60330614D01*
X182984628Y-60402042D01*
X185556057Y-60116328D02*
X185627485Y-60044900D01*
X185770342Y-59973471D01*
X186127485Y-59973471D01*
X186270342Y-60044900D01*
X186341771Y-60116328D01*
X186413200Y-60259185D01*
X186413200Y-60402042D01*
X186341771Y-60616328D01*
X185484628Y-61473471D01*
X186413200Y-61473471D01*
X187341771Y-59973471D02*
X187484628Y-59973471D01*
X187627485Y-60044900D01*
X187698914Y-60116328D01*
X187770342Y-60259185D01*
X187841771Y-60544900D01*
X187841771Y-60902042D01*
X187770342Y-61187757D01*
X187698914Y-61330614D01*
X187627485Y-61402042D01*
X187484628Y-61473471D01*
X187341771Y-61473471D01*
X187198914Y-61402042D01*
X187127485Y-61330614D01*
X187056057Y-61187757D01*
X186984628Y-60902042D01*
X186984628Y-60544900D01*
X187056057Y-60259185D01*
X187127485Y-60116328D01*
X187198914Y-60044900D01*
X187341771Y-59973471D01*
X188413200Y-60116328D02*
X188484628Y-60044900D01*
X188627485Y-59973471D01*
X188984628Y-59973471D01*
X189127485Y-60044900D01*
X189198914Y-60116328D01*
X189270342Y-60259185D01*
X189270342Y-60402042D01*
X189198914Y-60616328D01*
X188341771Y-61473471D01*
X189270342Y-61473471D01*
X190198914Y-59973471D02*
X190341771Y-59973471D01*
X190484628Y-60044900D01*
X190556057Y-60116328D01*
X190627485Y-60259185D01*
X190698914Y-60544900D01*
X190698914Y-60902042D01*
X190627485Y-61187757D01*
X190556057Y-61330614D01*
X190484628Y-61402042D01*
X190341771Y-61473471D01*
X190198914Y-61473471D01*
X190056057Y-61402042D01*
X189984628Y-61330614D01*
X189913200Y-61187757D01*
X189841771Y-60902042D01*
X189841771Y-60544900D01*
X189913200Y-60259185D01*
X189984628Y-60116328D01*
X190056057Y-60044900D01*
X190198914Y-59973471D01*
X191341771Y-60902042D02*
X192484628Y-60902042D01*
X193484628Y-59973471D02*
X193627485Y-59973471D01*
X193770342Y-60044900D01*
X193841771Y-60116328D01*
X193913200Y-60259185D01*
X193984628Y-60544900D01*
X193984628Y-60902042D01*
X193913200Y-61187757D01*
X193841771Y-61330614D01*
X193770342Y-61402042D01*
X193627485Y-61473471D01*
X193484628Y-61473471D01*
X193341771Y-61402042D01*
X193270342Y-61330614D01*
X193198914Y-61187757D01*
X193127485Y-60902042D01*
X193127485Y-60544900D01*
X193198914Y-60259185D01*
X193270342Y-60116328D01*
X193341771Y-60044900D01*
X193484628Y-59973471D01*
X195413200Y-61473471D02*
X194556057Y-61473471D01*
X194984628Y-61473471D02*
X194984628Y-59973471D01*
X194841771Y-60187757D01*
X194698914Y-60330614D01*
X194556057Y-60402042D01*
X196056057Y-60902042D02*
X197198914Y-60902042D01*
X198698914Y-61473471D02*
X197841771Y-61473471D01*
X198270342Y-61473471D02*
X198270342Y-59973471D01*
X198127485Y-60187757D01*
X197984628Y-60330614D01*
X197841771Y-60402042D01*
X199198914Y-59973471D02*
X200198914Y-59973471D01*
X199556057Y-61473471D01*
X220767500Y-54566428D02*
X220767500Y-56066428D01*
X219910357Y-54566428D01*
X219910357Y-56066428D01*
X219410357Y-56066428D02*
X218553214Y-56066428D01*
X218981785Y-54566428D02*
X218981785Y-56066428D01*
X217624642Y-56066428D02*
X217624642Y-54995000D01*
X217696071Y-54780714D01*
X217838928Y-54637857D01*
X218053214Y-54566428D01*
X218196071Y-54566428D01*
X215053214Y-54566428D02*
X215767500Y-54566428D01*
X215767500Y-56066428D01*
X214338928Y-54566428D02*
X214481785Y-54637857D01*
X214553214Y-54709285D01*
X214624642Y-54852142D01*
X214624642Y-55280714D01*
X214553214Y-55423571D01*
X214481785Y-55495000D01*
X214338928Y-55566428D01*
X214124642Y-55566428D01*
X213981785Y-55495000D01*
X213910357Y-55423571D01*
X213838928Y-55280714D01*
X213838928Y-54852142D01*
X213910357Y-54709285D01*
X213981785Y-54637857D01*
X214124642Y-54566428D01*
X214338928Y-54566428D01*
X212553214Y-54637857D02*
X212696071Y-54566428D01*
X212981785Y-54566428D01*
X213124642Y-54637857D01*
X213196071Y-54709285D01*
X213267500Y-54852142D01*
X213267500Y-55280714D01*
X213196071Y-55423571D01*
X213124642Y-55495000D01*
X212981785Y-55566428D01*
X212696071Y-55566428D01*
X212553214Y-55495000D01*
X211696071Y-54566428D02*
X211838928Y-54637857D01*
X211910357Y-54709285D01*
X211981785Y-54852142D01*
X211981785Y-55280714D01*
X211910357Y-55423571D01*
X211838928Y-55495000D01*
X211696071Y-55566428D01*
X211481785Y-55566428D01*
X211338928Y-55495000D01*
X211267500Y-55423571D01*
X211196071Y-55280714D01*
X211196071Y-54852142D01*
X211267500Y-54709285D01*
X211338928Y-54637857D01*
X211481785Y-54566428D01*
X211696071Y-54566428D01*
X208553214Y-54709285D02*
X208624642Y-54637857D01*
X208838928Y-54566428D01*
X208981785Y-54566428D01*
X209196071Y-54637857D01*
X209338928Y-54780714D01*
X209410357Y-54923571D01*
X209481785Y-55209285D01*
X209481785Y-55423571D01*
X209410357Y-55709285D01*
X209338928Y-55852142D01*
X209196071Y-55995000D01*
X208981785Y-56066428D01*
X208838928Y-56066428D01*
X208624642Y-55995000D01*
X208553214Y-55923571D01*
X207696071Y-54566428D02*
X207838928Y-54637857D01*
X207910357Y-54709285D01*
X207981785Y-54852142D01*
X207981785Y-55280714D01*
X207910357Y-55423571D01*
X207838928Y-55495000D01*
X207696071Y-55566428D01*
X207481785Y-55566428D01*
X207338928Y-55495000D01*
X207267500Y-55423571D01*
X207196071Y-55280714D01*
X207196071Y-54852142D01*
X207267500Y-54709285D01*
X207338928Y-54637857D01*
X207481785Y-54566428D01*
X207696071Y-54566428D01*
X206553214Y-55566428D02*
X206553214Y-54566428D01*
X206553214Y-55423571D02*
X206481785Y-55495000D01*
X206338928Y-55566428D01*
X206124642Y-55566428D01*
X205981785Y-55495000D01*
X205910357Y-55352142D01*
X205910357Y-54566428D01*
X205410357Y-55566428D02*
X204838928Y-55566428D01*
X205196071Y-56066428D02*
X205196071Y-54780714D01*
X205124642Y-54637857D01*
X204981785Y-54566428D01*
X204838928Y-54566428D01*
X204338928Y-54566428D02*
X204338928Y-55566428D01*
X204338928Y-55280714D02*
X204267500Y-55423571D01*
X204196071Y-55495000D01*
X204053214Y-55566428D01*
X203910357Y-55566428D01*
X203196071Y-54566428D02*
X203338928Y-54637857D01*
X203410357Y-54709285D01*
X203481785Y-54852142D01*
X203481785Y-55280714D01*
X203410357Y-55423571D01*
X203338928Y-55495000D01*
X203196071Y-55566428D01*
X202981785Y-55566428D01*
X202838928Y-55495000D01*
X202767500Y-55423571D01*
X202696071Y-55280714D01*
X202696071Y-54852142D01*
X202767500Y-54709285D01*
X202838928Y-54637857D01*
X202981785Y-54566428D01*
X203196071Y-54566428D01*
X201838928Y-54566428D02*
X201981785Y-54637857D01*
X202053214Y-54780714D01*
X202053214Y-56066428D01*
X200338928Y-56066428D02*
X199838928Y-54566428D01*
X199338928Y-56066428D01*
X198910357Y-55923571D02*
X198838928Y-55995000D01*
X198696071Y-56066428D01*
X198338928Y-56066428D01*
X198196071Y-55995000D01*
X198124642Y-55923571D01*
X198053214Y-55780714D01*
X198053214Y-55637857D01*
X198124642Y-55423571D01*
X198981785Y-54566428D01*
X198053214Y-54566428D01*
X197410357Y-54709285D02*
X197338928Y-54637857D01*
X197410357Y-54566428D01*
X197481785Y-54637857D01*
X197410357Y-54709285D01*
X197410357Y-54566428D01*
X196410357Y-56066428D02*
X196267500Y-56066428D01*
X196124642Y-55995000D01*
X196053214Y-55923571D01*
X195981785Y-55780714D01*
X195910357Y-55495000D01*
X195910357Y-55137857D01*
X195981785Y-54852142D01*
X196053214Y-54709285D01*
X196124642Y-54637857D01*
X196267500Y-54566428D01*
X196410357Y-54566428D01*
X196553214Y-54637857D01*
X196624642Y-54709285D01*
X196696071Y-54852142D01*
X196767500Y-55137857D01*
X196767500Y-55495000D01*
X196696071Y-55780714D01*
X196624642Y-55923571D01*
X196553214Y-55995000D01*
X196410357Y-56066428D01*
X194196071Y-55923571D02*
X194124642Y-55995000D01*
X193981785Y-56066428D01*
X193624642Y-56066428D01*
X193481785Y-55995000D01*
X193410357Y-55923571D01*
X193338928Y-55780714D01*
X193338928Y-55637857D01*
X193410357Y-55423571D01*
X194267500Y-54566428D01*
X193338928Y-54566428D01*
X192410357Y-56066428D02*
X192267500Y-56066428D01*
X192124642Y-55995000D01*
X192053214Y-55923571D01*
X191981785Y-55780714D01*
X191910357Y-55495000D01*
X191910357Y-55137857D01*
X191981785Y-54852142D01*
X192053214Y-54709285D01*
X192124642Y-54637857D01*
X192267500Y-54566428D01*
X192410357Y-54566428D01*
X192553214Y-54637857D01*
X192624642Y-54709285D01*
X192696071Y-54852142D01*
X192767500Y-55137857D01*
X192767500Y-55495000D01*
X192696071Y-55780714D01*
X192624642Y-55923571D01*
X192553214Y-55995000D01*
X192410357Y-56066428D01*
X190481785Y-54566428D02*
X191338928Y-54566428D01*
X190910357Y-54566428D02*
X190910357Y-56066428D01*
X191053214Y-55852142D01*
X191196071Y-55709285D01*
X191338928Y-55637857D01*
X189053214Y-54566428D02*
X189910357Y-54566428D01*
X189481785Y-54566428D02*
X189481785Y-56066428D01*
X189624642Y-55852142D01*
X189767500Y-55709285D01*
X189910357Y-55637857D01*
X187624642Y-54566428D02*
X188481785Y-54566428D01*
X188053214Y-54566428D02*
X188053214Y-56066428D01*
X188196071Y-55852142D01*
X188338928Y-55709285D01*
X188481785Y-55637857D01*
X186338928Y-55566428D02*
X186338928Y-54566428D01*
X186696071Y-56137857D02*
X187053214Y-55066428D01*
X186124642Y-55066428D01*
X181194971Y-117995557D02*
X182409257Y-117995557D01*
X182552114Y-117924128D01*
X182623542Y-117852700D01*
X182694971Y-117709842D01*
X182694971Y-117424128D01*
X182623542Y-117281271D01*
X182552114Y-117209842D01*
X182409257Y-117138414D01*
X181194971Y-117138414D01*
X181194971Y-115781271D02*
X181194971Y-116066985D01*
X181266400Y-116209842D01*
X181337828Y-116281271D01*
X181552114Y-116424128D01*
X181837828Y-116495557D01*
X182409257Y-116495557D01*
X182552114Y-116424128D01*
X182623542Y-116352700D01*
X182694971Y-116209842D01*
X182694971Y-115924128D01*
X182623542Y-115781271D01*
X182552114Y-115709842D01*
X182409257Y-115638414D01*
X182052114Y-115638414D01*
X181909257Y-115709842D01*
X181837828Y-115781271D01*
X181766400Y-115924128D01*
X181766400Y-116209842D01*
X181837828Y-116352700D01*
X181909257Y-116424128D01*
X182052114Y-116495557D01*
X184636671Y-118033657D02*
X185850957Y-118033657D01*
X185993814Y-117962228D01*
X186065242Y-117890800D01*
X186136671Y-117747942D01*
X186136671Y-117462228D01*
X186065242Y-117319371D01*
X185993814Y-117247942D01*
X185850957Y-117176514D01*
X184636671Y-117176514D01*
X184636671Y-115747942D02*
X184636671Y-116462228D01*
X185350957Y-116533657D01*
X185279528Y-116462228D01*
X185208100Y-116319371D01*
X185208100Y-115962228D01*
X185279528Y-115819371D01*
X185350957Y-115747942D01*
X185493814Y-115676514D01*
X185850957Y-115676514D01*
X185993814Y-115747942D01*
X186065242Y-115819371D01*
X186136671Y-115962228D01*
X186136671Y-116319371D01*
X186065242Y-116462228D01*
X185993814Y-116533657D01*
X187951371Y-118033657D02*
X189165657Y-118033657D01*
X189308514Y-117962228D01*
X189379942Y-117890800D01*
X189451371Y-117747942D01*
X189451371Y-117462228D01*
X189379942Y-117319371D01*
X189308514Y-117247942D01*
X189165657Y-117176514D01*
X187951371Y-117176514D01*
X188451371Y-115819371D02*
X189451371Y-115819371D01*
X187879942Y-116176514D02*
X188951371Y-116533657D01*
X188951371Y-115605085D01*
X191697871Y-118249557D02*
X192912157Y-118249557D01*
X193055014Y-118178128D01*
X193126442Y-118106700D01*
X193197871Y-117963842D01*
X193197871Y-117678128D01*
X193126442Y-117535271D01*
X193055014Y-117463842D01*
X192912157Y-117392414D01*
X191697871Y-117392414D01*
X191697871Y-116820985D02*
X191697871Y-115892414D01*
X192269300Y-116392414D01*
X192269300Y-116178128D01*
X192340728Y-116035271D01*
X192412157Y-115963842D01*
X192555014Y-115892414D01*
X192912157Y-115892414D01*
X193055014Y-115963842D01*
X193126442Y-116035271D01*
X193197871Y-116178128D01*
X193197871Y-116606700D01*
X193126442Y-116749557D01*
X193055014Y-116820985D01*
X195114171Y-118186057D02*
X196328457Y-118186057D01*
X196471314Y-118114628D01*
X196542742Y-118043200D01*
X196614171Y-117900342D01*
X196614171Y-117614628D01*
X196542742Y-117471771D01*
X196471314Y-117400342D01*
X196328457Y-117328914D01*
X195114171Y-117328914D01*
X195257028Y-116686057D02*
X195185600Y-116614628D01*
X195114171Y-116471771D01*
X195114171Y-116114628D01*
X195185600Y-115971771D01*
X195257028Y-115900342D01*
X195399885Y-115828914D01*
X195542742Y-115828914D01*
X195757028Y-115900342D01*
X196614171Y-116757485D01*
X196614171Y-115828914D01*
X198530471Y-118071757D02*
X199744757Y-118071757D01*
X199887614Y-118000328D01*
X199959042Y-117928900D01*
X200030471Y-117786042D01*
X200030471Y-117500328D01*
X199959042Y-117357471D01*
X199887614Y-117286042D01*
X199744757Y-117214614D01*
X198530471Y-117214614D01*
X200030471Y-115714614D02*
X200030471Y-116571757D01*
X200030471Y-116143185D02*
X198530471Y-116143185D01*
X198744757Y-116286042D01*
X198887614Y-116428900D01*
X198959042Y-116571757D01*
X205896471Y-117367014D02*
X205896471Y-118081300D01*
X206610757Y-118152728D01*
X206539328Y-118081300D01*
X206467900Y-117938442D01*
X206467900Y-117581300D01*
X206539328Y-117438442D01*
X206610757Y-117367014D01*
X206753614Y-117295585D01*
X207110757Y-117295585D01*
X207253614Y-117367014D01*
X207325042Y-117438442D01*
X207396471Y-117581300D01*
X207396471Y-117938442D01*
X207325042Y-118081300D01*
X207253614Y-118152728D01*
X205896471Y-116867014D02*
X207396471Y-116367014D01*
X205896471Y-115867014D01*
X226535371Y-84650200D02*
X225035371Y-84650200D01*
X226106800Y-84150200D01*
X225035371Y-83650200D01*
X226535371Y-83650200D01*
X226776671Y-88193500D02*
X225276671Y-88193500D01*
X226348100Y-87693500D01*
X225276671Y-87193500D01*
X226776671Y-87193500D01*
X209236571Y-118446371D02*
X210736571Y-117946371D01*
X209236571Y-117446371D01*
X210165142Y-116946371D02*
X210165142Y-115803514D01*
X212576671Y-118446371D02*
X214076671Y-117946371D01*
X212576671Y-117446371D01*
X213505242Y-116946371D02*
X213505242Y-115803514D01*
X214076671Y-116374942D02*
X212933814Y-116374942D01*
D12*
X221650000Y-103935000D02*
X221650000Y-104335000D01*
X226550000Y-104535000D02*
X225350000Y-104535000D01*
X226550000Y-103235000D02*
X226550000Y-104535000D01*
X221650000Y-100335000D02*
X221650000Y-96935000D01*
X226350000Y-104335000D02*
X226350000Y-96935000D01*
X202950000Y-104335000D02*
X226350000Y-104335000D01*
X202950000Y-96935000D02*
X202950000Y-104335000D01*
X226350000Y-96935000D02*
X202950000Y-96935000D01*
D13*
X213360000Y-72390000D02*
X213360000Y-73660000D01*
X213360000Y-73660000D02*
X218440000Y-72390000D01*
X223520000Y-72390000D02*
X223520000Y-73660000D01*
X223520000Y-73660000D02*
X217170000Y-73660000D01*
X223520000Y-77470000D02*
X223520000Y-76200000D01*
X223520000Y-76200000D02*
X217170000Y-76200000D01*
X213360000Y-77470000D02*
X213360000Y-76200000D01*
X213360000Y-76200000D02*
X218440000Y-77470000D01*
X208280000Y-71120000D02*
X207010000Y-71120000D01*
D12*
X207770000Y-75690000D02*
X208790000Y-74680000D01*
X208280000Y-73910000D02*
X208280000Y-71120000D01*
X208280000Y-78740000D02*
X208280000Y-76450000D01*
X207010000Y-78740000D02*
X208280000Y-78740000D01*
X208280000Y-76450000D02*
X207770000Y-76450000D01*
X207770000Y-76450000D02*
X207770000Y-73910000D01*
X207770000Y-73910000D02*
X208280000Y-73910000D01*
X208280000Y-73910000D02*
X208790000Y-73910000D01*
X208790000Y-73910000D02*
X208790000Y-76450000D01*
X208790000Y-76450000D02*
X208280000Y-76450000D01*
X204060000Y-80430000D02*
X225200000Y-80430000D01*
X225200000Y-80430000D02*
X225200000Y-69430000D01*
X204060000Y-80430000D02*
X204060000Y-69430000D01*
X204060000Y-69430000D02*
X225200000Y-69430000D01*
X199450000Y-96790000D02*
X199450000Y-95540000D01*
X199450000Y-95540000D02*
X176470000Y-95540000D01*
X176470000Y-95540000D02*
X176470000Y-100040000D01*
X176470000Y-100040000D02*
X199450000Y-100040000D01*
X199450000Y-100040000D02*
X199450000Y-98790000D01*
X199450000Y-98790000D02*
G75*
G02*
X199450000Y-96790000I0J1000000D01*
G01*
X177860000Y-69790000D02*
X175200000Y-69790000D01*
X177860000Y-87630000D02*
X177860000Y-69790000D01*
X175200000Y-87630000D02*
X175200000Y-69790000D01*
X177860000Y-87630000D02*
X175200000Y-87630000D01*
X177860000Y-88900000D02*
X177860000Y-90230000D01*
X177860000Y-90230000D02*
X176530000Y-90230000D01*
X200720000Y-69790000D02*
X198060000Y-69790000D01*
X200720000Y-87630000D02*
X200720000Y-69790000D01*
X198060000Y-87630000D02*
X198060000Y-69790000D01*
X200720000Y-87630000D02*
X198060000Y-87630000D01*
X200720000Y-88900000D02*
X200720000Y-90230000D01*
X200720000Y-90230000D02*
X199390000Y-90230000D01*
X189397000Y-75784000D02*
X186777000Y-75784000D01*
X186777000Y-75784000D02*
X186777000Y-82204000D01*
X186777000Y-82204000D02*
X189397000Y-82204000D01*
X189397000Y-82204000D02*
X189397000Y-75784000D01*
X188087000Y-74894000D02*
X188087000Y-75784000D01*
X188087000Y-83094000D02*
X188087000Y-82204000D01*
X190460000Y-82204000D02*
X193080000Y-82204000D01*
X193080000Y-82204000D02*
X193080000Y-75784000D01*
X193080000Y-75784000D02*
X190460000Y-75784000D01*
X190460000Y-75784000D02*
X190460000Y-82204000D01*
X191770000Y-83094000D02*
X191770000Y-82204000D01*
X191770000Y-74894000D02*
X191770000Y-75784000D01*
X212062000Y-67332900D02*
X212062000Y-62211900D01*
X226182000Y-67332900D02*
X226182000Y-62211900D01*
X212062000Y-62211900D02*
X217757000Y-62211900D01*
X220487000Y-62211900D02*
X226182000Y-62211900D01*
X225487000Y-67332900D02*
X226182000Y-67332900D01*
X212062000Y-67332900D02*
X212757000Y-67332900D01*
X215487000Y-67332900D02*
X222757000Y-67332900D01*
X216062000Y-67332900D02*
X216062000Y-62211900D01*
X222182000Y-67332900D02*
X222182000Y-62211900D01*
X216062000Y-67332900D02*
X222182000Y-67332900D01*
X216062000Y-62211900D02*
X217757000Y-62211900D01*
X220487000Y-62211900D02*
X222182000Y-62211900D01*
X214670000Y-95965000D02*
X204430000Y-95965000D01*
X214670000Y-91324000D02*
X204430000Y-91324000D01*
X214670000Y-95965000D02*
X214670000Y-91324000D01*
X204430000Y-95965000D02*
X204430000Y-91324000D01*
X214670000Y-94455000D02*
X204430000Y-94455000D01*
X211400000Y-95965000D02*
X211400000Y-94455000D01*
X207699000Y-95965000D02*
X207699000Y-94455000D01*
X207964400Y-90168700D02*
X207964400Y-82068700D01*
X207924400Y-90168700D02*
X207924400Y-82068700D01*
X207884400Y-90168700D02*
X207884400Y-82068700D01*
X207844400Y-90167700D02*
X207844400Y-82069700D01*
X207804400Y-90165700D02*
X207804400Y-82071700D01*
X207764400Y-90164700D02*
X207764400Y-82072700D01*
X207724400Y-90161700D02*
X207724400Y-82075700D01*
X207684400Y-90159700D02*
X207684400Y-82077700D01*
X207644400Y-90156700D02*
X207644400Y-82080700D01*
X207604400Y-90153700D02*
X207604400Y-82083700D01*
X207564400Y-90149700D02*
X207564400Y-82087700D01*
X207524400Y-90145700D02*
X207524400Y-82091700D01*
X207484400Y-90140700D02*
X207484400Y-82096700D01*
X207444400Y-90135700D02*
X207444400Y-82101700D01*
X207404400Y-90130700D02*
X207404400Y-82106700D01*
X207364400Y-90124700D02*
X207364400Y-82112700D01*
X207324400Y-90118700D02*
X207324400Y-82118700D01*
X207284400Y-90112700D02*
X207284400Y-82124700D01*
X207243400Y-90105700D02*
X207243400Y-82131700D01*
X207203400Y-90097700D02*
X207203400Y-82139700D01*
X207163400Y-90089700D02*
X207163400Y-82147700D01*
X207123400Y-90081700D02*
X207123400Y-82155700D01*
X207083400Y-90073700D02*
X207083400Y-82163700D01*
X207043400Y-90064700D02*
X207043400Y-82172700D01*
X207003400Y-90054700D02*
X207003400Y-82182700D01*
X206963400Y-90044700D02*
X206963400Y-82192700D01*
X206923400Y-90034700D02*
X206923400Y-82202700D01*
X206883400Y-90023700D02*
X206883400Y-82213700D01*
X206843400Y-90012700D02*
X206843400Y-82224700D01*
X206803400Y-90001700D02*
X206803400Y-82235700D01*
X206763400Y-89988700D02*
X206763400Y-82248700D01*
X206723400Y-89976700D02*
X206723400Y-82260700D01*
X206683400Y-89963700D02*
X206683400Y-82273700D01*
X206643400Y-89950700D02*
X206643400Y-82286700D01*
X206603400Y-89936700D02*
X206603400Y-82300700D01*
X206563400Y-89921700D02*
X206563400Y-82315700D01*
X206523400Y-89907700D02*
X206523400Y-82329700D01*
X206483400Y-89891700D02*
X206483400Y-82345700D01*
X206443400Y-89876700D02*
X206443400Y-87098700D01*
X206443400Y-85138700D02*
X206443400Y-82360700D01*
X206403400Y-89859700D02*
X206403400Y-87098700D01*
X206403400Y-85138700D02*
X206403400Y-82377700D01*
X206363400Y-89843700D02*
X206363400Y-87098700D01*
X206363400Y-85138700D02*
X206363400Y-82393700D01*
X206323400Y-89825700D02*
X206323400Y-87098700D01*
X206323400Y-85138700D02*
X206323400Y-82411700D01*
X206283400Y-89808700D02*
X206283400Y-87098700D01*
X206283400Y-85138700D02*
X206283400Y-82428700D01*
X206243400Y-89789700D02*
X206243400Y-87098700D01*
X206243400Y-85138700D02*
X206243400Y-82447700D01*
X206203400Y-89770700D02*
X206203400Y-87098700D01*
X206203400Y-85138700D02*
X206203400Y-82466700D01*
X206163400Y-89751700D02*
X206163400Y-87098700D01*
X206163400Y-85138700D02*
X206163400Y-82485700D01*
X206123400Y-89731700D02*
X206123400Y-87098700D01*
X206123400Y-85138700D02*
X206123400Y-82505700D01*
X206083400Y-89711700D02*
X206083400Y-87098700D01*
X206083400Y-85138700D02*
X206083400Y-82525700D01*
X206043400Y-89690700D02*
X206043400Y-87098700D01*
X206043400Y-85138700D02*
X206043400Y-82546700D01*
X206003400Y-89668700D02*
X206003400Y-87098700D01*
X206003400Y-85138700D02*
X206003400Y-82568700D01*
X205963400Y-89646700D02*
X205963400Y-87098700D01*
X205963400Y-85138700D02*
X205963400Y-82590700D01*
X205923400Y-89623700D02*
X205923400Y-87098700D01*
X205923400Y-85138700D02*
X205923400Y-82613700D01*
X205883400Y-89600700D02*
X205883400Y-87098700D01*
X205883400Y-85138700D02*
X205883400Y-82636700D01*
X205843400Y-89576700D02*
X205843400Y-87098700D01*
X205843400Y-85138700D02*
X205843400Y-82660700D01*
X205803400Y-89552700D02*
X205803400Y-87098700D01*
X205803400Y-85138700D02*
X205803400Y-82684700D01*
X205763400Y-89526700D02*
X205763400Y-87098700D01*
X205763400Y-85138700D02*
X205763400Y-82710700D01*
X205723400Y-89501700D02*
X205723400Y-87098700D01*
X205723400Y-85138700D02*
X205723400Y-82735700D01*
X205683400Y-89474700D02*
X205683400Y-87098700D01*
X205683400Y-85138700D02*
X205683400Y-82762700D01*
X205643400Y-89447700D02*
X205643400Y-87098700D01*
X205643400Y-85138700D02*
X205643400Y-82789700D01*
X205603400Y-89419700D02*
X205603400Y-87098700D01*
X205603400Y-85138700D02*
X205603400Y-82817700D01*
X205563400Y-89390700D02*
X205563400Y-87098700D01*
X205563400Y-85138700D02*
X205563400Y-82846700D01*
X205523400Y-89361700D02*
X205523400Y-87098700D01*
X205523400Y-85138700D02*
X205523400Y-82875700D01*
X205483400Y-89331700D02*
X205483400Y-87098700D01*
X205483400Y-85138700D02*
X205483400Y-82905700D01*
X205443400Y-89300700D02*
X205443400Y-87098700D01*
X205443400Y-85138700D02*
X205443400Y-82936700D01*
X205403400Y-89268700D02*
X205403400Y-87098700D01*
X205403400Y-85138700D02*
X205403400Y-82968700D01*
X205363400Y-89236700D02*
X205363400Y-87098700D01*
X205363400Y-85138700D02*
X205363400Y-83000700D01*
X205323400Y-89202700D02*
X205323400Y-87098700D01*
X205323400Y-85138700D02*
X205323400Y-83034700D01*
X205283400Y-89168700D02*
X205283400Y-87098700D01*
X205283400Y-85138700D02*
X205283400Y-83068700D01*
X205243400Y-89133700D02*
X205243400Y-87098700D01*
X205243400Y-85138700D02*
X205243400Y-83103700D01*
X205203400Y-89097700D02*
X205203400Y-87098700D01*
X205203400Y-85138700D02*
X205203400Y-83139700D01*
X205163400Y-89060700D02*
X205163400Y-87098700D01*
X205163400Y-85138700D02*
X205163400Y-83176700D01*
X205123400Y-89022700D02*
X205123400Y-87098700D01*
X205123400Y-85138700D02*
X205123400Y-83214700D01*
X205083400Y-88983700D02*
X205083400Y-87098700D01*
X205083400Y-85138700D02*
X205083400Y-83253700D01*
X205043400Y-88942700D02*
X205043400Y-87098700D01*
X205043400Y-85138700D02*
X205043400Y-83294700D01*
X205003400Y-88901700D02*
X205003400Y-87098700D01*
X205003400Y-85138700D02*
X205003400Y-83335700D01*
X204963400Y-88858700D02*
X204963400Y-87098700D01*
X204963400Y-85138700D02*
X204963400Y-83378700D01*
X204923400Y-88815700D02*
X204923400Y-87098700D01*
X204923400Y-85138700D02*
X204923400Y-83421700D01*
X204883400Y-88770700D02*
X204883400Y-87098700D01*
X204883400Y-85138700D02*
X204883400Y-83466700D01*
X204843400Y-88723700D02*
X204843400Y-87098700D01*
X204843400Y-85138700D02*
X204843400Y-83513700D01*
X204803400Y-88675700D02*
X204803400Y-87098700D01*
X204803400Y-85138700D02*
X204803400Y-83561700D01*
X204763400Y-88626700D02*
X204763400Y-87098700D01*
X204763400Y-85138700D02*
X204763400Y-83610700D01*
X204723400Y-88575700D02*
X204723400Y-87098700D01*
X204723400Y-85138700D02*
X204723400Y-83661700D01*
X204683400Y-88522700D02*
X204683400Y-87098700D01*
X204683400Y-85138700D02*
X204683400Y-83714700D01*
X204643400Y-88467700D02*
X204643400Y-87098700D01*
X204643400Y-85138700D02*
X204643400Y-83769700D01*
X204603400Y-88411700D02*
X204603400Y-87098700D01*
X204603400Y-85138700D02*
X204603400Y-83825700D01*
X204563400Y-88352700D02*
X204563400Y-87098700D01*
X204563400Y-85138700D02*
X204563400Y-83884700D01*
X204523400Y-88291700D02*
X204523400Y-87098700D01*
X204523400Y-85138700D02*
X204523400Y-83945700D01*
X204483400Y-88227700D02*
X204483400Y-84009700D01*
X204443400Y-88161700D02*
X204443400Y-84075700D01*
X204403400Y-88092700D02*
X204403400Y-84144700D01*
X204363400Y-88020700D02*
X204363400Y-84216700D01*
X204323400Y-87944700D02*
X204323400Y-84292700D01*
X204283400Y-87863700D02*
X204283400Y-84373700D01*
X204243400Y-87778700D02*
X204243400Y-84458700D01*
X204203400Y-87688700D02*
X204203400Y-84548700D01*
X204163400Y-87591700D02*
X204163400Y-84645700D01*
X204123400Y-87487700D02*
X204123400Y-84749700D01*
X204083400Y-87372700D02*
X204083400Y-84864700D01*
X204043400Y-87245700D02*
X204043400Y-84991700D01*
X204003400Y-87101700D02*
X204003400Y-85135700D01*
X203963400Y-86932700D02*
X203963400Y-85304700D01*
X203923400Y-86716700D02*
X203923400Y-85520700D01*
X203883400Y-86364700D02*
X203883400Y-85872700D01*
X212664400Y-86118700D02*
X211464400Y-86118700D01*
X212064400Y-86768700D02*
X212064400Y-85468700D01*
X204047549Y-87296145D02*
G75*
G03*
X211880482Y-87298700I3916851J1177445D01*
G01*
X204047549Y-84941255D02*
G75*
G02*
X211880482Y-84938700I3916851J-1177445D01*
G01*
X204047549Y-84941255D02*
G75*
G03*
X204048318Y-87298700I3916851J-1177445D01*
G01*
X203150500Y-63844800D02*
X211250500Y-63844800D01*
X203150500Y-63804800D02*
X211250500Y-63804800D01*
X203150500Y-63764800D02*
X211250500Y-63764800D01*
X203151500Y-63724800D02*
X211249500Y-63724800D01*
X203153500Y-63684800D02*
X211247500Y-63684800D01*
X203154500Y-63644800D02*
X211246500Y-63644800D01*
X203157500Y-63604800D02*
X211243500Y-63604800D01*
X203159500Y-63564800D02*
X211241500Y-63564800D01*
X203162500Y-63524800D02*
X211238500Y-63524800D01*
X203165500Y-63484800D02*
X211235500Y-63484800D01*
X203169500Y-63444800D02*
X211231500Y-63444800D01*
X203173500Y-63404800D02*
X211227500Y-63404800D01*
X203178500Y-63364800D02*
X211222500Y-63364800D01*
X203183500Y-63324800D02*
X211217500Y-63324800D01*
X203188500Y-63284800D02*
X211212500Y-63284800D01*
X203194500Y-63244800D02*
X211206500Y-63244800D01*
X203200500Y-63204800D02*
X211200500Y-63204800D01*
X203206500Y-63164800D02*
X211194500Y-63164800D01*
X203213500Y-63123800D02*
X211187500Y-63123800D01*
X203221500Y-63083800D02*
X211179500Y-63083800D01*
X203229500Y-63043800D02*
X211171500Y-63043800D01*
X203237500Y-63003800D02*
X211163500Y-63003800D01*
X203245500Y-62963800D02*
X211155500Y-62963800D01*
X203254500Y-62923800D02*
X211146500Y-62923800D01*
X203264500Y-62883800D02*
X211136500Y-62883800D01*
X203274500Y-62843800D02*
X211126500Y-62843800D01*
X203284500Y-62803800D02*
X211116500Y-62803800D01*
X203295500Y-62763800D02*
X211105500Y-62763800D01*
X203306500Y-62723800D02*
X211094500Y-62723800D01*
X203317500Y-62683800D02*
X211083500Y-62683800D01*
X203330500Y-62643800D02*
X211070500Y-62643800D01*
X203342500Y-62603800D02*
X211058500Y-62603800D01*
X203355500Y-62563800D02*
X211045500Y-62563800D01*
X203368500Y-62523800D02*
X211032500Y-62523800D01*
X203382500Y-62483800D02*
X211018500Y-62483800D01*
X203397500Y-62443800D02*
X211003500Y-62443800D01*
X203411500Y-62403800D02*
X210989500Y-62403800D01*
X203427500Y-62363800D02*
X210973500Y-62363800D01*
X203442500Y-62323800D02*
X206220500Y-62323800D01*
X208180500Y-62323800D02*
X210958500Y-62323800D01*
X203459500Y-62283800D02*
X206220500Y-62283800D01*
X208180500Y-62283800D02*
X210941500Y-62283800D01*
X203475500Y-62243800D02*
X206220500Y-62243800D01*
X208180500Y-62243800D02*
X210925500Y-62243800D01*
X203493500Y-62203800D02*
X206220500Y-62203800D01*
X208180500Y-62203800D02*
X210907500Y-62203800D01*
X203510500Y-62163800D02*
X206220500Y-62163800D01*
X208180500Y-62163800D02*
X210890500Y-62163800D01*
X203529500Y-62123800D02*
X206220500Y-62123800D01*
X208180500Y-62123800D02*
X210871500Y-62123800D01*
X203548500Y-62083800D02*
X206220500Y-62083800D01*
X208180500Y-62083800D02*
X210852500Y-62083800D01*
X203567500Y-62043800D02*
X206220500Y-62043800D01*
X208180500Y-62043800D02*
X210833500Y-62043800D01*
X203587500Y-62003800D02*
X206220500Y-62003800D01*
X208180500Y-62003800D02*
X210813500Y-62003800D01*
X203607500Y-61963800D02*
X206220500Y-61963800D01*
X208180500Y-61963800D02*
X210793500Y-61963800D01*
X203628500Y-61923800D02*
X206220500Y-61923800D01*
X208180500Y-61923800D02*
X210772500Y-61923800D01*
X203650500Y-61883800D02*
X206220500Y-61883800D01*
X208180500Y-61883800D02*
X210750500Y-61883800D01*
X203672500Y-61843800D02*
X206220500Y-61843800D01*
X208180500Y-61843800D02*
X210728500Y-61843800D01*
X203695500Y-61803800D02*
X206220500Y-61803800D01*
X208180500Y-61803800D02*
X210705500Y-61803800D01*
X203718500Y-61763800D02*
X206220500Y-61763800D01*
X208180500Y-61763800D02*
X210682500Y-61763800D01*
X203742500Y-61723800D02*
X206220500Y-61723800D01*
X208180500Y-61723800D02*
X210658500Y-61723800D01*
X203766500Y-61683800D02*
X206220500Y-61683800D01*
X208180500Y-61683800D02*
X210634500Y-61683800D01*
X203792500Y-61643800D02*
X206220500Y-61643800D01*
X208180500Y-61643800D02*
X210608500Y-61643800D01*
X203817500Y-61603800D02*
X206220500Y-61603800D01*
X208180500Y-61603800D02*
X210583500Y-61603800D01*
X203844500Y-61563800D02*
X206220500Y-61563800D01*
X208180500Y-61563800D02*
X210556500Y-61563800D01*
X203871500Y-61523800D02*
X206220500Y-61523800D01*
X208180500Y-61523800D02*
X210529500Y-61523800D01*
X203899500Y-61483800D02*
X206220500Y-61483800D01*
X208180500Y-61483800D02*
X210501500Y-61483800D01*
X203928500Y-61443800D02*
X206220500Y-61443800D01*
X208180500Y-61443800D02*
X210472500Y-61443800D01*
X203957500Y-61403800D02*
X206220500Y-61403800D01*
X208180500Y-61403800D02*
X210443500Y-61403800D01*
X203987500Y-61363800D02*
X206220500Y-61363800D01*
X208180500Y-61363800D02*
X210413500Y-61363800D01*
X204018500Y-61323800D02*
X206220500Y-61323800D01*
X208180500Y-61323800D02*
X210382500Y-61323800D01*
X204050500Y-61283800D02*
X206220500Y-61283800D01*
X208180500Y-61283800D02*
X210350500Y-61283800D01*
X204082500Y-61243800D02*
X206220500Y-61243800D01*
X208180500Y-61243800D02*
X210318500Y-61243800D01*
X204116500Y-61203800D02*
X206220500Y-61203800D01*
X208180500Y-61203800D02*
X210284500Y-61203800D01*
X204150500Y-61163800D02*
X206220500Y-61163800D01*
X208180500Y-61163800D02*
X210250500Y-61163800D01*
X204185500Y-61123800D02*
X206220500Y-61123800D01*
X208180500Y-61123800D02*
X210215500Y-61123800D01*
X204221500Y-61083800D02*
X206220500Y-61083800D01*
X208180500Y-61083800D02*
X210179500Y-61083800D01*
X204258500Y-61043800D02*
X206220500Y-61043800D01*
X208180500Y-61043800D02*
X210142500Y-61043800D01*
X204296500Y-61003800D02*
X206220500Y-61003800D01*
X208180500Y-61003800D02*
X210104500Y-61003800D01*
X204335500Y-60963800D02*
X206220500Y-60963800D01*
X208180500Y-60963800D02*
X210065500Y-60963800D01*
X204376500Y-60923800D02*
X206220500Y-60923800D01*
X208180500Y-60923800D02*
X210024500Y-60923800D01*
X204417500Y-60883800D02*
X206220500Y-60883800D01*
X208180500Y-60883800D02*
X209983500Y-60883800D01*
X204460500Y-60843800D02*
X206220500Y-60843800D01*
X208180500Y-60843800D02*
X209940500Y-60843800D01*
X204503500Y-60803800D02*
X206220500Y-60803800D01*
X208180500Y-60803800D02*
X209897500Y-60803800D01*
X204548500Y-60763800D02*
X206220500Y-60763800D01*
X208180500Y-60763800D02*
X209852500Y-60763800D01*
X204595500Y-60723800D02*
X206220500Y-60723800D01*
X208180500Y-60723800D02*
X209805500Y-60723800D01*
X204643500Y-60683800D02*
X206220500Y-60683800D01*
X208180500Y-60683800D02*
X209757500Y-60683800D01*
X204692500Y-60643800D02*
X206220500Y-60643800D01*
X208180500Y-60643800D02*
X209708500Y-60643800D01*
X204743500Y-60603800D02*
X206220500Y-60603800D01*
X208180500Y-60603800D02*
X209657500Y-60603800D01*
X204796500Y-60563800D02*
X206220500Y-60563800D01*
X208180500Y-60563800D02*
X209604500Y-60563800D01*
X204851500Y-60523800D02*
X206220500Y-60523800D01*
X208180500Y-60523800D02*
X209549500Y-60523800D01*
X204907500Y-60483800D02*
X206220500Y-60483800D01*
X208180500Y-60483800D02*
X209493500Y-60483800D01*
X204966500Y-60443800D02*
X206220500Y-60443800D01*
X208180500Y-60443800D02*
X209434500Y-60443800D01*
X205027500Y-60403800D02*
X206220500Y-60403800D01*
X208180500Y-60403800D02*
X209373500Y-60403800D01*
X205091500Y-60363800D02*
X209309500Y-60363800D01*
X205157500Y-60323800D02*
X209243500Y-60323800D01*
X205226500Y-60283800D02*
X209174500Y-60283800D01*
X205298500Y-60243800D02*
X209102500Y-60243800D01*
X205374500Y-60203800D02*
X209026500Y-60203800D01*
X205455500Y-60163800D02*
X208945500Y-60163800D01*
X205540500Y-60123800D02*
X208860500Y-60123800D01*
X205630500Y-60083800D02*
X208770500Y-60083800D01*
X205727500Y-60043800D02*
X208673500Y-60043800D01*
X205831500Y-60003800D02*
X208569500Y-60003800D01*
X205946500Y-59963800D02*
X208454500Y-59963800D01*
X206073500Y-59923800D02*
X208327500Y-59923800D01*
X206217500Y-59883800D02*
X208183500Y-59883800D01*
X206386500Y-59843800D02*
X208014500Y-59843800D01*
X206602500Y-59803800D02*
X207798500Y-59803800D01*
X206954500Y-59763800D02*
X207446500Y-59763800D01*
X207200500Y-68544800D02*
X207200500Y-67344800D01*
X206550500Y-67944800D02*
X207850500Y-67944800D01*
X206023055Y-59927949D02*
G75*
G03*
X206020500Y-67760882I1177445J-3916851D01*
G01*
X208377945Y-59927949D02*
G75*
G02*
X208380500Y-67760882I-1177445J-3916851D01*
G01*
X208377945Y-59927949D02*
G75*
G03*
X206020500Y-59928718I-1177445J-3916851D01*
G01*
D13*
X219800099Y-112706079D02*
X175299299Y-112706079D01*
X178299039Y-106005559D02*
X178299039Y-107803879D01*
X178299039Y-107803879D02*
X215299219Y-107803879D01*
X215299219Y-106005559D02*
X215299219Y-107803879D01*
X219800099Y-107803879D02*
X217300739Y-107803879D01*
X217300739Y-107803879D02*
X217300739Y-106005559D01*
X197549699Y-106005559D02*
X175299299Y-106005559D01*
X175299299Y-106005559D02*
X175299299Y-114504399D01*
X175299299Y-114504399D02*
X219800099Y-114504399D01*
X219800099Y-114504399D02*
X219800099Y-106005559D01*
X219800099Y-106005559D02*
X197549699Y-106005559D01*
X224932240Y-81102200D02*
X224932240Y-90601800D01*
X218432380Y-86100920D02*
X220431360Y-86100920D01*
X220431360Y-86100920D02*
X220431360Y-87602060D01*
X220431360Y-87602060D02*
X218432380Y-87602060D01*
X220431360Y-81102200D02*
X220431360Y-84101940D01*
X220431360Y-84101940D02*
X218480640Y-84101940D01*
X218432380Y-90601800D02*
X226931220Y-90601800D01*
X226931220Y-90601800D02*
X226931220Y-81102200D01*
X226931220Y-81102200D02*
X218432380Y-81102200D01*
X218432380Y-81102200D02*
X218432380Y-90601800D01*
D12*
X216050500Y-91360000D02*
X226290500Y-91360000D01*
X216050500Y-96001000D02*
X226290500Y-96001000D01*
X216050500Y-91360000D02*
X216050500Y-96001000D01*
X226290500Y-91360000D02*
X226290500Y-96001000D01*
X216050500Y-92870000D02*
X226290500Y-92870000D01*
X219320500Y-91360000D02*
X219320500Y-92870000D01*
X223021500Y-91360000D02*
X223021500Y-92870000D01*
X196763000Y-75784000D02*
X194143000Y-75784000D01*
X194143000Y-75784000D02*
X194143000Y-82204000D01*
X194143000Y-82204000D02*
X196763000Y-82204000D01*
X196763000Y-82204000D02*
X196763000Y-75784000D01*
X195453000Y-74894000D02*
X195453000Y-75784000D01*
X195453000Y-83094000D02*
X195453000Y-82204000D01*
D13*
X213328404Y-100756980D02*
X213328404Y-99756980D01*
X213566500Y-99756980D01*
X213709357Y-99804600D01*
X213804595Y-99899838D01*
X213852214Y-99995076D01*
X213899833Y-100185552D01*
X213899833Y-100328409D01*
X213852214Y-100518885D01*
X213804595Y-100614123D01*
X213709357Y-100709361D01*
X213566500Y-100756980D01*
X213328404Y-100756980D01*
X214661738Y-100233171D02*
X214804595Y-100280790D01*
X214852214Y-100328409D01*
X214899833Y-100423647D01*
X214899833Y-100566504D01*
X214852214Y-100661742D01*
X214804595Y-100709361D01*
X214709357Y-100756980D01*
X214328404Y-100756980D01*
X214328404Y-99756980D01*
X214661738Y-99756980D01*
X214756976Y-99804600D01*
X214804595Y-99852219D01*
X214852214Y-99947457D01*
X214852214Y-100042695D01*
X214804595Y-100137933D01*
X214756976Y-100185552D01*
X214661738Y-100233171D01*
X214328404Y-100233171D01*
X215852214Y-100756980D02*
X215280785Y-100756980D01*
X215566500Y-100756980D02*
X215566500Y-99756980D01*
X215471261Y-99899838D01*
X215376023Y-99995076D01*
X215280785Y-100042695D01*
X210589904Y-75128380D02*
X210589904Y-74128380D01*
X211161333Y-75128380D02*
X210732761Y-74556952D01*
X211161333Y-74128380D02*
X210589904Y-74699809D01*
X212113714Y-75128380D02*
X211542285Y-75128380D01*
X211828000Y-75128380D02*
X211828000Y-74128380D01*
X211732761Y-74271238D01*
X211637523Y-74366476D01*
X211542285Y-74414095D01*
X206629047Y-77541428D02*
X207390952Y-77541428D01*
X207010000Y-77922380D02*
X207010000Y-77160476D01*
X188936380Y-98805904D02*
X189745904Y-98805904D01*
X189841142Y-98758285D01*
X189888761Y-98710666D01*
X189936380Y-98615428D01*
X189936380Y-98424952D01*
X189888761Y-98329714D01*
X189841142Y-98282095D01*
X189745904Y-98234476D01*
X188936380Y-98234476D01*
X189936380Y-97234476D02*
X189936380Y-97805904D01*
X189936380Y-97520190D02*
X188936380Y-97520190D01*
X189079238Y-97615428D01*
X189174476Y-97710666D01*
X189222095Y-97805904D01*
X176196666Y-90682380D02*
X176196666Y-91396666D01*
X176149047Y-91539523D01*
X176053809Y-91634761D01*
X175910952Y-91682380D01*
X175815714Y-91682380D01*
X177196666Y-91682380D02*
X176625238Y-91682380D01*
X176910952Y-91682380D02*
X176910952Y-90682380D01*
X176815714Y-90825238D01*
X176720476Y-90920476D01*
X176625238Y-90968095D01*
X199056666Y-90682380D02*
X199056666Y-91396666D01*
X199009047Y-91539523D01*
X198913809Y-91634761D01*
X198770952Y-91682380D01*
X198675714Y-91682380D01*
X199485238Y-90777619D02*
X199532857Y-90730000D01*
X199628095Y-90682380D01*
X199866190Y-90682380D01*
X199961428Y-90730000D01*
X200009047Y-90777619D01*
X200056666Y-90872857D01*
X200056666Y-90968095D01*
X200009047Y-91110952D01*
X199437619Y-91682380D01*
X200056666Y-91682380D01*
X188475880Y-78970166D02*
X187999690Y-79303500D01*
X188475880Y-79541595D02*
X187475880Y-79541595D01*
X187475880Y-79160642D01*
X187523500Y-79065404D01*
X187571119Y-79017785D01*
X187666357Y-78970166D01*
X187809214Y-78970166D01*
X187904452Y-79017785D01*
X187952071Y-79065404D01*
X187999690Y-79160642D01*
X187999690Y-79541595D01*
X188475880Y-78017785D02*
X188475880Y-78589214D01*
X188475880Y-78303500D02*
X187475880Y-78303500D01*
X187618738Y-78398738D01*
X187713976Y-78493976D01*
X187761595Y-78589214D01*
X192095380Y-79033666D02*
X191619190Y-79367000D01*
X192095380Y-79605095D02*
X191095380Y-79605095D01*
X191095380Y-79224142D01*
X191143000Y-79128904D01*
X191190619Y-79081285D01*
X191285857Y-79033666D01*
X191428714Y-79033666D01*
X191523952Y-79081285D01*
X191571571Y-79128904D01*
X191619190Y-79224142D01*
X191619190Y-79605095D01*
X191190619Y-78652714D02*
X191143000Y-78605095D01*
X191095380Y-78509857D01*
X191095380Y-78271761D01*
X191143000Y-78176523D01*
X191190619Y-78128904D01*
X191285857Y-78081285D01*
X191381095Y-78081285D01*
X191523952Y-78128904D01*
X192095380Y-78700333D01*
X192095380Y-78081285D01*
X215717380Y-64565138D02*
X215241190Y-64898471D01*
X215717380Y-65136566D02*
X214717380Y-65136566D01*
X214717380Y-64755614D01*
X214765000Y-64660376D01*
X214812619Y-64612757D01*
X214907857Y-64565138D01*
X215050714Y-64565138D01*
X215145952Y-64612757D01*
X215193571Y-64660376D01*
X215241190Y-64755614D01*
X215241190Y-65136566D01*
X214717380Y-64279423D02*
X215717380Y-63946090D01*
X214717380Y-63612757D01*
X215717380Y-62755614D02*
X215717380Y-63327042D01*
X215717380Y-63041328D02*
X214717380Y-63041328D01*
X214860238Y-63136566D01*
X214955476Y-63231804D01*
X215003095Y-63327042D01*
X208724595Y-94702380D02*
X208724595Y-95511904D01*
X208772214Y-95607142D01*
X208819833Y-95654761D01*
X208915071Y-95702380D01*
X209105547Y-95702380D01*
X209200785Y-95654761D01*
X209248404Y-95607142D01*
X209296023Y-95511904D01*
X209296023Y-94702380D01*
X209724595Y-94797619D02*
X209772214Y-94750000D01*
X209867452Y-94702380D01*
X210105547Y-94702380D01*
X210200785Y-94750000D01*
X210248404Y-94797619D01*
X210296023Y-94892857D01*
X210296023Y-94988095D01*
X210248404Y-95130952D01*
X209676976Y-95702380D01*
X210296023Y-95702380D01*
X209637333Y-86844142D02*
X209589714Y-86891761D01*
X209446857Y-86939380D01*
X209351619Y-86939380D01*
X209208761Y-86891761D01*
X209113523Y-86796523D01*
X209065904Y-86701285D01*
X209018285Y-86510809D01*
X209018285Y-86367952D01*
X209065904Y-86177476D01*
X209113523Y-86082238D01*
X209208761Y-85987000D01*
X209351619Y-85939380D01*
X209446857Y-85939380D01*
X209589714Y-85987000D01*
X209637333Y-86034619D01*
X210589714Y-86939380D02*
X210018285Y-86939380D01*
X210304000Y-86939380D02*
X210304000Y-85939380D01*
X210208761Y-86082238D01*
X210113523Y-86177476D01*
X210018285Y-86225095D01*
X205525642Y-65495466D02*
X205573261Y-65543085D01*
X205620880Y-65685942D01*
X205620880Y-65781180D01*
X205573261Y-65924038D01*
X205478023Y-66019276D01*
X205382785Y-66066895D01*
X205192309Y-66114514D01*
X205049452Y-66114514D01*
X204858976Y-66066895D01*
X204763738Y-66019276D01*
X204668500Y-65924038D01*
X204620880Y-65781180D01*
X204620880Y-65685942D01*
X204668500Y-65543085D01*
X204716119Y-65495466D01*
X204716119Y-65114514D02*
X204668500Y-65066895D01*
X204620880Y-64971657D01*
X204620880Y-64733561D01*
X204668500Y-64638323D01*
X204716119Y-64590704D01*
X204811357Y-64543085D01*
X204906595Y-64543085D01*
X205049452Y-64590704D01*
X205620880Y-65162133D01*
X205620880Y-64543085D01*
X196986566Y-113066580D02*
X196986566Y-113780866D01*
X196938947Y-113923723D01*
X196843709Y-114018961D01*
X196700852Y-114066580D01*
X196605614Y-114066580D01*
X197367519Y-113066580D02*
X197986566Y-113066580D01*
X197653233Y-113447533D01*
X197796090Y-113447533D01*
X197891328Y-113495152D01*
X197938947Y-113542771D01*
X197986566Y-113638009D01*
X197986566Y-113876104D01*
X197938947Y-113971342D01*
X197891328Y-114018961D01*
X197796090Y-114066580D01*
X197510376Y-114066580D01*
X197415138Y-114018961D01*
X197367519Y-113971342D01*
X219340180Y-86299633D02*
X220054466Y-86299633D01*
X220197323Y-86347252D01*
X220292561Y-86442490D01*
X220340180Y-86585347D01*
X220340180Y-86680585D01*
X219673514Y-85394871D02*
X220340180Y-85394871D01*
X219292561Y-85632966D02*
X220006847Y-85871061D01*
X220006847Y-85252014D01*
X221202261Y-92622619D02*
X221107023Y-92575000D01*
X221011785Y-92479761D01*
X220868928Y-92336904D01*
X220773690Y-92289285D01*
X220678452Y-92289285D01*
X220726071Y-92527380D02*
X220630833Y-92479761D01*
X220535595Y-92384523D01*
X220487976Y-92194047D01*
X220487976Y-91860714D01*
X220535595Y-91670238D01*
X220630833Y-91575000D01*
X220726071Y-91527380D01*
X220916547Y-91527380D01*
X221011785Y-91575000D01*
X221107023Y-91670238D01*
X221154642Y-91860714D01*
X221154642Y-92194047D01*
X221107023Y-92384523D01*
X221011785Y-92479761D01*
X220916547Y-92527380D01*
X220726071Y-92527380D01*
X222107023Y-92527380D02*
X221535595Y-92527380D01*
X221821309Y-92527380D02*
X221821309Y-91527380D01*
X221726071Y-91670238D01*
X221630833Y-91765476D01*
X221535595Y-91813095D01*
X196032380Y-79033666D02*
X195556190Y-79367000D01*
X196032380Y-79605095D02*
X195032380Y-79605095D01*
X195032380Y-79224142D01*
X195080000Y-79128904D01*
X195127619Y-79081285D01*
X195222857Y-79033666D01*
X195365714Y-79033666D01*
X195460952Y-79081285D01*
X195508571Y-79128904D01*
X195556190Y-79224142D01*
X195556190Y-79605095D01*
X195032380Y-78700333D02*
X195032380Y-78081285D01*
X195413333Y-78414619D01*
X195413333Y-78271761D01*
X195460952Y-78176523D01*
X195508571Y-78128904D01*
X195603809Y-78081285D01*
X195841904Y-78081285D01*
X195937142Y-78128904D01*
X195984761Y-78176523D01*
X196032380Y-78271761D01*
X196032380Y-78557476D01*
X195984761Y-78652714D01*
X195937142Y-78700333D01*
M02*
