G04 #@! TF.GenerationSoftware,KiCad,Pcbnew,(5.1.8)-1*
G04 #@! TF.CreationDate,2021-03-02T12:26:28+01:00*
G04 #@! TF.ProjectId,Lokstyrning,4c6f6b73-7479-4726-9e69-6e672e6b6963,rev?*
G04 #@! TF.SameCoordinates,Original*
G04 #@! TF.FileFunction,Copper,L1,Top*
G04 #@! TF.FilePolarity,Positive*
%FSLAX46Y46*%
G04 Gerber Fmt 4.6, Leading zero omitted, Abs format (unit mm)*
G04 Created by KiCad (PCBNEW (5.1.8)-1) date 2021-03-02 12:26:28*
%MOMM*%
%LPD*%
G01*
G04 APERTURE LIST*
G04 #@! TA.AperFunction,ComponentPad*
%ADD10C,2.800000*%
G04 #@! TD*
G04 #@! TA.AperFunction,ComponentPad*
%ADD11R,2.800000X2.800000*%
G04 #@! TD*
G04 #@! TA.AperFunction,ComponentPad*
%ADD12C,2.000000*%
G04 #@! TD*
G04 #@! TA.AperFunction,ComponentPad*
%ADD13R,1.600000X2.400000*%
G04 #@! TD*
G04 #@! TA.AperFunction,ComponentPad*
%ADD14O,1.600000X2.400000*%
G04 #@! TD*
G04 #@! TA.AperFunction,ComponentPad*
%ADD15R,1.700000X1.700000*%
G04 #@! TD*
G04 #@! TA.AperFunction,ComponentPad*
%ADD16O,1.700000X1.700000*%
G04 #@! TD*
G04 #@! TA.AperFunction,ComponentPad*
%ADD17C,1.600000*%
G04 #@! TD*
G04 #@! TA.AperFunction,ComponentPad*
%ADD18O,1.600000X1.600000*%
G04 #@! TD*
G04 #@! TA.AperFunction,ComponentPad*
%ADD19C,2.340000*%
G04 #@! TD*
G04 #@! TA.AperFunction,ComponentPad*
%ADD20R,1.800000X1.800000*%
G04 #@! TD*
G04 #@! TA.AperFunction,ComponentPad*
%ADD21O,1.800000X1.800000*%
G04 #@! TD*
G04 #@! TA.AperFunction,ComponentPad*
%ADD22R,1.600000X1.600000*%
G04 #@! TD*
G04 #@! TA.AperFunction,ComponentPad*
%ADD23O,1.998980X3.500120*%
G04 #@! TD*
G04 #@! TA.AperFunction,ComponentPad*
%ADD24O,3.500120X1.998980*%
G04 #@! TD*
G04 #@! TA.AperFunction,ViaPad*
%ADD25C,0.600000*%
G04 #@! TD*
G04 #@! TA.AperFunction,Conductor*
%ADD26C,0.250000*%
G04 #@! TD*
G04 #@! TA.AperFunction,Conductor*
%ADD27C,1.000000*%
G04 #@! TD*
G04 #@! TA.AperFunction,Conductor*
%ADD28C,0.400000*%
G04 #@! TD*
G04 #@! TA.AperFunction,Conductor*
%ADD29C,2.000000*%
G04 #@! TD*
G04 #@! TA.AperFunction,Conductor*
%ADD30C,0.254000*%
G04 #@! TD*
G04 #@! TA.AperFunction,Conductor*
%ADD31C,0.100000*%
G04 #@! TD*
G04 APERTURE END LIST*
D10*
X207010000Y-102235000D03*
X212090000Y-102235000D03*
X217170000Y-102235000D03*
D11*
X222250000Y-102235000D03*
D12*
X205740000Y-78740000D03*
X213360000Y-78740000D03*
X218440000Y-78740000D03*
X223520000Y-78740000D03*
X223520000Y-71120000D03*
X218440000Y-71120000D03*
X213360000Y-71120000D03*
X205740000Y-71120000D03*
D13*
X198120000Y-93980000D03*
D14*
X177800000Y-101600000D03*
X195580000Y-93980000D03*
X180340000Y-101600000D03*
X193040000Y-93980000D03*
X182880000Y-101600000D03*
X190500000Y-93980000D03*
X185420000Y-101600000D03*
X187960000Y-93980000D03*
X187960000Y-101600000D03*
X185420000Y-93980000D03*
X190500000Y-101600000D03*
X182880000Y-93980000D03*
X193040000Y-101600000D03*
X180340000Y-93980000D03*
X195580000Y-101600000D03*
X177800000Y-93980000D03*
X198120000Y-101600000D03*
D15*
X176530000Y-88900000D03*
D16*
X176530000Y-86360000D03*
X176530000Y-83820000D03*
X176530000Y-81280000D03*
X176530000Y-78740000D03*
X176530000Y-76200000D03*
X176530000Y-73660000D03*
X176530000Y-71120000D03*
D15*
X199390000Y-88900000D03*
D16*
X199390000Y-86360000D03*
X199390000Y-83820000D03*
X199390000Y-81280000D03*
X199390000Y-78740000D03*
X199390000Y-76200000D03*
X199390000Y-73660000D03*
X199390000Y-71120000D03*
D17*
X188087000Y-73914000D03*
D18*
X188087000Y-84074000D03*
D17*
X191770000Y-84074000D03*
D18*
X191770000Y-73914000D03*
D19*
X224122000Y-67271900D03*
X219122000Y-62271900D03*
X214122000Y-67271900D03*
D20*
X212090000Y-93345000D03*
D21*
X209550000Y-93345000D03*
X207010000Y-93345000D03*
D22*
X210464400Y-86118700D03*
D17*
X205464400Y-86118700D03*
D22*
X207200500Y-66344800D03*
D17*
X207200500Y-61344800D03*
D23*
X199299759Y-110254979D03*
X202799879Y-110254979D03*
X195799639Y-110254979D03*
X192299519Y-110254979D03*
X206299999Y-110254979D03*
X188799399Y-110254979D03*
X209800119Y-110254979D03*
X185299279Y-110254979D03*
X181799159Y-110254979D03*
X213300239Y-110254979D03*
X216800359Y-110254979D03*
X178299039Y-110254979D03*
D24*
X222681800Y-87602060D03*
X222681800Y-84101940D03*
D20*
X218630500Y-93980000D03*
D21*
X221170500Y-93980000D03*
X223710500Y-93980000D03*
D17*
X195453000Y-73914000D03*
D18*
X195453000Y-84074000D03*
D25*
X205105000Y-68580000D03*
X197573900Y-72351900D03*
X202882500Y-89547700D03*
X208280000Y-70485000D03*
X177901600Y-91313000D03*
X181013100Y-75171300D03*
X190969900Y-82130900D03*
D26*
X212755000Y-70455000D02*
X212725000Y-70485000D01*
X202730100Y-110167700D02*
X202730100Y-109867700D01*
D27*
X209550000Y-90204300D02*
X205464400Y-86118700D01*
X209550000Y-93345000D02*
X209550000Y-90204300D01*
X207010000Y-93345000D02*
X207010000Y-93980000D01*
X205740000Y-76200000D02*
X205740000Y-78740000D01*
X203200000Y-73660000D02*
X205740000Y-76200000D01*
X202641200Y-68414900D02*
X203200000Y-68973700D01*
X203200000Y-68973700D02*
X203200000Y-73660000D01*
X206110001Y-94244999D02*
X206110001Y-96022999D01*
X207010000Y-93345000D02*
X206110001Y-94244999D01*
X206110001Y-96022999D02*
X203568300Y-98564700D01*
X206299999Y-109504409D02*
X206299999Y-110254979D01*
X203568300Y-106772710D02*
X206299999Y-109504409D01*
X203568300Y-98564700D02*
X203568300Y-106772710D01*
X203330400Y-68414900D02*
X202641200Y-68414900D01*
X205400500Y-66344800D02*
X203330400Y-68414900D01*
X207200500Y-66344800D02*
X205400500Y-66344800D01*
X207010000Y-92072208D02*
X205435200Y-90497408D01*
X207010000Y-93345000D02*
X207010000Y-92072208D01*
X205435200Y-90497408D02*
X205435200Y-89090500D01*
X205435200Y-89090500D02*
X203111100Y-86766400D01*
X203111100Y-81368900D02*
X205740000Y-78740000D01*
X203111100Y-86766400D02*
X203111100Y-81368900D01*
X197942200Y-68414900D02*
X202641200Y-68414900D01*
X192862200Y-68414900D02*
X197942200Y-68414900D01*
X176530000Y-71120000D02*
X190157100Y-71120000D01*
X190157100Y-71120000D02*
X192862200Y-68414900D01*
D28*
X197273901Y-72651899D02*
X197273901Y-85196401D01*
X197573900Y-72351900D02*
X197273901Y-72651899D01*
X198226401Y-85196401D02*
X199390000Y-86360000D01*
X197273901Y-85196401D02*
X198226401Y-85196401D01*
X205994000Y-69469000D02*
X205105000Y-68580000D01*
X209207100Y-69469000D02*
X205994000Y-69469000D01*
X213953100Y-64723000D02*
X209207100Y-69469000D01*
X219122000Y-62271900D02*
X213953100Y-62271900D01*
X213953100Y-62271900D02*
X213953100Y-64723000D01*
X195580000Y-93980000D02*
X195580000Y-92710000D01*
X195580000Y-94380000D02*
X195580000Y-93980000D01*
X190500000Y-92710000D02*
X190500000Y-93980000D01*
X199390000Y-73660000D02*
X198656206Y-73660000D01*
X180340000Y-93980000D02*
X180340000Y-91440000D01*
X179070000Y-83820000D02*
X176530000Y-83820000D01*
X179070000Y-90170000D02*
X179070000Y-83820000D01*
X180340000Y-91440000D02*
X179070000Y-90170000D01*
X176530000Y-81280000D02*
X179705000Y-81280000D01*
X182880000Y-92710000D02*
X182880000Y-93980000D01*
X179705000Y-89535000D02*
X182880000Y-92710000D01*
X179705000Y-81280000D02*
X179705000Y-89535000D01*
X185420000Y-93980000D02*
X185420000Y-92075000D01*
X179705000Y-78740000D02*
X176530000Y-78740000D01*
X180975000Y-80010000D02*
X179705000Y-78740000D01*
X180975000Y-89535000D02*
X180975000Y-80010000D01*
X182880000Y-91440000D02*
X180975000Y-89535000D01*
X184785000Y-91440000D02*
X182880000Y-91440000D01*
X185420000Y-92075000D02*
X184785000Y-91440000D01*
X187960000Y-93980000D02*
X187960000Y-92075000D01*
X179070000Y-76200000D02*
X176530000Y-76200000D01*
X181610000Y-78740000D02*
X179070000Y-76200000D01*
X181610000Y-88900000D02*
X181610000Y-78740000D01*
X182880000Y-90170000D02*
X181610000Y-88900000D01*
X186055000Y-90170000D02*
X182880000Y-90170000D01*
X187960000Y-92075000D02*
X186055000Y-90170000D01*
D27*
X195580000Y-102000000D02*
X198278800Y-104698800D01*
X195580000Y-101600000D02*
X195580000Y-102000000D01*
X198278800Y-104698800D02*
X200355200Y-104698800D01*
X200355200Y-96870870D02*
X202946000Y-94280070D01*
X202946000Y-94280070D02*
X202946000Y-92710000D01*
X200355200Y-104698800D02*
X200355200Y-96870870D01*
X202882500Y-92646500D02*
X202882500Y-89547700D01*
X202946000Y-92710000D02*
X202882500Y-92646500D01*
X218440000Y-93980000D02*
X218440000Y-93345000D01*
X214045800Y-93103700D02*
X214922100Y-93980000D01*
X214045800Y-91485800D02*
X214045800Y-93103700D01*
X213653030Y-91093030D02*
X214045800Y-91485800D01*
X213653030Y-90983730D02*
X213653030Y-91093030D01*
X212026500Y-90983730D02*
X213653030Y-90983730D01*
X206964401Y-85921631D02*
X212026500Y-90983730D01*
X208280000Y-79336900D02*
X205435200Y-82181700D01*
X208280000Y-70485000D02*
X208280000Y-79336900D01*
X205435200Y-82181700D02*
X205435200Y-83959700D01*
X205525402Y-83959700D02*
X206964401Y-85398699D01*
X205435200Y-83959700D02*
X205525402Y-83959700D01*
X206964401Y-85398699D02*
X206964401Y-85921631D01*
X214922100Y-93980000D02*
X218630500Y-93980000D01*
X191770000Y-88265000D02*
X191770000Y-88900000D01*
X191770000Y-88900000D02*
X193675000Y-90805000D01*
X193675000Y-90805000D02*
X196850000Y-90805000D01*
X196850000Y-90805000D02*
X197485000Y-91440000D01*
X197485000Y-91440000D02*
X199390000Y-91440000D01*
X199390000Y-91440000D02*
X200660000Y-92710000D01*
X189318900Y-85813900D02*
X191770000Y-88265000D01*
X200660000Y-92710000D02*
X200660000Y-94869000D01*
X198120000Y-97409000D02*
X198120000Y-101600000D01*
X200660000Y-94869000D02*
X198120000Y-97409000D01*
X189318900Y-85305900D02*
X188087000Y-84074000D01*
X189318900Y-85813900D02*
X189318900Y-85305900D01*
X223520000Y-100965000D02*
X222250000Y-102235000D01*
X218799849Y-110254979D02*
X216800359Y-110254979D01*
X222250000Y-106804828D02*
X218799849Y-110254979D01*
X222250000Y-102235000D02*
X222250000Y-106804828D01*
X199299759Y-109504409D02*
X199299759Y-110254979D01*
X195799639Y-109504409D02*
X195799639Y-110254979D01*
D29*
X190500000Y-104955340D02*
X190500000Y-101600000D01*
X194386200Y-106781600D02*
X192559940Y-104955340D01*
X192559940Y-104955340D02*
X190500000Y-104955340D01*
D27*
X195076320Y-106781600D02*
X194386200Y-106781600D01*
D29*
X195799639Y-107504919D02*
X195076320Y-106781600D01*
X195799639Y-110254979D02*
X195799639Y-107504919D01*
D27*
X192299519Y-109504409D02*
X192299519Y-110254979D01*
X188799399Y-109504409D02*
X188799399Y-110254979D01*
D29*
X185420000Y-101600000D02*
X185420000Y-103800000D01*
D27*
X185445400Y-103825400D02*
X186045200Y-103825400D01*
D29*
X188799399Y-106579599D02*
X188799399Y-110254979D01*
X186045200Y-103825400D02*
X188799399Y-106579599D01*
X181799159Y-105903959D02*
X181799159Y-110254979D01*
X180340000Y-101600000D02*
X180340000Y-104444800D01*
X180340000Y-104444800D02*
X181799159Y-105903959D01*
D27*
X213360000Y-78740000D02*
X213360000Y-75565000D01*
X210820000Y-73025000D02*
X210820000Y-69215000D01*
X213360000Y-75565000D02*
X210820000Y-73025000D01*
X220980000Y-93980000D02*
X220980000Y-93345000D01*
X215265000Y-87630000D02*
X215265000Y-80645000D01*
X215265000Y-80645000D02*
X213360000Y-78740000D01*
X211593101Y-68441899D02*
X210820000Y-69215000D01*
X212952001Y-68441899D02*
X211593101Y-68441899D01*
X214122000Y-67271900D02*
X212952001Y-68441899D01*
X221170500Y-93980000D02*
X221170500Y-93218000D01*
X221170500Y-93218000D02*
X219646500Y-91694000D01*
X219646500Y-91694000D02*
X219646500Y-90360500D01*
X216916000Y-87630000D02*
X215265000Y-87630000D01*
X219646500Y-90360500D02*
X216916000Y-87630000D01*
D28*
X175844200Y-99021900D02*
X175844200Y-92100400D01*
X175844200Y-92100400D02*
X176415700Y-91528900D01*
X176415700Y-91528900D02*
X177850800Y-91528900D01*
D26*
X177850800Y-91528900D02*
X177901600Y-91478100D01*
X177901600Y-91478100D02*
X177901600Y-91313000D01*
D28*
X182321200Y-75222100D02*
X181063900Y-75222100D01*
X186232800Y-79133700D02*
X182321200Y-75222100D01*
X175844200Y-99021900D02*
X175844200Y-103581200D01*
X175844200Y-103581200D02*
X178299039Y-106036039D01*
X178299039Y-106036039D02*
X178299039Y-110254979D01*
X186232800Y-79133700D02*
X187972700Y-79133700D01*
X187972700Y-79133700D02*
X190969900Y-82130900D01*
D27*
X209800119Y-104524881D02*
X209800119Y-110254979D01*
X212090000Y-102235000D02*
X209800119Y-104524881D01*
D26*
X212890100Y-109867700D02*
X213765091Y-109867700D01*
D27*
X218440000Y-71120000D02*
X218440000Y-73660000D01*
X218440000Y-73660000D02*
X223520000Y-78740000D01*
X224519999Y-79739999D02*
X224519999Y-80705199D01*
X223520000Y-78740000D02*
X224519999Y-79739999D01*
X224519999Y-80705199D02*
X225920300Y-82105500D01*
D26*
X223432370Y-87602060D02*
X222681800Y-87602060D01*
D27*
X225920300Y-85114130D02*
X223432370Y-87602060D01*
X225920300Y-82105500D02*
X225920300Y-85114130D01*
D26*
X195453000Y-73547798D02*
X195453000Y-73914000D01*
X197880798Y-71120000D02*
X195453000Y-73547798D01*
X199390000Y-71120000D02*
X197880798Y-71120000D01*
D30*
X205397126Y-62664357D02*
X205400064Y-62689079D01*
X205407769Y-62712753D01*
X205419945Y-62734469D01*
X205436123Y-62753392D01*
X205455683Y-62768796D01*
X205477871Y-62780087D01*
X205501836Y-62786833D01*
X205524100Y-62788800D01*
X210926285Y-62788800D01*
X210983051Y-64298778D01*
X208596850Y-66591900D01*
X208476750Y-66471800D01*
X207327500Y-66471800D01*
X207327500Y-66491800D01*
X207073500Y-66491800D01*
X207073500Y-66471800D01*
X205924250Y-66471800D01*
X205765500Y-66630550D01*
X205762428Y-67144800D01*
X205774688Y-67269282D01*
X205810998Y-67388980D01*
X205869963Y-67499294D01*
X205949315Y-67595985D01*
X206046006Y-67675337D01*
X206156320Y-67734302D01*
X206276018Y-67770612D01*
X206384806Y-67781326D01*
X205697176Y-67851164D01*
X205547889Y-67751414D01*
X205377729Y-67680932D01*
X205197089Y-67645000D01*
X205012911Y-67645000D01*
X204832271Y-67680932D01*
X204662111Y-67751414D01*
X204508972Y-67853738D01*
X204378738Y-67983972D01*
X204377952Y-67985148D01*
X204266668Y-67996450D01*
X204242264Y-68001381D01*
X204219292Y-68010979D01*
X204198634Y-68024873D01*
X204181083Y-68042531D01*
X204167314Y-68063273D01*
X204157857Y-68086304D01*
X204152512Y-68121079D01*
X204114720Y-70910099D01*
X204105000Y-70958967D01*
X204105000Y-71281033D01*
X204109395Y-71303127D01*
X204089012Y-72807379D01*
X204091116Y-72832187D01*
X204098020Y-72856107D01*
X204104711Y-72870287D01*
X205827952Y-76004587D01*
X205357520Y-77142317D01*
X205053912Y-77247205D01*
X204879956Y-77340186D01*
X204784192Y-77604587D01*
X205054579Y-77874974D01*
X204949500Y-78129105D01*
X204604587Y-77784192D01*
X204340186Y-77879956D01*
X204199296Y-78169571D01*
X204117616Y-78481108D01*
X204098282Y-78802595D01*
X204142039Y-79121675D01*
X204247205Y-79426088D01*
X204340186Y-79600044D01*
X204341147Y-79600392D01*
X203514437Y-81599772D01*
X203507225Y-81623601D01*
X203504838Y-81651397D01*
X203631838Y-86858397D01*
X203634881Y-86883106D01*
X203642687Y-86906747D01*
X203654955Y-86928411D01*
X203671783Y-86947804D01*
X208128284Y-91139937D01*
X208142904Y-92309557D01*
X208141649Y-92307884D01*
X207917573Y-92107038D01*
X207658620Y-91953766D01*
X207374741Y-91853959D01*
X207137000Y-91974008D01*
X207137000Y-93218000D01*
X207157000Y-93218000D01*
X207157000Y-93472000D01*
X207137000Y-93472000D01*
X207137000Y-94715992D01*
X207374741Y-94836041D01*
X207658620Y-94736234D01*
X207917573Y-94582962D01*
X208141649Y-94382116D01*
X208168367Y-94346505D01*
X208189503Y-96037400D01*
X204090152Y-96037400D01*
X204111159Y-93709740D01*
X205518964Y-93709740D01*
X205567606Y-93870107D01*
X205697764Y-94141414D01*
X205878351Y-94382116D01*
X206102427Y-94582962D01*
X206361380Y-94736234D01*
X206645259Y-94836041D01*
X206883000Y-94715992D01*
X206883000Y-93472000D01*
X205639622Y-93472000D01*
X205518964Y-93709740D01*
X204111159Y-93709740D01*
X204117742Y-92980260D01*
X205518964Y-92980260D01*
X205639622Y-93218000D01*
X206883000Y-93218000D01*
X206883000Y-91974008D01*
X206645259Y-91853959D01*
X206361380Y-91953766D01*
X206102427Y-92107038D01*
X205878351Y-92307884D01*
X205697764Y-92548586D01*
X205567606Y-92819893D01*
X205518964Y-92980260D01*
X204117742Y-92980260D01*
X204152495Y-89129746D01*
X204150278Y-89104949D01*
X204143267Y-89081060D01*
X204131729Y-89058998D01*
X204116109Y-89039612D01*
X204104540Y-89029194D01*
X201549676Y-86997765D01*
X201739492Y-69749798D01*
X201737325Y-69724996D01*
X201730360Y-69701093D01*
X201718867Y-69679009D01*
X201703285Y-69659591D01*
X201684215Y-69643586D01*
X201662389Y-69631609D01*
X201638646Y-69624120D01*
X201612500Y-69621400D01*
X197319900Y-69621400D01*
X197295124Y-69623840D01*
X197271299Y-69631067D01*
X197249343Y-69642803D01*
X197230097Y-69658597D01*
X197216653Y-69674447D01*
X195298097Y-72352950D01*
X187500749Y-72478917D01*
X187476015Y-72481757D01*
X187452310Y-72489368D01*
X187430546Y-72501457D01*
X187411559Y-72517560D01*
X187396077Y-72537057D01*
X187386808Y-72554181D01*
X187322146Y-72699200D01*
X187172241Y-72799363D01*
X186972363Y-72999241D01*
X186815320Y-73234273D01*
X186707147Y-73495426D01*
X186652000Y-73772665D01*
X186652000Y-74055335D01*
X186672195Y-74156859D01*
X186113157Y-75410623D01*
X183631503Y-75351535D01*
X183554684Y-75274717D01*
X182925298Y-74229487D01*
X182910427Y-74209520D01*
X182891946Y-74192839D01*
X182870565Y-74180083D01*
X182847107Y-74171743D01*
X182823624Y-74168200D01*
X179472981Y-73979962D01*
X178272661Y-73027130D01*
X178251738Y-73013637D01*
X178228585Y-73004485D01*
X178207527Y-73000355D01*
X177847799Y-72960956D01*
X177845990Y-72956589D01*
X177683475Y-72713368D01*
X177476632Y-72506525D01*
X177294466Y-72384805D01*
X177411355Y-72315178D01*
X177627588Y-72120269D01*
X177801641Y-71886920D01*
X177926825Y-71624099D01*
X177971476Y-71476890D01*
X177850155Y-71247000D01*
X176657000Y-71247000D01*
X176657000Y-71267000D01*
X176403000Y-71267000D01*
X176403000Y-71247000D01*
X175209845Y-71247000D01*
X175088524Y-71476890D01*
X175133175Y-71624099D01*
X175258359Y-71886920D01*
X175432412Y-72120269D01*
X175648645Y-72315178D01*
X175765534Y-72384805D01*
X175583368Y-72506525D01*
X175397322Y-72692571D01*
X173176000Y-72449283D01*
X173176000Y-70763110D01*
X175088524Y-70763110D01*
X175209845Y-70993000D01*
X176403000Y-70993000D01*
X176403000Y-69799186D01*
X176657000Y-69799186D01*
X176657000Y-70993000D01*
X177850155Y-70993000D01*
X177971476Y-70763110D01*
X177926825Y-70615901D01*
X177801641Y-70353080D01*
X177627588Y-70119731D01*
X177411355Y-69924822D01*
X177161252Y-69775843D01*
X176886891Y-69678519D01*
X176657000Y-69799186D01*
X176403000Y-69799186D01*
X176173109Y-69678519D01*
X175898748Y-69775843D01*
X175648645Y-69924822D01*
X175432412Y-70119731D01*
X175258359Y-70353080D01*
X175133175Y-70615901D01*
X175088524Y-70763110D01*
X173176000Y-70763110D01*
X173176000Y-65544800D01*
X205762428Y-65544800D01*
X205765500Y-66059050D01*
X205924250Y-66217800D01*
X207073500Y-66217800D01*
X207073500Y-65068550D01*
X207327500Y-65068550D01*
X207327500Y-66217800D01*
X208476750Y-66217800D01*
X208635500Y-66059050D01*
X208638572Y-65544800D01*
X208626312Y-65420318D01*
X208590002Y-65300620D01*
X208531037Y-65190306D01*
X208451685Y-65093615D01*
X208354994Y-65014263D01*
X208244680Y-64955298D01*
X208124982Y-64918988D01*
X208000500Y-64906728D01*
X207486250Y-64909800D01*
X207327500Y-65068550D01*
X207073500Y-65068550D01*
X206914750Y-64909800D01*
X206400500Y-64906728D01*
X206276018Y-64918988D01*
X206156320Y-64955298D01*
X206046006Y-65014263D01*
X205949315Y-65093615D01*
X205869963Y-65190306D01*
X205810998Y-65300620D01*
X205774688Y-65420318D01*
X205762428Y-65544800D01*
X173176000Y-65544800D01*
X173176000Y-59205823D01*
X205323447Y-59004980D01*
X205397126Y-62664357D01*
G04 #@! TA.AperFunction,Conductor*
D31*
G36*
X205397126Y-62664357D02*
G01*
X205400064Y-62689079D01*
X205407769Y-62712753D01*
X205419945Y-62734469D01*
X205436123Y-62753392D01*
X205455683Y-62768796D01*
X205477871Y-62780087D01*
X205501836Y-62786833D01*
X205524100Y-62788800D01*
X210926285Y-62788800D01*
X210983051Y-64298778D01*
X208596850Y-66591900D01*
X208476750Y-66471800D01*
X207327500Y-66471800D01*
X207327500Y-66491800D01*
X207073500Y-66491800D01*
X207073500Y-66471800D01*
X205924250Y-66471800D01*
X205765500Y-66630550D01*
X205762428Y-67144800D01*
X205774688Y-67269282D01*
X205810998Y-67388980D01*
X205869963Y-67499294D01*
X205949315Y-67595985D01*
X206046006Y-67675337D01*
X206156320Y-67734302D01*
X206276018Y-67770612D01*
X206384806Y-67781326D01*
X205697176Y-67851164D01*
X205547889Y-67751414D01*
X205377729Y-67680932D01*
X205197089Y-67645000D01*
X205012911Y-67645000D01*
X204832271Y-67680932D01*
X204662111Y-67751414D01*
X204508972Y-67853738D01*
X204378738Y-67983972D01*
X204377952Y-67985148D01*
X204266668Y-67996450D01*
X204242264Y-68001381D01*
X204219292Y-68010979D01*
X204198634Y-68024873D01*
X204181083Y-68042531D01*
X204167314Y-68063273D01*
X204157857Y-68086304D01*
X204152512Y-68121079D01*
X204114720Y-70910099D01*
X204105000Y-70958967D01*
X204105000Y-71281033D01*
X204109395Y-71303127D01*
X204089012Y-72807379D01*
X204091116Y-72832187D01*
X204098020Y-72856107D01*
X204104711Y-72870287D01*
X205827952Y-76004587D01*
X205357520Y-77142317D01*
X205053912Y-77247205D01*
X204879956Y-77340186D01*
X204784192Y-77604587D01*
X205054579Y-77874974D01*
X204949500Y-78129105D01*
X204604587Y-77784192D01*
X204340186Y-77879956D01*
X204199296Y-78169571D01*
X204117616Y-78481108D01*
X204098282Y-78802595D01*
X204142039Y-79121675D01*
X204247205Y-79426088D01*
X204340186Y-79600044D01*
X204341147Y-79600392D01*
X203514437Y-81599772D01*
X203507225Y-81623601D01*
X203504838Y-81651397D01*
X203631838Y-86858397D01*
X203634881Y-86883106D01*
X203642687Y-86906747D01*
X203654955Y-86928411D01*
X203671783Y-86947804D01*
X208128284Y-91139937D01*
X208142904Y-92309557D01*
X208141649Y-92307884D01*
X207917573Y-92107038D01*
X207658620Y-91953766D01*
X207374741Y-91853959D01*
X207137000Y-91974008D01*
X207137000Y-93218000D01*
X207157000Y-93218000D01*
X207157000Y-93472000D01*
X207137000Y-93472000D01*
X207137000Y-94715992D01*
X207374741Y-94836041D01*
X207658620Y-94736234D01*
X207917573Y-94582962D01*
X208141649Y-94382116D01*
X208168367Y-94346505D01*
X208189503Y-96037400D01*
X204090152Y-96037400D01*
X204111159Y-93709740D01*
X205518964Y-93709740D01*
X205567606Y-93870107D01*
X205697764Y-94141414D01*
X205878351Y-94382116D01*
X206102427Y-94582962D01*
X206361380Y-94736234D01*
X206645259Y-94836041D01*
X206883000Y-94715992D01*
X206883000Y-93472000D01*
X205639622Y-93472000D01*
X205518964Y-93709740D01*
X204111159Y-93709740D01*
X204117742Y-92980260D01*
X205518964Y-92980260D01*
X205639622Y-93218000D01*
X206883000Y-93218000D01*
X206883000Y-91974008D01*
X206645259Y-91853959D01*
X206361380Y-91953766D01*
X206102427Y-92107038D01*
X205878351Y-92307884D01*
X205697764Y-92548586D01*
X205567606Y-92819893D01*
X205518964Y-92980260D01*
X204117742Y-92980260D01*
X204152495Y-89129746D01*
X204150278Y-89104949D01*
X204143267Y-89081060D01*
X204131729Y-89058998D01*
X204116109Y-89039612D01*
X204104540Y-89029194D01*
X201549676Y-86997765D01*
X201739492Y-69749798D01*
X201737325Y-69724996D01*
X201730360Y-69701093D01*
X201718867Y-69679009D01*
X201703285Y-69659591D01*
X201684215Y-69643586D01*
X201662389Y-69631609D01*
X201638646Y-69624120D01*
X201612500Y-69621400D01*
X197319900Y-69621400D01*
X197295124Y-69623840D01*
X197271299Y-69631067D01*
X197249343Y-69642803D01*
X197230097Y-69658597D01*
X197216653Y-69674447D01*
X195298097Y-72352950D01*
X187500749Y-72478917D01*
X187476015Y-72481757D01*
X187452310Y-72489368D01*
X187430546Y-72501457D01*
X187411559Y-72517560D01*
X187396077Y-72537057D01*
X187386808Y-72554181D01*
X187322146Y-72699200D01*
X187172241Y-72799363D01*
X186972363Y-72999241D01*
X186815320Y-73234273D01*
X186707147Y-73495426D01*
X186652000Y-73772665D01*
X186652000Y-74055335D01*
X186672195Y-74156859D01*
X186113157Y-75410623D01*
X183631503Y-75351535D01*
X183554684Y-75274717D01*
X182925298Y-74229487D01*
X182910427Y-74209520D01*
X182891946Y-74192839D01*
X182870565Y-74180083D01*
X182847107Y-74171743D01*
X182823624Y-74168200D01*
X179472981Y-73979962D01*
X178272661Y-73027130D01*
X178251738Y-73013637D01*
X178228585Y-73004485D01*
X178207527Y-73000355D01*
X177847799Y-72960956D01*
X177845990Y-72956589D01*
X177683475Y-72713368D01*
X177476632Y-72506525D01*
X177294466Y-72384805D01*
X177411355Y-72315178D01*
X177627588Y-72120269D01*
X177801641Y-71886920D01*
X177926825Y-71624099D01*
X177971476Y-71476890D01*
X177850155Y-71247000D01*
X176657000Y-71247000D01*
X176657000Y-71267000D01*
X176403000Y-71267000D01*
X176403000Y-71247000D01*
X175209845Y-71247000D01*
X175088524Y-71476890D01*
X175133175Y-71624099D01*
X175258359Y-71886920D01*
X175432412Y-72120269D01*
X175648645Y-72315178D01*
X175765534Y-72384805D01*
X175583368Y-72506525D01*
X175397322Y-72692571D01*
X173176000Y-72449283D01*
X173176000Y-70763110D01*
X175088524Y-70763110D01*
X175209845Y-70993000D01*
X176403000Y-70993000D01*
X176403000Y-69799186D01*
X176657000Y-69799186D01*
X176657000Y-70993000D01*
X177850155Y-70993000D01*
X177971476Y-70763110D01*
X177926825Y-70615901D01*
X177801641Y-70353080D01*
X177627588Y-70119731D01*
X177411355Y-69924822D01*
X177161252Y-69775843D01*
X176886891Y-69678519D01*
X176657000Y-69799186D01*
X176403000Y-69799186D01*
X176173109Y-69678519D01*
X175898748Y-69775843D01*
X175648645Y-69924822D01*
X175432412Y-70119731D01*
X175258359Y-70353080D01*
X175133175Y-70615901D01*
X175088524Y-70763110D01*
X173176000Y-70763110D01*
X173176000Y-65544800D01*
X205762428Y-65544800D01*
X205765500Y-66059050D01*
X205924250Y-66217800D01*
X207073500Y-66217800D01*
X207073500Y-65068550D01*
X207327500Y-65068550D01*
X207327500Y-66217800D01*
X208476750Y-66217800D01*
X208635500Y-66059050D01*
X208638572Y-65544800D01*
X208626312Y-65420318D01*
X208590002Y-65300620D01*
X208531037Y-65190306D01*
X208451685Y-65093615D01*
X208354994Y-65014263D01*
X208244680Y-64955298D01*
X208124982Y-64918988D01*
X208000500Y-64906728D01*
X207486250Y-64909800D01*
X207327500Y-65068550D01*
X207073500Y-65068550D01*
X206914750Y-64909800D01*
X206400500Y-64906728D01*
X206276018Y-64918988D01*
X206156320Y-64955298D01*
X206046006Y-65014263D01*
X205949315Y-65093615D01*
X205869963Y-65190306D01*
X205810998Y-65300620D01*
X205774688Y-65420318D01*
X205762428Y-65544800D01*
X173176000Y-65544800D01*
X173176000Y-59205823D01*
X205323447Y-59004980D01*
X205397126Y-62664357D01*
G37*
G04 #@! TD.AperFunction*
D30*
X207073498Y-67711381D02*
X206972958Y-67721592D01*
X207073498Y-67621052D01*
X207073498Y-67711381D01*
G04 #@! TA.AperFunction,Conductor*
D31*
G36*
X207073498Y-67711381D02*
G01*
X206972958Y-67721592D01*
X207073498Y-67621052D01*
X207073498Y-67711381D01*
G37*
G04 #@! TD.AperFunction*
D30*
X207386084Y-67679634D02*
X207327502Y-67685584D01*
X207327502Y-67621052D01*
X207386084Y-67679634D01*
G04 #@! TA.AperFunction,Conductor*
D31*
G36*
X207386084Y-67679634D02*
G01*
X207327502Y-67685584D01*
X207327502Y-67621052D01*
X207386084Y-67679634D01*
G37*
G04 #@! TD.AperFunction*
D30*
X226390425Y-90549622D02*
X226440750Y-118543000D01*
X213360184Y-118543000D01*
X213362856Y-115603069D01*
X221276854Y-115603069D01*
X221276854Y-116044931D01*
X221363056Y-116478302D01*
X221532149Y-116886528D01*
X221777634Y-117253922D01*
X222090078Y-117566366D01*
X222457472Y-117811851D01*
X222865698Y-117980944D01*
X223299069Y-118067146D01*
X223740931Y-118067146D01*
X224174302Y-117980944D01*
X224582528Y-117811851D01*
X224949922Y-117566366D01*
X225262366Y-117253922D01*
X225507851Y-116886528D01*
X225676944Y-116478302D01*
X225763146Y-116044931D01*
X225763146Y-115603069D01*
X225676944Y-115169698D01*
X225507851Y-114761472D01*
X225262366Y-114394078D01*
X224949922Y-114081634D01*
X224582528Y-113836149D01*
X224174302Y-113667056D01*
X223740931Y-113580854D01*
X223299069Y-113580854D01*
X222865698Y-113667056D01*
X222457472Y-113836149D01*
X222090078Y-114081634D01*
X221777634Y-114394078D01*
X221532149Y-114761472D01*
X221363056Y-115169698D01*
X221276854Y-115603069D01*
X213362856Y-115603069D01*
X213365549Y-112641515D01*
X213620654Y-112616389D01*
X213928757Y-112522927D01*
X214212705Y-112371153D01*
X214461590Y-112166900D01*
X214665843Y-111918016D01*
X214817617Y-111634068D01*
X214911079Y-111325965D01*
X214934729Y-111085841D01*
X214934729Y-110381979D01*
X215165869Y-110381979D01*
X215165869Y-111132549D01*
X215222052Y-111448982D01*
X215338888Y-111748374D01*
X215511888Y-112019220D01*
X215734403Y-112251111D01*
X215997882Y-112435136D01*
X216292200Y-112564222D01*
X216420005Y-112595168D01*
X216673359Y-112475814D01*
X216673359Y-110381979D01*
X216927359Y-110381979D01*
X216927359Y-112475814D01*
X217180713Y-112595168D01*
X217308518Y-112564222D01*
X217602836Y-112435136D01*
X217866315Y-112251111D01*
X218088830Y-112019220D01*
X218261830Y-111748374D01*
X218378666Y-111448982D01*
X218434849Y-111132549D01*
X218434849Y-110381979D01*
X216927359Y-110381979D01*
X216673359Y-110381979D01*
X215165869Y-110381979D01*
X214934729Y-110381979D01*
X214934729Y-109424117D01*
X214930129Y-109377409D01*
X215165869Y-109377409D01*
X215165869Y-110127979D01*
X216673359Y-110127979D01*
X216673359Y-108034144D01*
X216927359Y-108034144D01*
X216927359Y-110127979D01*
X218434849Y-110127979D01*
X218434849Y-109377409D01*
X218378666Y-109060976D01*
X218261830Y-108761584D01*
X218088830Y-108490738D01*
X217866315Y-108258847D01*
X217602836Y-108074822D01*
X217308518Y-107945736D01*
X217180713Y-107914790D01*
X216927359Y-108034144D01*
X216673359Y-108034144D01*
X216420005Y-107914790D01*
X216292200Y-107945736D01*
X215997882Y-108074822D01*
X215734403Y-108258847D01*
X215511888Y-108490738D01*
X215338888Y-108761584D01*
X215222052Y-109060976D01*
X215165869Y-109377409D01*
X214930129Y-109377409D01*
X214911079Y-109183993D01*
X214817617Y-108875890D01*
X214665843Y-108591942D01*
X214461590Y-108343058D01*
X214212706Y-108138805D01*
X213928758Y-107987031D01*
X213620655Y-107893569D01*
X213369888Y-107868871D01*
X213372603Y-104882244D01*
X216972962Y-104270000D01*
X217370430Y-104270000D01*
X217763587Y-104191796D01*
X217993935Y-104096383D01*
X218270791Y-104049303D01*
X218294808Y-104042743D01*
X218317083Y-104031625D01*
X218336762Y-104016374D01*
X218353087Y-103997577D01*
X218365431Y-103975956D01*
X218373320Y-103952343D01*
X218376473Y-103926736D01*
X218377534Y-103875625D01*
X218467237Y-103815687D01*
X218647924Y-103635000D01*
X220211928Y-103635000D01*
X220224188Y-103759482D01*
X220260498Y-103879180D01*
X220319463Y-103989494D01*
X220398815Y-104086185D01*
X220495506Y-104165537D01*
X220605820Y-104224502D01*
X220725518Y-104260812D01*
X220850000Y-104273072D01*
X221964250Y-104270000D01*
X222123000Y-104111250D01*
X222123000Y-102362000D01*
X222377000Y-102362000D01*
X222377000Y-104111250D01*
X222535750Y-104270000D01*
X223650000Y-104273072D01*
X223774482Y-104260812D01*
X223894180Y-104224502D01*
X224004494Y-104165537D01*
X224101185Y-104086185D01*
X224180537Y-103989494D01*
X224239502Y-103879180D01*
X224275812Y-103759482D01*
X224288072Y-103635000D01*
X224285000Y-102520750D01*
X224126250Y-102362000D01*
X222377000Y-102362000D01*
X222123000Y-102362000D01*
X220373750Y-102362000D01*
X220215000Y-102520750D01*
X220211928Y-103635000D01*
X218647924Y-103635000D01*
X218750687Y-103532237D01*
X218973393Y-103198934D01*
X219126796Y-102828587D01*
X219205000Y-102435430D01*
X219205000Y-102034570D01*
X219126796Y-101641413D01*
X218973393Y-101271066D01*
X218750687Y-100937763D01*
X218647924Y-100835000D01*
X220211928Y-100835000D01*
X220215000Y-101949250D01*
X220373750Y-102108000D01*
X222123000Y-102108000D01*
X222123000Y-100358750D01*
X222377000Y-100358750D01*
X222377000Y-102108000D01*
X224126250Y-102108000D01*
X224285000Y-101949250D01*
X224288072Y-100835000D01*
X224275812Y-100710518D01*
X224239502Y-100590820D01*
X224180537Y-100480506D01*
X224101185Y-100383815D01*
X224004494Y-100304463D01*
X223894180Y-100245498D01*
X223774482Y-100209188D01*
X223650000Y-100196928D01*
X222535750Y-100200000D01*
X222377000Y-100358750D01*
X222123000Y-100358750D01*
X221964250Y-100200000D01*
X220850000Y-100196928D01*
X220725518Y-100209188D01*
X220605820Y-100245498D01*
X220495506Y-100304463D01*
X220398815Y-100383815D01*
X220319463Y-100480506D01*
X220260498Y-100590820D01*
X220224188Y-100710518D01*
X220211928Y-100835000D01*
X218647924Y-100835000D01*
X218467237Y-100654313D01*
X218444725Y-100639271D01*
X218452673Y-100256436D01*
X218450747Y-100231614D01*
X218444016Y-100207645D01*
X218432738Y-100185450D01*
X218417347Y-100165881D01*
X218398434Y-100149691D01*
X218376726Y-100137501D01*
X218353057Y-100129781D01*
X218325700Y-100126800D01*
X216266315Y-100126800D01*
X216194060Y-95538599D01*
X217587659Y-95500243D01*
X217606018Y-95505812D01*
X217730500Y-95518072D01*
X219530500Y-95518072D01*
X219654982Y-95505812D01*
X219774680Y-95469502D01*
X219832772Y-95438451D01*
X220627553Y-95416576D01*
X220722757Y-95456011D01*
X221019316Y-95515000D01*
X221321684Y-95515000D01*
X221618243Y-95456011D01*
X221897595Y-95340299D01*
X222149005Y-95172312D01*
X222362812Y-94958505D01*
X222443867Y-94837198D01*
X222578851Y-95017116D01*
X222802927Y-95217962D01*
X223061880Y-95371234D01*
X223345759Y-95471041D01*
X223583500Y-95350992D01*
X223583500Y-94107000D01*
X223837500Y-94107000D01*
X223837500Y-95350992D01*
X224075241Y-95471041D01*
X224359120Y-95371234D01*
X224618073Y-95217962D01*
X224842149Y-95017116D01*
X225022736Y-94776414D01*
X225152894Y-94505107D01*
X225201536Y-94344740D01*
X225080878Y-94107000D01*
X223837500Y-94107000D01*
X223583500Y-94107000D01*
X223563500Y-94107000D01*
X223563500Y-93853000D01*
X223583500Y-93853000D01*
X223583500Y-92609008D01*
X223837500Y-92609008D01*
X223837500Y-93853000D01*
X225080878Y-93853000D01*
X225201536Y-93615260D01*
X225152894Y-93454893D01*
X225022736Y-93183586D01*
X224842149Y-92942884D01*
X224618073Y-92742038D01*
X224359120Y-92588766D01*
X224075241Y-92488959D01*
X223837500Y-92609008D01*
X223583500Y-92609008D01*
X223345759Y-92488959D01*
X223061880Y-92588766D01*
X222802927Y-92742038D01*
X222578851Y-92942884D01*
X222443867Y-93122802D01*
X222362812Y-93001495D01*
X222259580Y-92898263D01*
X222224176Y-92781553D01*
X222118784Y-92584377D01*
X221976949Y-92411551D01*
X221933640Y-92376009D01*
X221889359Y-92331728D01*
X221989189Y-90501521D01*
X226390425Y-90549622D01*
G04 #@! TA.AperFunction,Conductor*
D31*
G36*
X226390425Y-90549622D02*
G01*
X226440750Y-118543000D01*
X213360184Y-118543000D01*
X213362856Y-115603069D01*
X221276854Y-115603069D01*
X221276854Y-116044931D01*
X221363056Y-116478302D01*
X221532149Y-116886528D01*
X221777634Y-117253922D01*
X222090078Y-117566366D01*
X222457472Y-117811851D01*
X222865698Y-117980944D01*
X223299069Y-118067146D01*
X223740931Y-118067146D01*
X224174302Y-117980944D01*
X224582528Y-117811851D01*
X224949922Y-117566366D01*
X225262366Y-117253922D01*
X225507851Y-116886528D01*
X225676944Y-116478302D01*
X225763146Y-116044931D01*
X225763146Y-115603069D01*
X225676944Y-115169698D01*
X225507851Y-114761472D01*
X225262366Y-114394078D01*
X224949922Y-114081634D01*
X224582528Y-113836149D01*
X224174302Y-113667056D01*
X223740931Y-113580854D01*
X223299069Y-113580854D01*
X222865698Y-113667056D01*
X222457472Y-113836149D01*
X222090078Y-114081634D01*
X221777634Y-114394078D01*
X221532149Y-114761472D01*
X221363056Y-115169698D01*
X221276854Y-115603069D01*
X213362856Y-115603069D01*
X213365549Y-112641515D01*
X213620654Y-112616389D01*
X213928757Y-112522927D01*
X214212705Y-112371153D01*
X214461590Y-112166900D01*
X214665843Y-111918016D01*
X214817617Y-111634068D01*
X214911079Y-111325965D01*
X214934729Y-111085841D01*
X214934729Y-110381979D01*
X215165869Y-110381979D01*
X215165869Y-111132549D01*
X215222052Y-111448982D01*
X215338888Y-111748374D01*
X215511888Y-112019220D01*
X215734403Y-112251111D01*
X215997882Y-112435136D01*
X216292200Y-112564222D01*
X216420005Y-112595168D01*
X216673359Y-112475814D01*
X216673359Y-110381979D01*
X216927359Y-110381979D01*
X216927359Y-112475814D01*
X217180713Y-112595168D01*
X217308518Y-112564222D01*
X217602836Y-112435136D01*
X217866315Y-112251111D01*
X218088830Y-112019220D01*
X218261830Y-111748374D01*
X218378666Y-111448982D01*
X218434849Y-111132549D01*
X218434849Y-110381979D01*
X216927359Y-110381979D01*
X216673359Y-110381979D01*
X215165869Y-110381979D01*
X214934729Y-110381979D01*
X214934729Y-109424117D01*
X214930129Y-109377409D01*
X215165869Y-109377409D01*
X215165869Y-110127979D01*
X216673359Y-110127979D01*
X216673359Y-108034144D01*
X216927359Y-108034144D01*
X216927359Y-110127979D01*
X218434849Y-110127979D01*
X218434849Y-109377409D01*
X218378666Y-109060976D01*
X218261830Y-108761584D01*
X218088830Y-108490738D01*
X217866315Y-108258847D01*
X217602836Y-108074822D01*
X217308518Y-107945736D01*
X217180713Y-107914790D01*
X216927359Y-108034144D01*
X216673359Y-108034144D01*
X216420005Y-107914790D01*
X216292200Y-107945736D01*
X215997882Y-108074822D01*
X215734403Y-108258847D01*
X215511888Y-108490738D01*
X215338888Y-108761584D01*
X215222052Y-109060976D01*
X215165869Y-109377409D01*
X214930129Y-109377409D01*
X214911079Y-109183993D01*
X214817617Y-108875890D01*
X214665843Y-108591942D01*
X214461590Y-108343058D01*
X214212706Y-108138805D01*
X213928758Y-107987031D01*
X213620655Y-107893569D01*
X213369888Y-107868871D01*
X213372603Y-104882244D01*
X216972962Y-104270000D01*
X217370430Y-104270000D01*
X217763587Y-104191796D01*
X217993935Y-104096383D01*
X218270791Y-104049303D01*
X218294808Y-104042743D01*
X218317083Y-104031625D01*
X218336762Y-104016374D01*
X218353087Y-103997577D01*
X218365431Y-103975956D01*
X218373320Y-103952343D01*
X218376473Y-103926736D01*
X218377534Y-103875625D01*
X218467237Y-103815687D01*
X218647924Y-103635000D01*
X220211928Y-103635000D01*
X220224188Y-103759482D01*
X220260498Y-103879180D01*
X220319463Y-103989494D01*
X220398815Y-104086185D01*
X220495506Y-104165537D01*
X220605820Y-104224502D01*
X220725518Y-104260812D01*
X220850000Y-104273072D01*
X221964250Y-104270000D01*
X222123000Y-104111250D01*
X222123000Y-102362000D01*
X222377000Y-102362000D01*
X222377000Y-104111250D01*
X222535750Y-104270000D01*
X223650000Y-104273072D01*
X223774482Y-104260812D01*
X223894180Y-104224502D01*
X224004494Y-104165537D01*
X224101185Y-104086185D01*
X224180537Y-103989494D01*
X224239502Y-103879180D01*
X224275812Y-103759482D01*
X224288072Y-103635000D01*
X224285000Y-102520750D01*
X224126250Y-102362000D01*
X222377000Y-102362000D01*
X222123000Y-102362000D01*
X220373750Y-102362000D01*
X220215000Y-102520750D01*
X220211928Y-103635000D01*
X218647924Y-103635000D01*
X218750687Y-103532237D01*
X218973393Y-103198934D01*
X219126796Y-102828587D01*
X219205000Y-102435430D01*
X219205000Y-102034570D01*
X219126796Y-101641413D01*
X218973393Y-101271066D01*
X218750687Y-100937763D01*
X218647924Y-100835000D01*
X220211928Y-100835000D01*
X220215000Y-101949250D01*
X220373750Y-102108000D01*
X222123000Y-102108000D01*
X222123000Y-100358750D01*
X222377000Y-100358750D01*
X222377000Y-102108000D01*
X224126250Y-102108000D01*
X224285000Y-101949250D01*
X224288072Y-100835000D01*
X224275812Y-100710518D01*
X224239502Y-100590820D01*
X224180537Y-100480506D01*
X224101185Y-100383815D01*
X224004494Y-100304463D01*
X223894180Y-100245498D01*
X223774482Y-100209188D01*
X223650000Y-100196928D01*
X222535750Y-100200000D01*
X222377000Y-100358750D01*
X222123000Y-100358750D01*
X221964250Y-100200000D01*
X220850000Y-100196928D01*
X220725518Y-100209188D01*
X220605820Y-100245498D01*
X220495506Y-100304463D01*
X220398815Y-100383815D01*
X220319463Y-100480506D01*
X220260498Y-100590820D01*
X220224188Y-100710518D01*
X220211928Y-100835000D01*
X218647924Y-100835000D01*
X218467237Y-100654313D01*
X218444725Y-100639271D01*
X218452673Y-100256436D01*
X218450747Y-100231614D01*
X218444016Y-100207645D01*
X218432738Y-100185450D01*
X218417347Y-100165881D01*
X218398434Y-100149691D01*
X218376726Y-100137501D01*
X218353057Y-100129781D01*
X218325700Y-100126800D01*
X216266315Y-100126800D01*
X216194060Y-95538599D01*
X217587659Y-95500243D01*
X217606018Y-95505812D01*
X217730500Y-95518072D01*
X219530500Y-95518072D01*
X219654982Y-95505812D01*
X219774680Y-95469502D01*
X219832772Y-95438451D01*
X220627553Y-95416576D01*
X220722757Y-95456011D01*
X221019316Y-95515000D01*
X221321684Y-95515000D01*
X221618243Y-95456011D01*
X221897595Y-95340299D01*
X222149005Y-95172312D01*
X222362812Y-94958505D01*
X222443867Y-94837198D01*
X222578851Y-95017116D01*
X222802927Y-95217962D01*
X223061880Y-95371234D01*
X223345759Y-95471041D01*
X223583500Y-95350992D01*
X223583500Y-94107000D01*
X223837500Y-94107000D01*
X223837500Y-95350992D01*
X224075241Y-95471041D01*
X224359120Y-95371234D01*
X224618073Y-95217962D01*
X224842149Y-95017116D01*
X225022736Y-94776414D01*
X225152894Y-94505107D01*
X225201536Y-94344740D01*
X225080878Y-94107000D01*
X223837500Y-94107000D01*
X223583500Y-94107000D01*
X223563500Y-94107000D01*
X223563500Y-93853000D01*
X223583500Y-93853000D01*
X223583500Y-92609008D01*
X223837500Y-92609008D01*
X223837500Y-93853000D01*
X225080878Y-93853000D01*
X225201536Y-93615260D01*
X225152894Y-93454893D01*
X225022736Y-93183586D01*
X224842149Y-92942884D01*
X224618073Y-92742038D01*
X224359120Y-92588766D01*
X224075241Y-92488959D01*
X223837500Y-92609008D01*
X223583500Y-92609008D01*
X223345759Y-92488959D01*
X223061880Y-92588766D01*
X222802927Y-92742038D01*
X222578851Y-92942884D01*
X222443867Y-93122802D01*
X222362812Y-93001495D01*
X222259580Y-92898263D01*
X222224176Y-92781553D01*
X222118784Y-92584377D01*
X221976949Y-92411551D01*
X221933640Y-92376009D01*
X221889359Y-92331728D01*
X221989189Y-90501521D01*
X226390425Y-90549622D01*
G37*
G04 #@! TD.AperFunction*
D30*
X215184316Y-103824507D02*
X212797582Y-104384659D01*
X212774019Y-104392696D01*
X212752476Y-104405176D01*
X212733782Y-104421618D01*
X212718654Y-104441392D01*
X212707675Y-104463736D01*
X212701266Y-104487794D01*
X212699602Y-104509093D01*
X212721226Y-107972014D01*
X212671721Y-107987031D01*
X212387773Y-108138805D01*
X212138889Y-108343058D01*
X211934636Y-108591942D01*
X211782862Y-108875890D01*
X211689399Y-109183993D01*
X211665749Y-109424117D01*
X211665749Y-111085840D01*
X211689399Y-111325964D01*
X211782861Y-111634067D01*
X211934635Y-111918015D01*
X212138888Y-112166900D01*
X212387772Y-112371153D01*
X212671720Y-112522927D01*
X212749792Y-112546610D01*
X212787236Y-118543000D01*
X206251297Y-118543000D01*
X206310257Y-112646937D01*
X206620414Y-112616389D01*
X206928517Y-112522927D01*
X207212465Y-112371153D01*
X207461350Y-112166900D01*
X207665603Y-111918016D01*
X207817377Y-111634068D01*
X207910839Y-111325965D01*
X207934489Y-111085841D01*
X207934489Y-110381979D01*
X208165629Y-110381979D01*
X208165629Y-111132549D01*
X208221812Y-111448982D01*
X208338648Y-111748374D01*
X208511648Y-112019220D01*
X208734163Y-112251111D01*
X208997642Y-112435136D01*
X209291960Y-112564222D01*
X209419765Y-112595168D01*
X209673119Y-112475814D01*
X209673119Y-110381979D01*
X209927119Y-110381979D01*
X209927119Y-112475814D01*
X210180473Y-112595168D01*
X210308278Y-112564222D01*
X210602596Y-112435136D01*
X210866075Y-112251111D01*
X211088590Y-112019220D01*
X211261590Y-111748374D01*
X211378426Y-111448982D01*
X211434609Y-111132549D01*
X211434609Y-110381979D01*
X209927119Y-110381979D01*
X209673119Y-110381979D01*
X208165629Y-110381979D01*
X207934489Y-110381979D01*
X207934489Y-109424117D01*
X207929889Y-109377409D01*
X208165629Y-109377409D01*
X208165629Y-110127979D01*
X209673119Y-110127979D01*
X209673119Y-108034144D01*
X209927119Y-108034144D01*
X209927119Y-110127979D01*
X211434609Y-110127979D01*
X211434609Y-109377409D01*
X211378426Y-109060976D01*
X211261590Y-108761584D01*
X211088590Y-108490738D01*
X210866075Y-108258847D01*
X210602596Y-108074822D01*
X210308278Y-107945736D01*
X210180473Y-107914790D01*
X209927119Y-108034144D01*
X209673119Y-108034144D01*
X209419765Y-107914790D01*
X209291960Y-107945736D01*
X208997642Y-108074822D01*
X208734163Y-108258847D01*
X208511648Y-108490738D01*
X208338648Y-108761584D01*
X208221812Y-109060976D01*
X208165629Y-109377409D01*
X207929889Y-109377409D01*
X207910839Y-109183993D01*
X207817377Y-108875890D01*
X207665603Y-108591942D01*
X207461350Y-108343058D01*
X207212466Y-108138805D01*
X206928518Y-107987031D01*
X206620415Y-107893569D01*
X206358049Y-107867728D01*
X206362294Y-107443270D01*
X206361867Y-107431523D01*
X206082219Y-104053368D01*
X206416413Y-104191796D01*
X206809570Y-104270000D01*
X207210430Y-104270000D01*
X207603587Y-104191796D01*
X207973934Y-104038393D01*
X208307237Y-103815687D01*
X208467477Y-103655447D01*
X210849158Y-103655447D01*
X210993135Y-103960770D01*
X211350892Y-104141597D01*
X211737053Y-104249155D01*
X212136777Y-104279310D01*
X212534704Y-104230904D01*
X212915540Y-104105795D01*
X213186865Y-103960770D01*
X213330842Y-103655447D01*
X212090000Y-102414605D01*
X210849158Y-103655447D01*
X208467477Y-103655447D01*
X208590687Y-103532237D01*
X208813393Y-103198934D01*
X208966796Y-102828587D01*
X209045000Y-102435430D01*
X209045000Y-102281777D01*
X210045690Y-102281777D01*
X210094096Y-102679704D01*
X210219205Y-103060540D01*
X210364230Y-103331865D01*
X210669553Y-103475842D01*
X211910395Y-102235000D01*
X212269605Y-102235000D01*
X213510447Y-103475842D01*
X213815770Y-103331865D01*
X213996597Y-102974108D01*
X214104155Y-102587947D01*
X214134310Y-102188223D01*
X214085904Y-101790296D01*
X213960795Y-101409460D01*
X213815770Y-101138135D01*
X213510447Y-100994158D01*
X212269605Y-102235000D01*
X211910395Y-102235000D01*
X210669553Y-100994158D01*
X210364230Y-101138135D01*
X210183403Y-101495892D01*
X210075845Y-101882053D01*
X210045690Y-102281777D01*
X209045000Y-102281777D01*
X209045000Y-102034570D01*
X208966796Y-101641413D01*
X208813393Y-101271066D01*
X208590687Y-100937763D01*
X208467477Y-100814553D01*
X210849158Y-100814553D01*
X212090000Y-102055395D01*
X213330842Y-100814553D01*
X213186865Y-100509230D01*
X212829108Y-100328403D01*
X212442947Y-100220845D01*
X212043223Y-100190690D01*
X211645296Y-100239096D01*
X211264460Y-100364205D01*
X210993135Y-100509230D01*
X210849158Y-100814553D01*
X208467477Y-100814553D01*
X208422989Y-100770065D01*
X208431720Y-100686024D01*
X208431853Y-100661128D01*
X208427127Y-100636685D01*
X208417723Y-100613633D01*
X208404002Y-100592858D01*
X208386492Y-100575160D01*
X208365866Y-100561218D01*
X208342916Y-100551568D01*
X208318524Y-100546580D01*
X208300287Y-100546003D01*
X208153963Y-100551899D01*
X207973934Y-100431607D01*
X207603587Y-100278204D01*
X207210430Y-100200000D01*
X206809570Y-100200000D01*
X206416413Y-100278204D01*
X206046066Y-100431607D01*
X205719214Y-100650002D01*
X204965300Y-100680380D01*
X204965300Y-98867543D01*
X205844013Y-97894119D01*
X206873142Y-96864990D01*
X206916450Y-96829448D01*
X207058285Y-96656622D01*
X207092562Y-96592494D01*
X208766176Y-96545350D01*
X208790874Y-96542213D01*
X208814485Y-96534318D01*
X208836103Y-96521968D01*
X208854896Y-96505638D01*
X208870142Y-96485956D01*
X208881255Y-96463678D01*
X208887808Y-96439659D01*
X208889600Y-96418400D01*
X208889600Y-95643700D01*
X214825942Y-95643700D01*
X215184316Y-103824507D01*
G04 #@! TA.AperFunction,Conductor*
D31*
G36*
X215184316Y-103824507D02*
G01*
X212797582Y-104384659D01*
X212774019Y-104392696D01*
X212752476Y-104405176D01*
X212733782Y-104421618D01*
X212718654Y-104441392D01*
X212707675Y-104463736D01*
X212701266Y-104487794D01*
X212699602Y-104509093D01*
X212721226Y-107972014D01*
X212671721Y-107987031D01*
X212387773Y-108138805D01*
X212138889Y-108343058D01*
X211934636Y-108591942D01*
X211782862Y-108875890D01*
X211689399Y-109183993D01*
X211665749Y-109424117D01*
X211665749Y-111085840D01*
X211689399Y-111325964D01*
X211782861Y-111634067D01*
X211934635Y-111918015D01*
X212138888Y-112166900D01*
X212387772Y-112371153D01*
X212671720Y-112522927D01*
X212749792Y-112546610D01*
X212787236Y-118543000D01*
X206251297Y-118543000D01*
X206310257Y-112646937D01*
X206620414Y-112616389D01*
X206928517Y-112522927D01*
X207212465Y-112371153D01*
X207461350Y-112166900D01*
X207665603Y-111918016D01*
X207817377Y-111634068D01*
X207910839Y-111325965D01*
X207934489Y-111085841D01*
X207934489Y-110381979D01*
X208165629Y-110381979D01*
X208165629Y-111132549D01*
X208221812Y-111448982D01*
X208338648Y-111748374D01*
X208511648Y-112019220D01*
X208734163Y-112251111D01*
X208997642Y-112435136D01*
X209291960Y-112564222D01*
X209419765Y-112595168D01*
X209673119Y-112475814D01*
X209673119Y-110381979D01*
X209927119Y-110381979D01*
X209927119Y-112475814D01*
X210180473Y-112595168D01*
X210308278Y-112564222D01*
X210602596Y-112435136D01*
X210866075Y-112251111D01*
X211088590Y-112019220D01*
X211261590Y-111748374D01*
X211378426Y-111448982D01*
X211434609Y-111132549D01*
X211434609Y-110381979D01*
X209927119Y-110381979D01*
X209673119Y-110381979D01*
X208165629Y-110381979D01*
X207934489Y-110381979D01*
X207934489Y-109424117D01*
X207929889Y-109377409D01*
X208165629Y-109377409D01*
X208165629Y-110127979D01*
X209673119Y-110127979D01*
X209673119Y-108034144D01*
X209927119Y-108034144D01*
X209927119Y-110127979D01*
X211434609Y-110127979D01*
X211434609Y-109377409D01*
X211378426Y-109060976D01*
X211261590Y-108761584D01*
X211088590Y-108490738D01*
X210866075Y-108258847D01*
X210602596Y-108074822D01*
X210308278Y-107945736D01*
X210180473Y-107914790D01*
X209927119Y-108034144D01*
X209673119Y-108034144D01*
X209419765Y-107914790D01*
X209291960Y-107945736D01*
X208997642Y-108074822D01*
X208734163Y-108258847D01*
X208511648Y-108490738D01*
X208338648Y-108761584D01*
X208221812Y-109060976D01*
X208165629Y-109377409D01*
X207929889Y-109377409D01*
X207910839Y-109183993D01*
X207817377Y-108875890D01*
X207665603Y-108591942D01*
X207461350Y-108343058D01*
X207212466Y-108138805D01*
X206928518Y-107987031D01*
X206620415Y-107893569D01*
X206358049Y-107867728D01*
X206362294Y-107443270D01*
X206361867Y-107431523D01*
X206082219Y-104053368D01*
X206416413Y-104191796D01*
X206809570Y-104270000D01*
X207210430Y-104270000D01*
X207603587Y-104191796D01*
X207973934Y-104038393D01*
X208307237Y-103815687D01*
X208467477Y-103655447D01*
X210849158Y-103655447D01*
X210993135Y-103960770D01*
X211350892Y-104141597D01*
X211737053Y-104249155D01*
X212136777Y-104279310D01*
X212534704Y-104230904D01*
X212915540Y-104105795D01*
X213186865Y-103960770D01*
X213330842Y-103655447D01*
X212090000Y-102414605D01*
X210849158Y-103655447D01*
X208467477Y-103655447D01*
X208590687Y-103532237D01*
X208813393Y-103198934D01*
X208966796Y-102828587D01*
X209045000Y-102435430D01*
X209045000Y-102281777D01*
X210045690Y-102281777D01*
X210094096Y-102679704D01*
X210219205Y-103060540D01*
X210364230Y-103331865D01*
X210669553Y-103475842D01*
X211910395Y-102235000D01*
X212269605Y-102235000D01*
X213510447Y-103475842D01*
X213815770Y-103331865D01*
X213996597Y-102974108D01*
X214104155Y-102587947D01*
X214134310Y-102188223D01*
X214085904Y-101790296D01*
X213960795Y-101409460D01*
X213815770Y-101138135D01*
X213510447Y-100994158D01*
X212269605Y-102235000D01*
X211910395Y-102235000D01*
X210669553Y-100994158D01*
X210364230Y-101138135D01*
X210183403Y-101495892D01*
X210075845Y-101882053D01*
X210045690Y-102281777D01*
X209045000Y-102281777D01*
X209045000Y-102034570D01*
X208966796Y-101641413D01*
X208813393Y-101271066D01*
X208590687Y-100937763D01*
X208467477Y-100814553D01*
X210849158Y-100814553D01*
X212090000Y-102055395D01*
X213330842Y-100814553D01*
X213186865Y-100509230D01*
X212829108Y-100328403D01*
X212442947Y-100220845D01*
X212043223Y-100190690D01*
X211645296Y-100239096D01*
X211264460Y-100364205D01*
X210993135Y-100509230D01*
X210849158Y-100814553D01*
X208467477Y-100814553D01*
X208422989Y-100770065D01*
X208431720Y-100686024D01*
X208431853Y-100661128D01*
X208427127Y-100636685D01*
X208417723Y-100613633D01*
X208404002Y-100592858D01*
X208386492Y-100575160D01*
X208365866Y-100561218D01*
X208342916Y-100551568D01*
X208318524Y-100546580D01*
X208300287Y-100546003D01*
X208153963Y-100551899D01*
X207973934Y-100431607D01*
X207603587Y-100278204D01*
X207210430Y-100200000D01*
X206809570Y-100200000D01*
X206416413Y-100278204D01*
X206046066Y-100431607D01*
X205719214Y-100650002D01*
X204965300Y-100680380D01*
X204965300Y-98867543D01*
X205844013Y-97894119D01*
X206873142Y-96864990D01*
X206916450Y-96829448D01*
X207058285Y-96656622D01*
X207092562Y-96592494D01*
X208766176Y-96545350D01*
X208790874Y-96542213D01*
X208814485Y-96534318D01*
X208836103Y-96521968D01*
X208854896Y-96505638D01*
X208870142Y-96485956D01*
X208881255Y-96463678D01*
X208887808Y-96439659D01*
X208889600Y-96418400D01*
X208889600Y-95643700D01*
X214825942Y-95643700D01*
X215184316Y-103824507D01*
G37*
G04 #@! TD.AperFunction*
D30*
X206929404Y-95961885D02*
X204202999Y-98652099D01*
X204187077Y-98671239D01*
X204175195Y-98693116D01*
X204167809Y-98716892D01*
X204165278Y-98746953D01*
X204241478Y-100918653D01*
X204244786Y-100943329D01*
X204252844Y-100966885D01*
X204265342Y-100988417D01*
X204281802Y-101007096D01*
X204295228Y-101018002D01*
X205022861Y-101530924D01*
X205041024Y-101702646D01*
X204975000Y-102034570D01*
X204975000Y-102435430D01*
X205053204Y-102828587D01*
X205196774Y-103175196D01*
X205295818Y-104111610D01*
X205448043Y-107321017D01*
X205451654Y-107345650D01*
X205461308Y-107371796D01*
X205756113Y-107961406D01*
X205497522Y-108074822D01*
X205234043Y-108258847D01*
X205011528Y-108490738D01*
X204838528Y-108761584D01*
X204721692Y-109060976D01*
X204665509Y-109377409D01*
X204665509Y-110127979D01*
X205876633Y-110127979D01*
X205862464Y-110381979D01*
X204665509Y-110381979D01*
X204665509Y-111132549D01*
X204721692Y-111448982D01*
X204838528Y-111748374D01*
X205011528Y-112019220D01*
X205234043Y-112251111D01*
X205497522Y-112435136D01*
X205741948Y-112542340D01*
X205638519Y-114396389D01*
X203906253Y-114507789D01*
X203834977Y-112595212D01*
X203831819Y-112273104D01*
X203961230Y-112166900D01*
X204165483Y-111918016D01*
X204317257Y-111634068D01*
X204410719Y-111325965D01*
X204434369Y-111085841D01*
X204434369Y-109424117D01*
X204410719Y-109183993D01*
X204317257Y-108875890D01*
X204165483Y-108591942D01*
X203961230Y-108343058D01*
X203712346Y-108138805D01*
X203428398Y-107987031D01*
X203120295Y-107893569D01*
X202799879Y-107862011D01*
X202479464Y-107893569D01*
X202171361Y-107987031D01*
X201887413Y-108138805D01*
X201638529Y-108343058D01*
X201434276Y-108591942D01*
X201400106Y-108655869D01*
X201359367Y-108657142D01*
X201382260Y-105185042D01*
X201408876Y-105135247D01*
X201473777Y-104921299D01*
X201495691Y-104698800D01*
X201490200Y-104643048D01*
X201490200Y-97341001D01*
X203709141Y-95122061D01*
X203752449Y-95086519D01*
X203861396Y-94953767D01*
X203929761Y-94888083D01*
X206929404Y-95961885D01*
G04 #@! TA.AperFunction,Conductor*
D31*
G36*
X206929404Y-95961885D02*
G01*
X204202999Y-98652099D01*
X204187077Y-98671239D01*
X204175195Y-98693116D01*
X204167809Y-98716892D01*
X204165278Y-98746953D01*
X204241478Y-100918653D01*
X204244786Y-100943329D01*
X204252844Y-100966885D01*
X204265342Y-100988417D01*
X204281802Y-101007096D01*
X204295228Y-101018002D01*
X205022861Y-101530924D01*
X205041024Y-101702646D01*
X204975000Y-102034570D01*
X204975000Y-102435430D01*
X205053204Y-102828587D01*
X205196774Y-103175196D01*
X205295818Y-104111610D01*
X205448043Y-107321017D01*
X205451654Y-107345650D01*
X205461308Y-107371796D01*
X205756113Y-107961406D01*
X205497522Y-108074822D01*
X205234043Y-108258847D01*
X205011528Y-108490738D01*
X204838528Y-108761584D01*
X204721692Y-109060976D01*
X204665509Y-109377409D01*
X204665509Y-110127979D01*
X205876633Y-110127979D01*
X205862464Y-110381979D01*
X204665509Y-110381979D01*
X204665509Y-111132549D01*
X204721692Y-111448982D01*
X204838528Y-111748374D01*
X205011528Y-112019220D01*
X205234043Y-112251111D01*
X205497522Y-112435136D01*
X205741948Y-112542340D01*
X205638519Y-114396389D01*
X203906253Y-114507789D01*
X203834977Y-112595212D01*
X203831819Y-112273104D01*
X203961230Y-112166900D01*
X204165483Y-111918016D01*
X204317257Y-111634068D01*
X204410719Y-111325965D01*
X204434369Y-111085841D01*
X204434369Y-109424117D01*
X204410719Y-109183993D01*
X204317257Y-108875890D01*
X204165483Y-108591942D01*
X203961230Y-108343058D01*
X203712346Y-108138805D01*
X203428398Y-107987031D01*
X203120295Y-107893569D01*
X202799879Y-107862011D01*
X202479464Y-107893569D01*
X202171361Y-107987031D01*
X201887413Y-108138805D01*
X201638529Y-108343058D01*
X201434276Y-108591942D01*
X201400106Y-108655869D01*
X201359367Y-108657142D01*
X201382260Y-105185042D01*
X201408876Y-105135247D01*
X201473777Y-104921299D01*
X201495691Y-104698800D01*
X201490200Y-104643048D01*
X201490200Y-97341001D01*
X203709141Y-95122061D01*
X203752449Y-95086519D01*
X203861396Y-94953767D01*
X203929761Y-94888083D01*
X206929404Y-95961885D01*
G37*
G04 #@! TD.AperFunction*
D30*
X201720521Y-108275769D02*
X201638529Y-108343058D01*
X201434276Y-108591942D01*
X201282502Y-108875890D01*
X201189039Y-109183993D01*
X201165389Y-109424117D01*
X201165389Y-111085840D01*
X201189039Y-111325964D01*
X201282501Y-111634067D01*
X201434275Y-111918015D01*
X201638528Y-112166900D01*
X201887412Y-112371153D01*
X202171360Y-112522927D01*
X202479463Y-112616389D01*
X202799879Y-112647947D01*
X203120294Y-112616389D01*
X203428397Y-112522927D01*
X203430131Y-112522000D01*
X203728866Y-112522000D01*
X203661541Y-114440762D01*
X199528633Y-114476700D01*
X199513154Y-112626930D01*
X199620174Y-112616389D01*
X199928277Y-112522927D01*
X200212225Y-112371153D01*
X200461110Y-112166900D01*
X200665363Y-111918016D01*
X200817137Y-111634068D01*
X200910599Y-111325965D01*
X200934249Y-111085841D01*
X200934249Y-109424117D01*
X200910599Y-109183993D01*
X200817137Y-108875890D01*
X200665363Y-108591942D01*
X200461110Y-108343058D01*
X200212226Y-108138805D01*
X199928278Y-107987031D01*
X199620175Y-107893569D01*
X199473423Y-107879115D01*
X199456308Y-105833800D01*
X200299448Y-105833800D01*
X200355200Y-105839291D01*
X200410951Y-105833800D01*
X200410952Y-105833800D01*
X200577699Y-105817377D01*
X200791647Y-105752476D01*
X200988823Y-105647084D01*
X201014636Y-105625900D01*
X201349637Y-105625900D01*
X201720521Y-108275769D01*
G04 #@! TA.AperFunction,Conductor*
D31*
G36*
X201720521Y-108275769D02*
G01*
X201638529Y-108343058D01*
X201434276Y-108591942D01*
X201282502Y-108875890D01*
X201189039Y-109183993D01*
X201165389Y-109424117D01*
X201165389Y-111085840D01*
X201189039Y-111325964D01*
X201282501Y-111634067D01*
X201434275Y-111918015D01*
X201638528Y-112166900D01*
X201887412Y-112371153D01*
X202171360Y-112522927D01*
X202479463Y-112616389D01*
X202799879Y-112647947D01*
X203120294Y-112616389D01*
X203428397Y-112522927D01*
X203430131Y-112522000D01*
X203728866Y-112522000D01*
X203661541Y-114440762D01*
X199528633Y-114476700D01*
X199513154Y-112626930D01*
X199620174Y-112616389D01*
X199928277Y-112522927D01*
X200212225Y-112371153D01*
X200461110Y-112166900D01*
X200665363Y-111918016D01*
X200817137Y-111634068D01*
X200910599Y-111325965D01*
X200934249Y-111085841D01*
X200934249Y-109424117D01*
X200910599Y-109183993D01*
X200817137Y-108875890D01*
X200665363Y-108591942D01*
X200461110Y-108343058D01*
X200212226Y-108138805D01*
X199928278Y-107987031D01*
X199620175Y-107893569D01*
X199473423Y-107879115D01*
X199456308Y-105833800D01*
X200299448Y-105833800D01*
X200355200Y-105839291D01*
X200410951Y-105833800D01*
X200410952Y-105833800D01*
X200577699Y-105817377D01*
X200791647Y-105752476D01*
X200988823Y-105647084D01*
X201014636Y-105625900D01*
X201349637Y-105625900D01*
X201720521Y-108275769D01*
G37*
G04 #@! TD.AperFunction*
D30*
X192253794Y-99993107D02*
X192238900Y-100001068D01*
X192020393Y-100180392D01*
X191841068Y-100398899D01*
X191772735Y-100526741D01*
X191622601Y-100297161D01*
X191424895Y-100095500D01*
X191191646Y-99936285D01*
X190931818Y-99825633D01*
X190849039Y-99808096D01*
X190627000Y-99930085D01*
X190627000Y-101473000D01*
X190647000Y-101473000D01*
X190647000Y-101727000D01*
X190627000Y-101727000D01*
X190627000Y-103269915D01*
X190849039Y-103391904D01*
X190931818Y-103374367D01*
X191191646Y-103263715D01*
X191424895Y-103104500D01*
X191622601Y-102902839D01*
X191772735Y-102673258D01*
X191841068Y-102801100D01*
X192020392Y-103019607D01*
X192238899Y-103198932D01*
X192406007Y-103288253D01*
X192408711Y-103306876D01*
X192417025Y-103330342D01*
X192429758Y-103351736D01*
X192446420Y-103370235D01*
X192466371Y-103385128D01*
X192488844Y-103395843D01*
X192512975Y-103401967D01*
X192528186Y-103403343D01*
X192744172Y-103409832D01*
X192758691Y-103414236D01*
X193040000Y-103441943D01*
X193220677Y-103424147D01*
X195441812Y-103490877D01*
X195631106Y-103656237D01*
X197436813Y-105461946D01*
X197472351Y-105505249D01*
X197515654Y-105540787D01*
X197515656Y-105540789D01*
X197645177Y-105647084D01*
X197842353Y-105752476D01*
X198056301Y-105817377D01*
X198278800Y-105839291D01*
X198334552Y-105833800D01*
X198574691Y-105833800D01*
X198536323Y-108059146D01*
X198387293Y-108138805D01*
X198138409Y-108343058D01*
X197934156Y-108591942D01*
X197782382Y-108875890D01*
X197688919Y-109183993D01*
X197665269Y-109424117D01*
X197665269Y-111085840D01*
X197688919Y-111325964D01*
X197782381Y-111634067D01*
X197934155Y-111918015D01*
X198138408Y-112166900D01*
X198387292Y-112371153D01*
X198461296Y-112410709D01*
X198426984Y-114400817D01*
X192580498Y-114364276D01*
X192548458Y-112623429D01*
X192619934Y-112616389D01*
X192928037Y-112522927D01*
X193211985Y-112371153D01*
X193460870Y-112166900D01*
X193665123Y-111918016D01*
X193816897Y-111634068D01*
X193910359Y-111325965D01*
X193934009Y-111085841D01*
X193934009Y-110381979D01*
X194165149Y-110381979D01*
X194165149Y-111132549D01*
X194221332Y-111448982D01*
X194338168Y-111748374D01*
X194511168Y-112019220D01*
X194733683Y-112251111D01*
X194997162Y-112435136D01*
X195291480Y-112564222D01*
X195419285Y-112595168D01*
X195672639Y-112475814D01*
X195672639Y-110381979D01*
X195926639Y-110381979D01*
X195926639Y-112475814D01*
X196179993Y-112595168D01*
X196307798Y-112564222D01*
X196602116Y-112435136D01*
X196865595Y-112251111D01*
X197088110Y-112019220D01*
X197261110Y-111748374D01*
X197377946Y-111448982D01*
X197434129Y-111132549D01*
X197434129Y-110381979D01*
X195926639Y-110381979D01*
X195672639Y-110381979D01*
X194165149Y-110381979D01*
X193934009Y-110381979D01*
X193934009Y-109424117D01*
X193929409Y-109377409D01*
X194165149Y-109377409D01*
X194165149Y-110127979D01*
X195672639Y-110127979D01*
X195672639Y-108034144D01*
X195926639Y-108034144D01*
X195926639Y-110127979D01*
X197434129Y-110127979D01*
X197434129Y-109377409D01*
X197377946Y-109060976D01*
X197261110Y-108761584D01*
X197088110Y-108490738D01*
X196865595Y-108258847D01*
X196602116Y-108074822D01*
X196307798Y-107945736D01*
X196179993Y-107914790D01*
X195926639Y-108034144D01*
X195672639Y-108034144D01*
X195419285Y-107914790D01*
X195291480Y-107945736D01*
X194997162Y-108074822D01*
X194733683Y-108258847D01*
X194511168Y-108490738D01*
X194338168Y-108761584D01*
X194221332Y-109060976D01*
X194165149Y-109377409D01*
X193929409Y-109377409D01*
X193910359Y-109183993D01*
X193816897Y-108875890D01*
X193665123Y-108591942D01*
X193460870Y-108343058D01*
X193211986Y-108138805D01*
X192928038Y-107987031D01*
X192619935Y-107893569D01*
X192299519Y-107862011D01*
X192135111Y-107878204D01*
X190322440Y-105967990D01*
X190317251Y-105950884D01*
X190245890Y-105817377D01*
X190165430Y-105666847D01*
X190050230Y-105526475D01*
X190012315Y-105480275D01*
X189961113Y-105417885D01*
X189898724Y-105366684D01*
X189510724Y-104978684D01*
X188785023Y-103299824D01*
X188782864Y-103181071D01*
X188979607Y-103019608D01*
X189158932Y-102801101D01*
X189227265Y-102673259D01*
X189377399Y-102902839D01*
X189575105Y-103104500D01*
X189808354Y-103263715D01*
X190068182Y-103374367D01*
X190150961Y-103391904D01*
X190373000Y-103269915D01*
X190373000Y-101727000D01*
X190353000Y-101727000D01*
X190353000Y-101473000D01*
X190373000Y-101473000D01*
X190373000Y-99930085D01*
X190150961Y-99808096D01*
X190068182Y-99825633D01*
X189808354Y-99936285D01*
X189575105Y-100095500D01*
X189377399Y-100297161D01*
X189227265Y-100526741D01*
X189158932Y-100398899D01*
X188979608Y-100180392D01*
X188761101Y-100001068D01*
X188724692Y-99981607D01*
X188711630Y-99263200D01*
X192220209Y-99263200D01*
X192253794Y-99993107D01*
G04 #@! TA.AperFunction,Conductor*
D31*
G36*
X192253794Y-99993107D02*
G01*
X192238900Y-100001068D01*
X192020393Y-100180392D01*
X191841068Y-100398899D01*
X191772735Y-100526741D01*
X191622601Y-100297161D01*
X191424895Y-100095500D01*
X191191646Y-99936285D01*
X190931818Y-99825633D01*
X190849039Y-99808096D01*
X190627000Y-99930085D01*
X190627000Y-101473000D01*
X190647000Y-101473000D01*
X190647000Y-101727000D01*
X190627000Y-101727000D01*
X190627000Y-103269915D01*
X190849039Y-103391904D01*
X190931818Y-103374367D01*
X191191646Y-103263715D01*
X191424895Y-103104500D01*
X191622601Y-102902839D01*
X191772735Y-102673258D01*
X191841068Y-102801100D01*
X192020392Y-103019607D01*
X192238899Y-103198932D01*
X192406007Y-103288253D01*
X192408711Y-103306876D01*
X192417025Y-103330342D01*
X192429758Y-103351736D01*
X192446420Y-103370235D01*
X192466371Y-103385128D01*
X192488844Y-103395843D01*
X192512975Y-103401967D01*
X192528186Y-103403343D01*
X192744172Y-103409832D01*
X192758691Y-103414236D01*
X193040000Y-103441943D01*
X193220677Y-103424147D01*
X195441812Y-103490877D01*
X195631106Y-103656237D01*
X197436813Y-105461946D01*
X197472351Y-105505249D01*
X197515654Y-105540787D01*
X197515656Y-105540789D01*
X197645177Y-105647084D01*
X197842353Y-105752476D01*
X198056301Y-105817377D01*
X198278800Y-105839291D01*
X198334552Y-105833800D01*
X198574691Y-105833800D01*
X198536323Y-108059146D01*
X198387293Y-108138805D01*
X198138409Y-108343058D01*
X197934156Y-108591942D01*
X197782382Y-108875890D01*
X197688919Y-109183993D01*
X197665269Y-109424117D01*
X197665269Y-111085840D01*
X197688919Y-111325964D01*
X197782381Y-111634067D01*
X197934155Y-111918015D01*
X198138408Y-112166900D01*
X198387292Y-112371153D01*
X198461296Y-112410709D01*
X198426984Y-114400817D01*
X192580498Y-114364276D01*
X192548458Y-112623429D01*
X192619934Y-112616389D01*
X192928037Y-112522927D01*
X193211985Y-112371153D01*
X193460870Y-112166900D01*
X193665123Y-111918016D01*
X193816897Y-111634068D01*
X193910359Y-111325965D01*
X193934009Y-111085841D01*
X193934009Y-110381979D01*
X194165149Y-110381979D01*
X194165149Y-111132549D01*
X194221332Y-111448982D01*
X194338168Y-111748374D01*
X194511168Y-112019220D01*
X194733683Y-112251111D01*
X194997162Y-112435136D01*
X195291480Y-112564222D01*
X195419285Y-112595168D01*
X195672639Y-112475814D01*
X195672639Y-110381979D01*
X195926639Y-110381979D01*
X195926639Y-112475814D01*
X196179993Y-112595168D01*
X196307798Y-112564222D01*
X196602116Y-112435136D01*
X196865595Y-112251111D01*
X197088110Y-112019220D01*
X197261110Y-111748374D01*
X197377946Y-111448982D01*
X197434129Y-111132549D01*
X197434129Y-110381979D01*
X195926639Y-110381979D01*
X195672639Y-110381979D01*
X194165149Y-110381979D01*
X193934009Y-110381979D01*
X193934009Y-109424117D01*
X193929409Y-109377409D01*
X194165149Y-109377409D01*
X194165149Y-110127979D01*
X195672639Y-110127979D01*
X195672639Y-108034144D01*
X195926639Y-108034144D01*
X195926639Y-110127979D01*
X197434129Y-110127979D01*
X197434129Y-109377409D01*
X197377946Y-109060976D01*
X197261110Y-108761584D01*
X197088110Y-108490738D01*
X196865595Y-108258847D01*
X196602116Y-108074822D01*
X196307798Y-107945736D01*
X196179993Y-107914790D01*
X195926639Y-108034144D01*
X195672639Y-108034144D01*
X195419285Y-107914790D01*
X195291480Y-107945736D01*
X194997162Y-108074822D01*
X194733683Y-108258847D01*
X194511168Y-108490738D01*
X194338168Y-108761584D01*
X194221332Y-109060976D01*
X194165149Y-109377409D01*
X193929409Y-109377409D01*
X193910359Y-109183993D01*
X193816897Y-108875890D01*
X193665123Y-108591942D01*
X193460870Y-108343058D01*
X193211986Y-108138805D01*
X192928038Y-107987031D01*
X192619935Y-107893569D01*
X192299519Y-107862011D01*
X192135111Y-107878204D01*
X190322440Y-105967990D01*
X190317251Y-105950884D01*
X190245890Y-105817377D01*
X190165430Y-105666847D01*
X190050230Y-105526475D01*
X190012315Y-105480275D01*
X189961113Y-105417885D01*
X189898724Y-105366684D01*
X189510724Y-104978684D01*
X188785023Y-103299824D01*
X188782864Y-103181071D01*
X188979607Y-103019608D01*
X189158932Y-102801101D01*
X189227265Y-102673259D01*
X189377399Y-102902839D01*
X189575105Y-103104500D01*
X189808354Y-103263715D01*
X190068182Y-103374367D01*
X190150961Y-103391904D01*
X190373000Y-103269915D01*
X190373000Y-101727000D01*
X190353000Y-101727000D01*
X190353000Y-101473000D01*
X190373000Y-101473000D01*
X190373000Y-99930085D01*
X190150961Y-99808096D01*
X190068182Y-99825633D01*
X189808354Y-99936285D01*
X189575105Y-100095500D01*
X189377399Y-100297161D01*
X189227265Y-100526741D01*
X189158932Y-100398899D01*
X188979608Y-100180392D01*
X188761101Y-100001068D01*
X188724692Y-99981607D01*
X188711630Y-99263200D01*
X192220209Y-99263200D01*
X192253794Y-99993107D01*
G37*
G04 #@! TD.AperFunction*
D30*
X185547000Y-103269915D02*
X185769039Y-103391904D01*
X185851818Y-103374367D01*
X186111646Y-103263715D01*
X186344895Y-103104500D01*
X186444551Y-103002851D01*
X186459329Y-103022119D01*
X189015146Y-105645789D01*
X189133969Y-105868092D01*
X189287083Y-106054663D01*
X189338286Y-106117054D01*
X189587248Y-106321371D01*
X189824158Y-106448002D01*
X191504092Y-108076246D01*
X191387053Y-108138805D01*
X191138169Y-108343058D01*
X190933916Y-108591942D01*
X190782142Y-108875890D01*
X190688679Y-109183993D01*
X190665029Y-109424117D01*
X190665029Y-111085840D01*
X190688679Y-111325964D01*
X190782141Y-111634067D01*
X190933915Y-111918015D01*
X191138168Y-112166900D01*
X191387052Y-112371153D01*
X191671000Y-112522927D01*
X191883765Y-112587469D01*
X191931680Y-114400871D01*
X185352562Y-114364184D01*
X185298198Y-112647841D01*
X185299279Y-112647947D01*
X185619694Y-112616389D01*
X185927797Y-112522927D01*
X186211745Y-112371153D01*
X186460630Y-112166900D01*
X186664883Y-111918016D01*
X186816657Y-111634068D01*
X186910119Y-111325965D01*
X186933769Y-111085841D01*
X186933769Y-110381979D01*
X187164909Y-110381979D01*
X187164909Y-111132549D01*
X187221092Y-111448982D01*
X187337928Y-111748374D01*
X187510928Y-112019220D01*
X187733443Y-112251111D01*
X187996922Y-112435136D01*
X188291240Y-112564222D01*
X188419045Y-112595168D01*
X188672399Y-112475814D01*
X188672399Y-110381979D01*
X188926399Y-110381979D01*
X188926399Y-112475814D01*
X189179753Y-112595168D01*
X189307558Y-112564222D01*
X189601876Y-112435136D01*
X189865355Y-112251111D01*
X190087870Y-112019220D01*
X190260870Y-111748374D01*
X190377706Y-111448982D01*
X190433889Y-111132549D01*
X190433889Y-110381979D01*
X188926399Y-110381979D01*
X188672399Y-110381979D01*
X187164909Y-110381979D01*
X186933769Y-110381979D01*
X186933769Y-109424117D01*
X186929169Y-109377409D01*
X187164909Y-109377409D01*
X187164909Y-110127979D01*
X188672399Y-110127979D01*
X188672399Y-108034144D01*
X188926399Y-108034144D01*
X188926399Y-110127979D01*
X190433889Y-110127979D01*
X190433889Y-109377409D01*
X190377706Y-109060976D01*
X190260870Y-108761584D01*
X190087870Y-108490738D01*
X189865355Y-108258847D01*
X189601876Y-108074822D01*
X189307558Y-107945736D01*
X189179753Y-107914790D01*
X188926399Y-108034144D01*
X188672399Y-108034144D01*
X188419045Y-107914790D01*
X188291240Y-107945736D01*
X187996922Y-108074822D01*
X187733443Y-108258847D01*
X187510928Y-108490738D01*
X187337928Y-108761584D01*
X187221092Y-109060976D01*
X187164909Y-109377409D01*
X186929169Y-109377409D01*
X186910119Y-109183993D01*
X186816657Y-108875890D01*
X186664883Y-108591942D01*
X186460630Y-108343058D01*
X186211746Y-108138805D01*
X185927798Y-107987031D01*
X185619695Y-107893569D01*
X185299279Y-107862011D01*
X185147086Y-107877001D01*
X185089736Y-106066379D01*
X185086513Y-106041693D01*
X185078535Y-106018109D01*
X185064748Y-105994667D01*
X183234150Y-103530400D01*
X184531000Y-103530400D01*
X184555776Y-103527960D01*
X184579601Y-103520733D01*
X184601557Y-103508997D01*
X184620803Y-103493203D01*
X184636597Y-103473957D01*
X184648333Y-103452001D01*
X184655560Y-103428176D01*
X184657830Y-103396840D01*
X184648111Y-103208941D01*
X184728354Y-103263715D01*
X184988182Y-103374367D01*
X185070961Y-103391904D01*
X185293000Y-103269915D01*
X185293000Y-102035330D01*
X185547000Y-102028690D01*
X185547000Y-103269915D01*
G04 #@! TA.AperFunction,Conductor*
D31*
G36*
X185547000Y-103269915D02*
G01*
X185769039Y-103391904D01*
X185851818Y-103374367D01*
X186111646Y-103263715D01*
X186344895Y-103104500D01*
X186444551Y-103002851D01*
X186459329Y-103022119D01*
X189015146Y-105645789D01*
X189133969Y-105868092D01*
X189287083Y-106054663D01*
X189338286Y-106117054D01*
X189587248Y-106321371D01*
X189824158Y-106448002D01*
X191504092Y-108076246D01*
X191387053Y-108138805D01*
X191138169Y-108343058D01*
X190933916Y-108591942D01*
X190782142Y-108875890D01*
X190688679Y-109183993D01*
X190665029Y-109424117D01*
X190665029Y-111085840D01*
X190688679Y-111325964D01*
X190782141Y-111634067D01*
X190933915Y-111918015D01*
X191138168Y-112166900D01*
X191387052Y-112371153D01*
X191671000Y-112522927D01*
X191883765Y-112587469D01*
X191931680Y-114400871D01*
X185352562Y-114364184D01*
X185298198Y-112647841D01*
X185299279Y-112647947D01*
X185619694Y-112616389D01*
X185927797Y-112522927D01*
X186211745Y-112371153D01*
X186460630Y-112166900D01*
X186664883Y-111918016D01*
X186816657Y-111634068D01*
X186910119Y-111325965D01*
X186933769Y-111085841D01*
X186933769Y-110381979D01*
X187164909Y-110381979D01*
X187164909Y-111132549D01*
X187221092Y-111448982D01*
X187337928Y-111748374D01*
X187510928Y-112019220D01*
X187733443Y-112251111D01*
X187996922Y-112435136D01*
X188291240Y-112564222D01*
X188419045Y-112595168D01*
X188672399Y-112475814D01*
X188672399Y-110381979D01*
X188926399Y-110381979D01*
X188926399Y-112475814D01*
X189179753Y-112595168D01*
X189307558Y-112564222D01*
X189601876Y-112435136D01*
X189865355Y-112251111D01*
X190087870Y-112019220D01*
X190260870Y-111748374D01*
X190377706Y-111448982D01*
X190433889Y-111132549D01*
X190433889Y-110381979D01*
X188926399Y-110381979D01*
X188672399Y-110381979D01*
X187164909Y-110381979D01*
X186933769Y-110381979D01*
X186933769Y-109424117D01*
X186929169Y-109377409D01*
X187164909Y-109377409D01*
X187164909Y-110127979D01*
X188672399Y-110127979D01*
X188672399Y-108034144D01*
X188926399Y-108034144D01*
X188926399Y-110127979D01*
X190433889Y-110127979D01*
X190433889Y-109377409D01*
X190377706Y-109060976D01*
X190260870Y-108761584D01*
X190087870Y-108490738D01*
X189865355Y-108258847D01*
X189601876Y-108074822D01*
X189307558Y-107945736D01*
X189179753Y-107914790D01*
X188926399Y-108034144D01*
X188672399Y-108034144D01*
X188419045Y-107914790D01*
X188291240Y-107945736D01*
X187996922Y-108074822D01*
X187733443Y-108258847D01*
X187510928Y-108490738D01*
X187337928Y-108761584D01*
X187221092Y-109060976D01*
X187164909Y-109377409D01*
X186929169Y-109377409D01*
X186910119Y-109183993D01*
X186816657Y-108875890D01*
X186664883Y-108591942D01*
X186460630Y-108343058D01*
X186211746Y-108138805D01*
X185927798Y-107987031D01*
X185619695Y-107893569D01*
X185299279Y-107862011D01*
X185147086Y-107877001D01*
X185089736Y-106066379D01*
X185086513Y-106041693D01*
X185078535Y-106018109D01*
X185064748Y-105994667D01*
X183234150Y-103530400D01*
X184531000Y-103530400D01*
X184555776Y-103527960D01*
X184579601Y-103520733D01*
X184601557Y-103508997D01*
X184620803Y-103493203D01*
X184636597Y-103473957D01*
X184648333Y-103452001D01*
X184655560Y-103428176D01*
X184657830Y-103396840D01*
X184648111Y-103208941D01*
X184728354Y-103263715D01*
X184988182Y-103374367D01*
X185070961Y-103391904D01*
X185293000Y-103269915D01*
X185293000Y-102035330D01*
X185547000Y-102028690D01*
X185547000Y-103269915D01*
G37*
G04 #@! TD.AperFunction*
D30*
X180467000Y-101857086D02*
X180467000Y-103269915D01*
X180689039Y-103391904D01*
X180771818Y-103374367D01*
X181031646Y-103263715D01*
X181264895Y-103104500D01*
X181462601Y-102902839D01*
X181541647Y-102781964D01*
X181575294Y-102924565D01*
X181583359Y-102948119D01*
X181595864Y-102969647D01*
X181615565Y-102991235D01*
X182193212Y-103493537D01*
X184631674Y-106282137D01*
X184597922Y-108025964D01*
X184386813Y-108138805D01*
X184137929Y-108343058D01*
X183933676Y-108591942D01*
X183781902Y-108875890D01*
X183688439Y-109183993D01*
X183664789Y-109424117D01*
X183664789Y-111085840D01*
X183688439Y-111325964D01*
X183781901Y-111634067D01*
X183933675Y-111918015D01*
X184137928Y-112166900D01*
X184386812Y-112371153D01*
X184670760Y-112522927D01*
X184682328Y-112526436D01*
X184718925Y-114327020D01*
X178917600Y-114399992D01*
X178917600Y-112525947D01*
X178927557Y-112522927D01*
X179211505Y-112371153D01*
X179460390Y-112166900D01*
X179664643Y-111918016D01*
X179816417Y-111634068D01*
X179909879Y-111325965D01*
X179933529Y-111085841D01*
X179933529Y-110381979D01*
X180164669Y-110381979D01*
X180164669Y-111132549D01*
X180220852Y-111448982D01*
X180337688Y-111748374D01*
X180510688Y-112019220D01*
X180733203Y-112251111D01*
X180996682Y-112435136D01*
X181291000Y-112564222D01*
X181418805Y-112595168D01*
X181672159Y-112475814D01*
X181672159Y-110381979D01*
X181926159Y-110381979D01*
X181926159Y-112475814D01*
X182179513Y-112595168D01*
X182307318Y-112564222D01*
X182601636Y-112435136D01*
X182865115Y-112251111D01*
X183087630Y-112019220D01*
X183260630Y-111748374D01*
X183377466Y-111448982D01*
X183433649Y-111132549D01*
X183433649Y-110381979D01*
X181926159Y-110381979D01*
X181672159Y-110381979D01*
X180164669Y-110381979D01*
X179933529Y-110381979D01*
X179933529Y-109424117D01*
X179928929Y-109377409D01*
X180164669Y-109377409D01*
X180164669Y-110127979D01*
X181672159Y-110127979D01*
X181672159Y-108034144D01*
X181926159Y-108034144D01*
X181926159Y-110127979D01*
X183433649Y-110127979D01*
X183433649Y-109377409D01*
X183377466Y-109060976D01*
X183260630Y-108761584D01*
X183087630Y-108490738D01*
X182865115Y-108258847D01*
X182601636Y-108074822D01*
X182307318Y-107945736D01*
X182179513Y-107914790D01*
X181926159Y-108034144D01*
X181672159Y-108034144D01*
X181418805Y-107914790D01*
X181291000Y-107945736D01*
X180996682Y-108074822D01*
X180733203Y-108258847D01*
X180510688Y-108490738D01*
X180337688Y-108761584D01*
X180220852Y-109060976D01*
X180164669Y-109377409D01*
X179928929Y-109377409D01*
X179909879Y-109183993D01*
X179816417Y-108875890D01*
X179664643Y-108591942D01*
X179460390Y-108343058D01*
X179211506Y-108138805D01*
X179134039Y-108097398D01*
X179134039Y-106077057D01*
X179138079Y-106036039D01*
X179121957Y-105872351D01*
X179074211Y-105714952D01*
X178996675Y-105569893D01*
X178918478Y-105474609D01*
X178918476Y-105474607D01*
X178892330Y-105442748D01*
X178860472Y-105416603D01*
X177900746Y-104456877D01*
X177121671Y-103428499D01*
X177445781Y-103392119D01*
X177518691Y-103414236D01*
X177800000Y-103441943D01*
X178081308Y-103414236D01*
X178351807Y-103332182D01*
X178450700Y-103279322D01*
X179388966Y-103174007D01*
X179413316Y-103168819D01*
X179436185Y-103158979D01*
X179456696Y-103144867D01*
X179463699Y-103137670D01*
X179648354Y-103263715D01*
X179908182Y-103374367D01*
X179990961Y-103391904D01*
X180213000Y-103269915D01*
X180213000Y-101847849D01*
X180467000Y-101857086D01*
G04 #@! TA.AperFunction,Conductor*
D31*
G36*
X180467000Y-101857086D02*
G01*
X180467000Y-103269915D01*
X180689039Y-103391904D01*
X180771818Y-103374367D01*
X181031646Y-103263715D01*
X181264895Y-103104500D01*
X181462601Y-102902839D01*
X181541647Y-102781964D01*
X181575294Y-102924565D01*
X181583359Y-102948119D01*
X181595864Y-102969647D01*
X181615565Y-102991235D01*
X182193212Y-103493537D01*
X184631674Y-106282137D01*
X184597922Y-108025964D01*
X184386813Y-108138805D01*
X184137929Y-108343058D01*
X183933676Y-108591942D01*
X183781902Y-108875890D01*
X183688439Y-109183993D01*
X183664789Y-109424117D01*
X183664789Y-111085840D01*
X183688439Y-111325964D01*
X183781901Y-111634067D01*
X183933675Y-111918015D01*
X184137928Y-112166900D01*
X184386812Y-112371153D01*
X184670760Y-112522927D01*
X184682328Y-112526436D01*
X184718925Y-114327020D01*
X178917600Y-114399992D01*
X178917600Y-112525947D01*
X178927557Y-112522927D01*
X179211505Y-112371153D01*
X179460390Y-112166900D01*
X179664643Y-111918016D01*
X179816417Y-111634068D01*
X179909879Y-111325965D01*
X179933529Y-111085841D01*
X179933529Y-110381979D01*
X180164669Y-110381979D01*
X180164669Y-111132549D01*
X180220852Y-111448982D01*
X180337688Y-111748374D01*
X180510688Y-112019220D01*
X180733203Y-112251111D01*
X180996682Y-112435136D01*
X181291000Y-112564222D01*
X181418805Y-112595168D01*
X181672159Y-112475814D01*
X181672159Y-110381979D01*
X181926159Y-110381979D01*
X181926159Y-112475814D01*
X182179513Y-112595168D01*
X182307318Y-112564222D01*
X182601636Y-112435136D01*
X182865115Y-112251111D01*
X183087630Y-112019220D01*
X183260630Y-111748374D01*
X183377466Y-111448982D01*
X183433649Y-111132549D01*
X183433649Y-110381979D01*
X181926159Y-110381979D01*
X181672159Y-110381979D01*
X180164669Y-110381979D01*
X179933529Y-110381979D01*
X179933529Y-109424117D01*
X179928929Y-109377409D01*
X180164669Y-109377409D01*
X180164669Y-110127979D01*
X181672159Y-110127979D01*
X181672159Y-108034144D01*
X181926159Y-108034144D01*
X181926159Y-110127979D01*
X183433649Y-110127979D01*
X183433649Y-109377409D01*
X183377466Y-109060976D01*
X183260630Y-108761584D01*
X183087630Y-108490738D01*
X182865115Y-108258847D01*
X182601636Y-108074822D01*
X182307318Y-107945736D01*
X182179513Y-107914790D01*
X181926159Y-108034144D01*
X181672159Y-108034144D01*
X181418805Y-107914790D01*
X181291000Y-107945736D01*
X180996682Y-108074822D01*
X180733203Y-108258847D01*
X180510688Y-108490738D01*
X180337688Y-108761584D01*
X180220852Y-109060976D01*
X180164669Y-109377409D01*
X179928929Y-109377409D01*
X179909879Y-109183993D01*
X179816417Y-108875890D01*
X179664643Y-108591942D01*
X179460390Y-108343058D01*
X179211506Y-108138805D01*
X179134039Y-108097398D01*
X179134039Y-106077057D01*
X179138079Y-106036039D01*
X179121957Y-105872351D01*
X179074211Y-105714952D01*
X178996675Y-105569893D01*
X178918478Y-105474609D01*
X178918476Y-105474607D01*
X178892330Y-105442748D01*
X178860472Y-105416603D01*
X177900746Y-104456877D01*
X177121671Y-103428499D01*
X177445781Y-103392119D01*
X177518691Y-103414236D01*
X177800000Y-103441943D01*
X178081308Y-103414236D01*
X178351807Y-103332182D01*
X178450700Y-103279322D01*
X179388966Y-103174007D01*
X179413316Y-103168819D01*
X179436185Y-103158979D01*
X179456696Y-103144867D01*
X179463699Y-103137670D01*
X179648354Y-103263715D01*
X179908182Y-103374367D01*
X179990961Y-103391904D01*
X180213000Y-103269915D01*
X180213000Y-101847849D01*
X180467000Y-101857086D01*
G37*
G04 #@! TD.AperFunction*
D30*
X218267012Y-63871471D02*
X218595501Y-64007535D01*
X218944223Y-64076900D01*
X219299777Y-64076900D01*
X219648499Y-64007535D01*
X219976988Y-63871471D01*
X220152795Y-63754000D01*
X222618306Y-63754000D01*
X221971174Y-70536437D01*
X221971250Y-70561334D01*
X221974675Y-70578282D01*
X221947832Y-70643088D01*
X221885000Y-70958967D01*
X221885000Y-71281033D01*
X221947832Y-71596912D01*
X222071082Y-71894463D01*
X222250013Y-72162252D01*
X222477748Y-72389987D01*
X222745537Y-72568918D01*
X223043088Y-72692168D01*
X223358967Y-72755000D01*
X223681033Y-72755000D01*
X223996912Y-72692168D01*
X224294463Y-72568918D01*
X224418954Y-72485736D01*
X224458795Y-72516239D01*
X224479951Y-72529363D01*
X224503262Y-72538108D01*
X224536000Y-72542400D01*
X226493001Y-72542400D01*
X226493001Y-81835106D01*
X226341658Y-89908646D01*
X221879243Y-90104259D01*
X219645395Y-87982414D01*
X220341611Y-87982414D01*
X220372557Y-88110219D01*
X220501643Y-88404537D01*
X220685668Y-88668016D01*
X220917559Y-88890531D01*
X221188405Y-89063531D01*
X221487797Y-89180367D01*
X221804230Y-89236550D01*
X222554800Y-89236550D01*
X222554800Y-87729060D01*
X222808800Y-87729060D01*
X222808800Y-89236550D01*
X223559370Y-89236550D01*
X223875803Y-89180367D01*
X224175195Y-89063531D01*
X224446041Y-88890531D01*
X224677932Y-88668016D01*
X224861957Y-88404537D01*
X224991043Y-88110219D01*
X225021989Y-87982414D01*
X224902635Y-87729060D01*
X222808800Y-87729060D01*
X222554800Y-87729060D01*
X220460965Y-87729060D01*
X220341611Y-87982414D01*
X219645395Y-87982414D01*
X218844532Y-87221706D01*
X220341611Y-87221706D01*
X220460965Y-87475060D01*
X222554800Y-87475060D01*
X222554800Y-85967570D01*
X222808800Y-85967570D01*
X222808800Y-87475060D01*
X224902635Y-87475060D01*
X225021989Y-87221706D01*
X224991043Y-87093901D01*
X224861957Y-86799583D01*
X224677932Y-86536104D01*
X224446041Y-86313589D01*
X224175195Y-86140589D01*
X223875803Y-86023753D01*
X223559370Y-85967570D01*
X222808800Y-85967570D01*
X222554800Y-85967570D01*
X221804230Y-85967570D01*
X221487797Y-86023753D01*
X221188405Y-86140589D01*
X220917559Y-86313589D01*
X220685668Y-86536104D01*
X220501643Y-86799583D01*
X220372557Y-87093901D01*
X220341611Y-87221706D01*
X218844532Y-87221706D01*
X217400451Y-85850031D01*
X217432499Y-84899277D01*
X220501100Y-84893687D01*
X220565626Y-85014407D01*
X220769879Y-85263291D01*
X221018763Y-85467544D01*
X221302711Y-85619318D01*
X221610814Y-85712780D01*
X221850938Y-85736430D01*
X223512662Y-85736430D01*
X223752786Y-85712780D01*
X224060889Y-85619318D01*
X224344837Y-85467544D01*
X224593721Y-85263291D01*
X224797974Y-85014407D01*
X224949748Y-84730459D01*
X225043210Y-84422356D01*
X225074768Y-84101940D01*
X225043210Y-83781524D01*
X224949748Y-83473421D01*
X224797974Y-83189473D01*
X224593721Y-82940589D01*
X224344837Y-82736336D01*
X224060889Y-82584562D01*
X223752786Y-82491100D01*
X223512662Y-82467450D01*
X221889817Y-82467450D01*
X220013535Y-80274819D01*
X219731491Y-79875413D01*
X222564192Y-79875413D01*
X222659956Y-80139814D01*
X222949571Y-80280704D01*
X223261108Y-80362384D01*
X223582595Y-80381718D01*
X223901675Y-80337961D01*
X224206088Y-80232795D01*
X224380044Y-80139814D01*
X224475808Y-79875413D01*
X223520000Y-78919605D01*
X222564192Y-79875413D01*
X219731491Y-79875413D01*
X219684032Y-79808207D01*
X219709987Y-79782252D01*
X219888918Y-79514463D01*
X220012168Y-79216912D01*
X220075000Y-78901033D01*
X220075000Y-78802595D01*
X221878282Y-78802595D01*
X221922039Y-79121675D01*
X222027205Y-79426088D01*
X222120186Y-79600044D01*
X222384587Y-79695808D01*
X223340395Y-78740000D01*
X223699605Y-78740000D01*
X224655413Y-79695808D01*
X224919814Y-79600044D01*
X225060704Y-79310429D01*
X225142384Y-78998892D01*
X225161718Y-78677405D01*
X225117961Y-78358325D01*
X225012795Y-78053912D01*
X224919814Y-77879956D01*
X224655413Y-77784192D01*
X223699605Y-78740000D01*
X223340395Y-78740000D01*
X222384587Y-77784192D01*
X222120186Y-77879956D01*
X221979296Y-78169571D01*
X221897616Y-78481108D01*
X221878282Y-78802595D01*
X220075000Y-78802595D01*
X220075000Y-78578967D01*
X220012168Y-78263088D01*
X219888918Y-77965537D01*
X219709987Y-77697748D01*
X219616826Y-77604587D01*
X222564192Y-77604587D01*
X223520000Y-78560395D01*
X224475808Y-77604587D01*
X224380044Y-77340186D01*
X224090429Y-77199296D01*
X223778892Y-77117616D01*
X223457405Y-77098282D01*
X223138325Y-77142039D01*
X222833912Y-77247205D01*
X222659956Y-77340186D01*
X222564192Y-77604587D01*
X219616826Y-77604587D01*
X219482252Y-77470013D01*
X219214463Y-77291082D01*
X218916912Y-77167832D01*
X218601033Y-77105000D01*
X218278967Y-77105000D01*
X217963088Y-77167832D01*
X217665537Y-77291082D01*
X217602934Y-77332912D01*
X214767166Y-75978993D01*
X214648180Y-72255413D01*
X217484192Y-72255413D01*
X217579956Y-72519814D01*
X217869571Y-72660704D01*
X218181108Y-72742384D01*
X218502595Y-72761718D01*
X218821675Y-72717961D01*
X219126088Y-72612795D01*
X219300044Y-72519814D01*
X219395808Y-72255413D01*
X218440000Y-71299605D01*
X217484192Y-72255413D01*
X214648180Y-72255413D01*
X214644508Y-72140520D01*
X214808918Y-71894463D01*
X214932168Y-71596912D01*
X214995000Y-71281033D01*
X214995000Y-71182595D01*
X216798282Y-71182595D01*
X216842039Y-71501675D01*
X216947205Y-71806088D01*
X217040186Y-71980044D01*
X217304587Y-72075808D01*
X218260395Y-71120000D01*
X218619605Y-71120000D01*
X219575413Y-72075808D01*
X219839814Y-71980044D01*
X219980704Y-71690429D01*
X220062384Y-71378892D01*
X220081718Y-71057405D01*
X220037961Y-70738325D01*
X219932795Y-70433912D01*
X219839814Y-70259956D01*
X219575413Y-70164192D01*
X218619605Y-71120000D01*
X218260395Y-71120000D01*
X217304587Y-70164192D01*
X217040186Y-70259956D01*
X216899296Y-70549571D01*
X216817616Y-70861108D01*
X216798282Y-71182595D01*
X214995000Y-71182595D01*
X214995000Y-70958967D01*
X214932168Y-70643088D01*
X214808918Y-70345537D01*
X214629987Y-70077748D01*
X214576896Y-70024657D01*
X214575616Y-69984587D01*
X217484192Y-69984587D01*
X218440000Y-70940395D01*
X219395808Y-69984587D01*
X219300044Y-69720186D01*
X219010429Y-69579296D01*
X218698892Y-69497616D01*
X218377405Y-69478282D01*
X218058325Y-69522039D01*
X217753912Y-69627205D01*
X217579956Y-69720186D01*
X217484192Y-69984587D01*
X214575616Y-69984587D01*
X214554383Y-69320135D01*
X214645840Y-69008064D01*
X214648499Y-69007535D01*
X214976988Y-68871471D01*
X215272621Y-68673935D01*
X215524035Y-68422521D01*
X215721571Y-68126888D01*
X215857635Y-67798399D01*
X215927000Y-67449677D01*
X215927000Y-67094123D01*
X215857635Y-66745401D01*
X215721571Y-66416912D01*
X215524035Y-66121279D01*
X215499149Y-66096393D01*
X216185622Y-63754000D01*
X218091205Y-63754000D01*
X218267012Y-63871471D01*
G04 #@! TA.AperFunction,Conductor*
D31*
G36*
X218267012Y-63871471D02*
G01*
X218595501Y-64007535D01*
X218944223Y-64076900D01*
X219299777Y-64076900D01*
X219648499Y-64007535D01*
X219976988Y-63871471D01*
X220152795Y-63754000D01*
X222618306Y-63754000D01*
X221971174Y-70536437D01*
X221971250Y-70561334D01*
X221974675Y-70578282D01*
X221947832Y-70643088D01*
X221885000Y-70958967D01*
X221885000Y-71281033D01*
X221947832Y-71596912D01*
X222071082Y-71894463D01*
X222250013Y-72162252D01*
X222477748Y-72389987D01*
X222745537Y-72568918D01*
X223043088Y-72692168D01*
X223358967Y-72755000D01*
X223681033Y-72755000D01*
X223996912Y-72692168D01*
X224294463Y-72568918D01*
X224418954Y-72485736D01*
X224458795Y-72516239D01*
X224479951Y-72529363D01*
X224503262Y-72538108D01*
X224536000Y-72542400D01*
X226493001Y-72542400D01*
X226493001Y-81835106D01*
X226341658Y-89908646D01*
X221879243Y-90104259D01*
X219645395Y-87982414D01*
X220341611Y-87982414D01*
X220372557Y-88110219D01*
X220501643Y-88404537D01*
X220685668Y-88668016D01*
X220917559Y-88890531D01*
X221188405Y-89063531D01*
X221487797Y-89180367D01*
X221804230Y-89236550D01*
X222554800Y-89236550D01*
X222554800Y-87729060D01*
X222808800Y-87729060D01*
X222808800Y-89236550D01*
X223559370Y-89236550D01*
X223875803Y-89180367D01*
X224175195Y-89063531D01*
X224446041Y-88890531D01*
X224677932Y-88668016D01*
X224861957Y-88404537D01*
X224991043Y-88110219D01*
X225021989Y-87982414D01*
X224902635Y-87729060D01*
X222808800Y-87729060D01*
X222554800Y-87729060D01*
X220460965Y-87729060D01*
X220341611Y-87982414D01*
X219645395Y-87982414D01*
X218844532Y-87221706D01*
X220341611Y-87221706D01*
X220460965Y-87475060D01*
X222554800Y-87475060D01*
X222554800Y-85967570D01*
X222808800Y-85967570D01*
X222808800Y-87475060D01*
X224902635Y-87475060D01*
X225021989Y-87221706D01*
X224991043Y-87093901D01*
X224861957Y-86799583D01*
X224677932Y-86536104D01*
X224446041Y-86313589D01*
X224175195Y-86140589D01*
X223875803Y-86023753D01*
X223559370Y-85967570D01*
X222808800Y-85967570D01*
X222554800Y-85967570D01*
X221804230Y-85967570D01*
X221487797Y-86023753D01*
X221188405Y-86140589D01*
X220917559Y-86313589D01*
X220685668Y-86536104D01*
X220501643Y-86799583D01*
X220372557Y-87093901D01*
X220341611Y-87221706D01*
X218844532Y-87221706D01*
X217400451Y-85850031D01*
X217432499Y-84899277D01*
X220501100Y-84893687D01*
X220565626Y-85014407D01*
X220769879Y-85263291D01*
X221018763Y-85467544D01*
X221302711Y-85619318D01*
X221610814Y-85712780D01*
X221850938Y-85736430D01*
X223512662Y-85736430D01*
X223752786Y-85712780D01*
X224060889Y-85619318D01*
X224344837Y-85467544D01*
X224593721Y-85263291D01*
X224797974Y-85014407D01*
X224949748Y-84730459D01*
X225043210Y-84422356D01*
X225074768Y-84101940D01*
X225043210Y-83781524D01*
X224949748Y-83473421D01*
X224797974Y-83189473D01*
X224593721Y-82940589D01*
X224344837Y-82736336D01*
X224060889Y-82584562D01*
X223752786Y-82491100D01*
X223512662Y-82467450D01*
X221889817Y-82467450D01*
X220013535Y-80274819D01*
X219731491Y-79875413D01*
X222564192Y-79875413D01*
X222659956Y-80139814D01*
X222949571Y-80280704D01*
X223261108Y-80362384D01*
X223582595Y-80381718D01*
X223901675Y-80337961D01*
X224206088Y-80232795D01*
X224380044Y-80139814D01*
X224475808Y-79875413D01*
X223520000Y-78919605D01*
X222564192Y-79875413D01*
X219731491Y-79875413D01*
X219684032Y-79808207D01*
X219709987Y-79782252D01*
X219888918Y-79514463D01*
X220012168Y-79216912D01*
X220075000Y-78901033D01*
X220075000Y-78802595D01*
X221878282Y-78802595D01*
X221922039Y-79121675D01*
X222027205Y-79426088D01*
X222120186Y-79600044D01*
X222384587Y-79695808D01*
X223340395Y-78740000D01*
X223699605Y-78740000D01*
X224655413Y-79695808D01*
X224919814Y-79600044D01*
X225060704Y-79310429D01*
X225142384Y-78998892D01*
X225161718Y-78677405D01*
X225117961Y-78358325D01*
X225012795Y-78053912D01*
X224919814Y-77879956D01*
X224655413Y-77784192D01*
X223699605Y-78740000D01*
X223340395Y-78740000D01*
X222384587Y-77784192D01*
X222120186Y-77879956D01*
X221979296Y-78169571D01*
X221897616Y-78481108D01*
X221878282Y-78802595D01*
X220075000Y-78802595D01*
X220075000Y-78578967D01*
X220012168Y-78263088D01*
X219888918Y-77965537D01*
X219709987Y-77697748D01*
X219616826Y-77604587D01*
X222564192Y-77604587D01*
X223520000Y-78560395D01*
X224475808Y-77604587D01*
X224380044Y-77340186D01*
X224090429Y-77199296D01*
X223778892Y-77117616D01*
X223457405Y-77098282D01*
X223138325Y-77142039D01*
X222833912Y-77247205D01*
X222659956Y-77340186D01*
X222564192Y-77604587D01*
X219616826Y-77604587D01*
X219482252Y-77470013D01*
X219214463Y-77291082D01*
X218916912Y-77167832D01*
X218601033Y-77105000D01*
X218278967Y-77105000D01*
X217963088Y-77167832D01*
X217665537Y-77291082D01*
X217602934Y-77332912D01*
X214767166Y-75978993D01*
X214648180Y-72255413D01*
X217484192Y-72255413D01*
X217579956Y-72519814D01*
X217869571Y-72660704D01*
X218181108Y-72742384D01*
X218502595Y-72761718D01*
X218821675Y-72717961D01*
X219126088Y-72612795D01*
X219300044Y-72519814D01*
X219395808Y-72255413D01*
X218440000Y-71299605D01*
X217484192Y-72255413D01*
X214648180Y-72255413D01*
X214644508Y-72140520D01*
X214808918Y-71894463D01*
X214932168Y-71596912D01*
X214995000Y-71281033D01*
X214995000Y-71182595D01*
X216798282Y-71182595D01*
X216842039Y-71501675D01*
X216947205Y-71806088D01*
X217040186Y-71980044D01*
X217304587Y-72075808D01*
X218260395Y-71120000D01*
X218619605Y-71120000D01*
X219575413Y-72075808D01*
X219839814Y-71980044D01*
X219980704Y-71690429D01*
X220062384Y-71378892D01*
X220081718Y-71057405D01*
X220037961Y-70738325D01*
X219932795Y-70433912D01*
X219839814Y-70259956D01*
X219575413Y-70164192D01*
X218619605Y-71120000D01*
X218260395Y-71120000D01*
X217304587Y-70164192D01*
X217040186Y-70259956D01*
X216899296Y-70549571D01*
X216817616Y-70861108D01*
X216798282Y-71182595D01*
X214995000Y-71182595D01*
X214995000Y-70958967D01*
X214932168Y-70643088D01*
X214808918Y-70345537D01*
X214629987Y-70077748D01*
X214576896Y-70024657D01*
X214575616Y-69984587D01*
X217484192Y-69984587D01*
X218440000Y-70940395D01*
X219395808Y-69984587D01*
X219300044Y-69720186D01*
X219010429Y-69579296D01*
X218698892Y-69497616D01*
X218377405Y-69478282D01*
X218058325Y-69522039D01*
X217753912Y-69627205D01*
X217579956Y-69720186D01*
X217484192Y-69984587D01*
X214575616Y-69984587D01*
X214554383Y-69320135D01*
X214645840Y-69008064D01*
X214648499Y-69007535D01*
X214976988Y-68871471D01*
X215272621Y-68673935D01*
X215524035Y-68422521D01*
X215721571Y-68126888D01*
X215857635Y-67798399D01*
X215927000Y-67449677D01*
X215927000Y-67094123D01*
X215857635Y-66745401D01*
X215721571Y-66416912D01*
X215524035Y-66121279D01*
X215499149Y-66096393D01*
X216185622Y-63754000D01*
X218091205Y-63754000D01*
X218267012Y-63871471D01*
G37*
G04 #@! TD.AperFunction*
D30*
X217091783Y-77072913D02*
X217250737Y-77617024D01*
X217170013Y-77697748D01*
X216991082Y-77965537D01*
X216867832Y-78263088D01*
X216805000Y-78578967D01*
X216805000Y-78901033D01*
X216867832Y-79216912D01*
X216991082Y-79514463D01*
X217170013Y-79782252D01*
X217397748Y-80009987D01*
X217665537Y-80188918D01*
X217963088Y-80312168D01*
X218278967Y-80375000D01*
X218601033Y-80375000D01*
X218916912Y-80312168D01*
X219214463Y-80188918D01*
X219482252Y-80009987D01*
X219598081Y-79894158D01*
X219711382Y-79928376D01*
X219728789Y-79932323D01*
X220005632Y-79974914D01*
X221769323Y-82475488D01*
X221610814Y-82491100D01*
X221302711Y-82584562D01*
X221018763Y-82736336D01*
X220769879Y-82940589D01*
X220565626Y-83189473D01*
X220413852Y-83473421D01*
X220320390Y-83781524D01*
X220288832Y-84101940D01*
X220320390Y-84422356D01*
X220413852Y-84730459D01*
X220429535Y-84759800D01*
X217233500Y-84759800D01*
X217233500Y-80441800D01*
X217231060Y-80417024D01*
X217223833Y-80393199D01*
X217212097Y-80371243D01*
X217196303Y-80351997D01*
X217184728Y-80341753D01*
X214995000Y-78629572D01*
X214995000Y-78578967D01*
X214932168Y-78263088D01*
X214816170Y-77983045D01*
X214728279Y-76242804D01*
X217091783Y-77072913D01*
G04 #@! TA.AperFunction,Conductor*
D31*
G36*
X217091783Y-77072913D02*
G01*
X217250737Y-77617024D01*
X217170013Y-77697748D01*
X216991082Y-77965537D01*
X216867832Y-78263088D01*
X216805000Y-78578967D01*
X216805000Y-78901033D01*
X216867832Y-79216912D01*
X216991082Y-79514463D01*
X217170013Y-79782252D01*
X217397748Y-80009987D01*
X217665537Y-80188918D01*
X217963088Y-80312168D01*
X218278967Y-80375000D01*
X218601033Y-80375000D01*
X218916912Y-80312168D01*
X219214463Y-80188918D01*
X219482252Y-80009987D01*
X219598081Y-79894158D01*
X219711382Y-79928376D01*
X219728789Y-79932323D01*
X220005632Y-79974914D01*
X221769323Y-82475488D01*
X221610814Y-82491100D01*
X221302711Y-82584562D01*
X221018763Y-82736336D01*
X220769879Y-82940589D01*
X220565626Y-83189473D01*
X220413852Y-83473421D01*
X220320390Y-83781524D01*
X220288832Y-84101940D01*
X220320390Y-84422356D01*
X220413852Y-84730459D01*
X220429535Y-84759800D01*
X217233500Y-84759800D01*
X217233500Y-80441800D01*
X217231060Y-80417024D01*
X217223833Y-80393199D01*
X217212097Y-80371243D01*
X217196303Y-80351997D01*
X217184728Y-80341753D01*
X214995000Y-78629572D01*
X214995000Y-78578967D01*
X214932168Y-78263088D01*
X214816170Y-77983045D01*
X214728279Y-76242804D01*
X217091783Y-77072913D01*
G37*
G04 #@! TD.AperFunction*
D30*
X214120812Y-73160948D02*
X214081371Y-77272725D01*
X213930429Y-77199296D01*
X213618892Y-77117616D01*
X213297405Y-77098282D01*
X212978325Y-77142039D01*
X212673912Y-77247205D01*
X212499956Y-77340186D01*
X212404192Y-77604587D01*
X213360000Y-78560395D01*
X213374143Y-78546253D01*
X213553748Y-78725858D01*
X213539605Y-78740000D01*
X214495413Y-79695808D01*
X214540481Y-79679485D01*
X214783001Y-80363739D01*
X214972948Y-87239807D01*
X214976072Y-87264507D01*
X214983954Y-87288122D01*
X214996292Y-87309746D01*
X215010097Y-87326103D01*
X219814685Y-92130691D01*
X219838073Y-92524383D01*
X219774680Y-92490498D01*
X219654982Y-92454188D01*
X219530500Y-92441928D01*
X219128714Y-92441928D01*
X219073623Y-92396716D01*
X218876447Y-92291324D01*
X218662499Y-92226423D01*
X218440000Y-92204509D01*
X218217502Y-92226423D01*
X218003554Y-92291324D01*
X217806378Y-92396716D01*
X217751287Y-92441928D01*
X217730500Y-92441928D01*
X217606018Y-92454188D01*
X217486320Y-92490498D01*
X217429038Y-92521117D01*
X215180800Y-92497939D01*
X215180800Y-91541552D01*
X215186291Y-91485800D01*
X215164377Y-91263301D01*
X215129637Y-91148781D01*
X215099476Y-91049353D01*
X214994084Y-90852177D01*
X214852249Y-90679351D01*
X214808940Y-90643808D01*
X214700151Y-90535019D01*
X214610945Y-90368125D01*
X214577898Y-90139158D01*
X214571943Y-90114984D01*
X214561387Y-90092437D01*
X214546635Y-90072382D01*
X214522313Y-90051408D01*
X210850816Y-87620451D01*
X210843796Y-87556772D01*
X211264400Y-87556772D01*
X211388882Y-87544512D01*
X211508580Y-87508202D01*
X211618894Y-87449237D01*
X211715585Y-87369885D01*
X211794937Y-87273194D01*
X211853902Y-87162880D01*
X211890212Y-87043182D01*
X211902472Y-86918700D01*
X211902472Y-85318700D01*
X211890212Y-85194218D01*
X211853902Y-85074520D01*
X211794937Y-84964206D01*
X211715585Y-84867515D01*
X211618894Y-84788163D01*
X211508580Y-84729198D01*
X211388882Y-84692888D01*
X211264400Y-84680628D01*
X210526741Y-84680628D01*
X210501735Y-84453784D01*
X210496595Y-84429424D01*
X210486801Y-84406535D01*
X210472730Y-84385997D01*
X210452893Y-84367006D01*
X207485369Y-82086182D01*
X209367288Y-79876444D01*
X209368004Y-79875413D01*
X212404192Y-79875413D01*
X212499956Y-80139814D01*
X212789571Y-80280704D01*
X213101108Y-80362384D01*
X213422595Y-80381718D01*
X213741675Y-80337961D01*
X214046088Y-80232795D01*
X214220044Y-80139814D01*
X214315808Y-79875413D01*
X213360000Y-78919605D01*
X212404192Y-79875413D01*
X209368004Y-79875413D01*
X209381494Y-79855999D01*
X209391439Y-79833175D01*
X209396741Y-79808850D01*
X209397569Y-79791299D01*
X209392869Y-79578217D01*
X209398577Y-79559399D01*
X209415000Y-79392652D01*
X209420491Y-79336900D01*
X209415000Y-79281148D01*
X209415000Y-78802595D01*
X211718282Y-78802595D01*
X211762039Y-79121675D01*
X211867205Y-79426088D01*
X211960186Y-79600044D01*
X212224587Y-79695808D01*
X213180395Y-78740000D01*
X212224587Y-77784192D01*
X211960186Y-77879956D01*
X211819296Y-78169571D01*
X211737616Y-78481108D01*
X211718282Y-78802595D01*
X209415000Y-78802595D01*
X209415000Y-73021172D01*
X214120812Y-73160948D01*
G04 #@! TA.AperFunction,Conductor*
D31*
G36*
X214120812Y-73160948D02*
G01*
X214081371Y-77272725D01*
X213930429Y-77199296D01*
X213618892Y-77117616D01*
X213297405Y-77098282D01*
X212978325Y-77142039D01*
X212673912Y-77247205D01*
X212499956Y-77340186D01*
X212404192Y-77604587D01*
X213360000Y-78560395D01*
X213374143Y-78546253D01*
X213553748Y-78725858D01*
X213539605Y-78740000D01*
X214495413Y-79695808D01*
X214540481Y-79679485D01*
X214783001Y-80363739D01*
X214972948Y-87239807D01*
X214976072Y-87264507D01*
X214983954Y-87288122D01*
X214996292Y-87309746D01*
X215010097Y-87326103D01*
X219814685Y-92130691D01*
X219838073Y-92524383D01*
X219774680Y-92490498D01*
X219654982Y-92454188D01*
X219530500Y-92441928D01*
X219128714Y-92441928D01*
X219073623Y-92396716D01*
X218876447Y-92291324D01*
X218662499Y-92226423D01*
X218440000Y-92204509D01*
X218217502Y-92226423D01*
X218003554Y-92291324D01*
X217806378Y-92396716D01*
X217751287Y-92441928D01*
X217730500Y-92441928D01*
X217606018Y-92454188D01*
X217486320Y-92490498D01*
X217429038Y-92521117D01*
X215180800Y-92497939D01*
X215180800Y-91541552D01*
X215186291Y-91485800D01*
X215164377Y-91263301D01*
X215129637Y-91148781D01*
X215099476Y-91049353D01*
X214994084Y-90852177D01*
X214852249Y-90679351D01*
X214808940Y-90643808D01*
X214700151Y-90535019D01*
X214610945Y-90368125D01*
X214577898Y-90139158D01*
X214571943Y-90114984D01*
X214561387Y-90092437D01*
X214546635Y-90072382D01*
X214522313Y-90051408D01*
X210850816Y-87620451D01*
X210843796Y-87556772D01*
X211264400Y-87556772D01*
X211388882Y-87544512D01*
X211508580Y-87508202D01*
X211618894Y-87449237D01*
X211715585Y-87369885D01*
X211794937Y-87273194D01*
X211853902Y-87162880D01*
X211890212Y-87043182D01*
X211902472Y-86918700D01*
X211902472Y-85318700D01*
X211890212Y-85194218D01*
X211853902Y-85074520D01*
X211794937Y-84964206D01*
X211715585Y-84867515D01*
X211618894Y-84788163D01*
X211508580Y-84729198D01*
X211388882Y-84692888D01*
X211264400Y-84680628D01*
X210526741Y-84680628D01*
X210501735Y-84453784D01*
X210496595Y-84429424D01*
X210486801Y-84406535D01*
X210472730Y-84385997D01*
X210452893Y-84367006D01*
X207485369Y-82086182D01*
X209367288Y-79876444D01*
X209368004Y-79875413D01*
X212404192Y-79875413D01*
X212499956Y-80139814D01*
X212789571Y-80280704D01*
X213101108Y-80362384D01*
X213422595Y-80381718D01*
X213741675Y-80337961D01*
X214046088Y-80232795D01*
X214220044Y-80139814D01*
X214315808Y-79875413D01*
X213360000Y-78919605D01*
X212404192Y-79875413D01*
X209368004Y-79875413D01*
X209381494Y-79855999D01*
X209391439Y-79833175D01*
X209396741Y-79808850D01*
X209397569Y-79791299D01*
X209392869Y-79578217D01*
X209398577Y-79559399D01*
X209415000Y-79392652D01*
X209420491Y-79336900D01*
X209415000Y-79281148D01*
X209415000Y-78802595D01*
X211718282Y-78802595D01*
X211762039Y-79121675D01*
X211867205Y-79426088D01*
X211960186Y-79600044D01*
X212224587Y-79695808D01*
X213180395Y-78740000D01*
X212224587Y-77784192D01*
X211960186Y-77879956D01*
X211819296Y-78169571D01*
X211737616Y-78481108D01*
X211718282Y-78802595D01*
X209415000Y-78802595D01*
X209415000Y-73021172D01*
X214120812Y-73160948D01*
G37*
G04 #@! TD.AperFunction*
D30*
X221223654Y-90637674D02*
X221270024Y-93072113D01*
X221043500Y-93108723D01*
X221043500Y-92609008D01*
X220805759Y-92488959D01*
X220521880Y-92588766D01*
X220262927Y-92742038D01*
X220128189Y-92862808D01*
X220120002Y-92835820D01*
X220061037Y-92725506D01*
X219981685Y-92628815D01*
X219884994Y-92549463D01*
X219774680Y-92490498D01*
X219654982Y-92454188D01*
X219530500Y-92441928D01*
X219380234Y-92441928D01*
X218901677Y-91963371D01*
X218678661Y-90591819D01*
X221223654Y-90637674D01*
G04 #@! TA.AperFunction,Conductor*
D31*
G36*
X221223654Y-90637674D02*
G01*
X221270024Y-93072113D01*
X221043500Y-93108723D01*
X221043500Y-92609008D01*
X220805759Y-92488959D01*
X220521880Y-92588766D01*
X220262927Y-92742038D01*
X220128189Y-92862808D01*
X220120002Y-92835820D01*
X220061037Y-92725506D01*
X219981685Y-92628815D01*
X219884994Y-92549463D01*
X219774680Y-92490498D01*
X219654982Y-92454188D01*
X219530500Y-92441928D01*
X219380234Y-92441928D01*
X218901677Y-91963371D01*
X218678661Y-90591819D01*
X221223654Y-90637674D01*
G37*
G04 #@! TD.AperFunction*
D30*
X216638034Y-80656924D02*
X216763635Y-86020073D01*
X216766654Y-86044786D01*
X216774437Y-86068435D01*
X216786684Y-86090110D01*
X216804277Y-86110252D01*
X221096300Y-90087611D01*
X221115248Y-90608679D01*
X218210935Y-90764695D01*
X214249000Y-87932968D01*
X214249000Y-80059868D01*
X214315808Y-79875413D01*
X214249000Y-79808605D01*
X214249000Y-79449395D01*
X214495413Y-79695808D01*
X214759814Y-79600044D01*
X214900704Y-79310429D01*
X214905771Y-79291102D01*
X216638034Y-80656924D01*
G04 #@! TA.AperFunction,Conductor*
D31*
G36*
X216638034Y-80656924D02*
G01*
X216763635Y-86020073D01*
X216766654Y-86044786D01*
X216774437Y-86068435D01*
X216786684Y-86090110D01*
X216804277Y-86110252D01*
X221096300Y-90087611D01*
X221115248Y-90608679D01*
X218210935Y-90764695D01*
X214249000Y-87932968D01*
X214249000Y-80059868D01*
X214315808Y-79875413D01*
X214249000Y-79808605D01*
X214249000Y-79449395D01*
X214495413Y-79695808D01*
X214759814Y-79600044D01*
X214900704Y-79310429D01*
X214905771Y-79291102D01*
X216638034Y-80656924D01*
G37*
G04 #@! TD.AperFunction*
D30*
X213118101Y-64377130D02*
X208861233Y-68634000D01*
X206339868Y-68634000D01*
X205997654Y-68291786D01*
X205933586Y-68137111D01*
X205831262Y-67983972D01*
X205778745Y-67931455D01*
X205723763Y-67840129D01*
X205967001Y-67610499D01*
X206046006Y-67675337D01*
X206156320Y-67734302D01*
X206276018Y-67770612D01*
X206400500Y-67782872D01*
X206914750Y-67779800D01*
X207073500Y-67621050D01*
X207073500Y-66565902D01*
X207173178Y-66471800D01*
X207327500Y-66471800D01*
X207327500Y-67621050D01*
X207486250Y-67779800D01*
X208000500Y-67782872D01*
X208124982Y-67770612D01*
X208244680Y-67734302D01*
X208354994Y-67675337D01*
X208451685Y-67595985D01*
X208531037Y-67499294D01*
X208590002Y-67388980D01*
X208626312Y-67269282D01*
X208638572Y-67144800D01*
X208635500Y-66630550D01*
X208476750Y-66471800D01*
X207327500Y-66471800D01*
X207173178Y-66471800D01*
X207442230Y-66217800D01*
X208476750Y-66217800D01*
X208635500Y-66059050D01*
X208638572Y-65544800D01*
X208626312Y-65420318D01*
X208590002Y-65300620D01*
X208531037Y-65190306D01*
X208530852Y-65190080D01*
X211060978Y-62801500D01*
X213118100Y-62801500D01*
X213118101Y-64377130D01*
G04 #@! TA.AperFunction,Conductor*
D31*
G36*
X213118101Y-64377130D02*
G01*
X208861233Y-68634000D01*
X206339868Y-68634000D01*
X205997654Y-68291786D01*
X205933586Y-68137111D01*
X205831262Y-67983972D01*
X205778745Y-67931455D01*
X205723763Y-67840129D01*
X205967001Y-67610499D01*
X206046006Y-67675337D01*
X206156320Y-67734302D01*
X206276018Y-67770612D01*
X206400500Y-67782872D01*
X206914750Y-67779800D01*
X207073500Y-67621050D01*
X207073500Y-66565902D01*
X207173178Y-66471800D01*
X207327500Y-66471800D01*
X207327500Y-67621050D01*
X207486250Y-67779800D01*
X208000500Y-67782872D01*
X208124982Y-67770612D01*
X208244680Y-67734302D01*
X208354994Y-67675337D01*
X208451685Y-67595985D01*
X208531037Y-67499294D01*
X208590002Y-67388980D01*
X208626312Y-67269282D01*
X208638572Y-67144800D01*
X208635500Y-66630550D01*
X208476750Y-66471800D01*
X207327500Y-66471800D01*
X207173178Y-66471800D01*
X207442230Y-66217800D01*
X208476750Y-66217800D01*
X208635500Y-66059050D01*
X208638572Y-65544800D01*
X208626312Y-65420318D01*
X208590002Y-65300620D01*
X208531037Y-65190306D01*
X208530852Y-65190080D01*
X211060978Y-62801500D01*
X213118100Y-62801500D01*
X213118101Y-64377130D01*
G37*
G04 #@! TD.AperFunction*
D30*
X213103979Y-59178905D02*
X213044572Y-62850231D01*
X207449795Y-62758325D01*
X207619074Y-62724653D01*
X207880227Y-62616480D01*
X208115259Y-62459437D01*
X208315137Y-62259559D01*
X208472180Y-62024527D01*
X208580353Y-61763374D01*
X208635500Y-61486135D01*
X208635500Y-61203465D01*
X208580353Y-60926226D01*
X208472180Y-60665073D01*
X208315137Y-60430041D01*
X208115259Y-60230163D01*
X207880227Y-60073120D01*
X207619074Y-59964947D01*
X207341835Y-59909800D01*
X207059165Y-59909800D01*
X206781926Y-59964947D01*
X206520773Y-60073120D01*
X206285741Y-60230163D01*
X206085863Y-60430041D01*
X205928820Y-60665073D01*
X205820647Y-60926226D01*
X205765500Y-61203465D01*
X205765500Y-61486135D01*
X205820647Y-61763374D01*
X205928820Y-62024527D01*
X206085863Y-62259559D01*
X206285741Y-62459437D01*
X206485987Y-62593237D01*
X206487736Y-62710397D01*
X205088686Y-62990207D01*
X204993817Y-58981997D01*
X213103979Y-59178905D01*
G04 #@! TA.AperFunction,Conductor*
D31*
G36*
X213103979Y-59178905D02*
G01*
X213044572Y-62850231D01*
X207449795Y-62758325D01*
X207619074Y-62724653D01*
X207880227Y-62616480D01*
X208115259Y-62459437D01*
X208315137Y-62259559D01*
X208472180Y-62024527D01*
X208580353Y-61763374D01*
X208635500Y-61486135D01*
X208635500Y-61203465D01*
X208580353Y-60926226D01*
X208472180Y-60665073D01*
X208315137Y-60430041D01*
X208115259Y-60230163D01*
X207880227Y-60073120D01*
X207619074Y-59964947D01*
X207341835Y-59909800D01*
X207059165Y-59909800D01*
X206781926Y-59964947D01*
X206520773Y-60073120D01*
X206285741Y-60230163D01*
X206085863Y-60430041D01*
X205928820Y-60665073D01*
X205820647Y-60926226D01*
X205765500Y-61203465D01*
X205765500Y-61486135D01*
X205820647Y-61763374D01*
X205928820Y-62024527D01*
X206085863Y-62259559D01*
X206285741Y-62459437D01*
X206485987Y-62593237D01*
X206487736Y-62710397D01*
X205088686Y-62990207D01*
X204993817Y-58981997D01*
X213103979Y-59178905D01*
G37*
G04 #@! TD.AperFunction*
D30*
X174815500Y-91630500D02*
X174817940Y-91655276D01*
X174825167Y-91679101D01*
X174836903Y-91701057D01*
X174852697Y-91720303D01*
X174871943Y-91736097D01*
X174893899Y-91747833D01*
X174917724Y-91755060D01*
X174942500Y-91757500D01*
X175080688Y-91757500D01*
X175069028Y-91779314D01*
X175021282Y-91936712D01*
X175005160Y-92100400D01*
X175009201Y-92141428D01*
X175009200Y-98980881D01*
X175009200Y-98980882D01*
X175009201Y-103540172D01*
X175005160Y-103581200D01*
X175021282Y-103744888D01*
X175069028Y-103902286D01*
X175133000Y-104021969D01*
X175133000Y-104267000D01*
X175135440Y-104291776D01*
X175142667Y-104315601D01*
X175154403Y-104337557D01*
X175164877Y-104351147D01*
X176593500Y-105966112D01*
X176593500Y-114998500D01*
X176595940Y-115023276D01*
X176603167Y-115047101D01*
X176614903Y-115069057D01*
X176630697Y-115088303D01*
X176649943Y-115104097D01*
X176671899Y-115115833D01*
X176695724Y-115123060D01*
X176720500Y-115125500D01*
X199453500Y-115125500D01*
X199478276Y-115123060D01*
X199502101Y-115115833D01*
X199524057Y-115104097D01*
X199543303Y-115088303D01*
X199559097Y-115069057D01*
X199570833Y-115047101D01*
X199578060Y-115023276D01*
X199580500Y-114998500D01*
X199580500Y-114458903D01*
X205676500Y-112691063D01*
X205676500Y-118543000D01*
X173176000Y-118543000D01*
X173176000Y-72326500D01*
X174815500Y-72326500D01*
X174815500Y-91630500D01*
G04 #@! TA.AperFunction,Conductor*
D31*
G36*
X174815500Y-91630500D02*
G01*
X174817940Y-91655276D01*
X174825167Y-91679101D01*
X174836903Y-91701057D01*
X174852697Y-91720303D01*
X174871943Y-91736097D01*
X174893899Y-91747833D01*
X174917724Y-91755060D01*
X174942500Y-91757500D01*
X175080688Y-91757500D01*
X175069028Y-91779314D01*
X175021282Y-91936712D01*
X175005160Y-92100400D01*
X175009201Y-92141428D01*
X175009200Y-98980881D01*
X175009200Y-98980882D01*
X175009201Y-103540172D01*
X175005160Y-103581200D01*
X175021282Y-103744888D01*
X175069028Y-103902286D01*
X175133000Y-104021969D01*
X175133000Y-104267000D01*
X175135440Y-104291776D01*
X175142667Y-104315601D01*
X175154403Y-104337557D01*
X175164877Y-104351147D01*
X176593500Y-105966112D01*
X176593500Y-114998500D01*
X176595940Y-115023276D01*
X176603167Y-115047101D01*
X176614903Y-115069057D01*
X176630697Y-115088303D01*
X176649943Y-115104097D01*
X176671899Y-115115833D01*
X176695724Y-115123060D01*
X176720500Y-115125500D01*
X199453500Y-115125500D01*
X199478276Y-115123060D01*
X199502101Y-115115833D01*
X199524057Y-115104097D01*
X199543303Y-115088303D01*
X199559097Y-115069057D01*
X199570833Y-115047101D01*
X199578060Y-115023276D01*
X199580500Y-114998500D01*
X199580500Y-114458903D01*
X205676500Y-112691063D01*
X205676500Y-118543000D01*
X173176000Y-118543000D01*
X173176000Y-72326500D01*
X174815500Y-72326500D01*
X174815500Y-91630500D01*
G37*
G04 #@! TD.AperFunction*
M02*
