M48
; DRILL file {KiCad (5.1.8)-1} date 03/02/21 12:26:10
; FORMAT={-:-/ absolute / inch / decimal}
; #@! TF.CreationDate,2021-03-02T12:26:10+01:00
; #@! TF.GenerationSoftware,Kicad,Pcbnew,(5.1.8)-1
; #@! TF.FileFunction,Plated,1,2,PTH
FMAT,2
INCH
T1C0.0157
T2C0.0315
T3C0.0394
T4C0.0472
T5C0.0512
T6C0.0551
%
G90
G05
T1
X7.004Y-3.595
X7.1265Y-2.9595
X7.5185Y-3.2335
X7.7785Y-2.8485
X7.9875Y-3.5255
X8.075Y-2.7
X8.2Y-2.775
T2
X7.0Y-3.7
X7.0Y-4.0
X7.1Y-3.7
X7.1Y-4.0
X7.2Y-3.7
X7.2Y-4.0
X7.3Y-3.7
X7.3Y-4.0
X7.4Y-3.7
X7.4Y-4.0
X7.5Y-3.7
X7.5Y-4.0
X7.6Y-3.7
X7.6Y-4.0
X7.7Y-3.7
X7.7Y-4.0
X7.8Y-3.7
X7.8Y-4.0
X8.0891Y-3.3905
X8.286Y-3.3905
X7.405Y-2.91
X7.405Y-3.31
X7.55Y-2.91
X7.55Y-3.31
X7.695Y-2.91
X7.695Y-3.31
X8.1575Y-2.4151
X8.1575Y-2.612
T3
X6.95Y-2.8
X6.95Y-2.9
X6.95Y-3.0
X6.95Y-3.1
X6.95Y-3.2
X6.95Y-3.3
X6.95Y-3.4
X6.95Y-3.5
X7.85Y-2.8
X7.85Y-2.9
X7.85Y-3.0
X7.85Y-3.1
X7.85Y-3.2
X7.85Y-3.3
X7.85Y-3.4
X7.85Y-3.5
X8.15Y-3.675
X8.25Y-3.675
X8.35Y-3.675
X8.6075Y-3.7
X8.7075Y-3.7
X8.8075Y-3.7
T4
X8.767Y-3.3111
X8.767Y-3.4489
X7.0196Y-4.3407
X7.1574Y-4.3407
X7.2952Y-4.3407
X7.433Y-4.3407
X7.5708Y-4.3407
X7.7086Y-4.3407
X7.8464Y-4.3407
X7.9842Y-4.3407
X8.122Y-4.3407
X8.2598Y-4.3407
X8.3976Y-4.3407
X8.5354Y-4.3407
T5
X8.43Y-2.6485
X8.6269Y-2.4516
X8.8237Y-2.6485
X8.1Y-2.8
X8.1Y-3.1
X8.4Y-2.8
X8.4Y-3.1
X8.6Y-2.8
X8.6Y-3.1
X8.8Y-2.8
X8.8Y-3.1
T6
X8.15Y-4.025
X8.35Y-4.025
X8.55Y-4.025
X8.75Y-4.025
T0
M30
